#N canvas 1835 48 1920 989 12;
#X obj 309 127 i;
#X obj 309 45 r on;
#X obj 363 23 r tempo;
#X obj 327 98 r reset;
#X obj 309 69 metro;
#X obj 309 155 % 16;
#X obj 340 127 + 1;
#X obj 363 50 / 4;
#X floatatom 309 179 5 0 0 0 - - - 0;
#X obj 309 202 sel 0 2 4 6 8 10 12 14;
#X obj 309 226 sel 1 3 5 7 9 11 13 15;
#X obj 475 221 s stepODD;
#X obj 475 245 s stepEVEN;
#X obj 184 324 tgl 49 0 empty empty PLAY 12 27 0 12 #c6ffc7 #000000 #000000 0 1;
#X text 153 171 On/Off;
#X msg 82 213 \; pd dsp \$1;
#X msg 214 213 0;
#X text 210 170 RESET;
#X obj 167 213 s on;
#X obj 214 237 s reset;
#X obj 598 268 s tempo;
#X floatatom 476 349 8 0 0 2 TEMPO(ms) - - 16;
#X obj 9 358 *~;
#X obj 245 324 hsl 162 49 0 1 0 0 empty empty OUT_VOLUME 45 27 0 12 #feffc6 #000000 #000000 0 1;
#X msg 49 487 0.5;
#X obj 49 463 loadbang;
#X obj 9 382 clip~ -1 1;
#X obj 9 313 catch~ signal;
#X obj 598 194 loadbang;
#X obj 351 178 s val;
#X msg 598 219 800;
#X obj 1222 32 notein;
#X floatatom 1222 56 5 0 0 0 - - - 0;
#X floatatom 1264 56 5 0 0 0 - - - 0;
#X floatatom 1306 56 5 0 0 0 - - - 0;
#X text 1269 77 Vel;
#X text 1302 78 Channel;
#X text 1221 78 Pitch;
#X obj 1171 79 sel 51;
#X floatatom 1705 154 5 0 0 0 - - - 0;
#X obj 1705 249 / 127;
#X obj 1705 130 ctlin 8;
#X obj 1637 130 ctlin 7;
#X obj 1569 130 ctlin 6;
#X obj 1236 103 ctlin 9;
#X obj 1297 103 ctlin 10;
#X obj 1365 103 ctlin 11;
#X obj 1433 103 ctlin 12;
#X obj 1501 103 ctlin 13;
#X obj 1569 103 ctlin 14;
#X obj 1637 103 ctlin 15;
#X obj 1705 103 ctlin 16;
#N canvas 138 110 958 446 kick_steps 0;
#N canvas 0 50 450 250 (subpatch) 0;
#X array \$0-kick 16 float 3;
#A 0 1 0 0 1 1 0 0 0 1 0 0 1 1 0 0 0;
#X coords 0 250 1 249 200 10 0;
#X restore 716 122 graph;
#X obj 761 160 array set \$0-kick;
#X text 23 142 KICK;
#X obj 500 160 pack f f f f f f f f f f f f f f f f;
#X obj 55 141 tgl 19 0 empty empty empty 0 -10 0 12 #fcfcfc #000000 #000000 0 1;
#X obj 77 141 tgl 19 0 empty empty empty 0 -10 0 12 #ffc7c6 #000000 #000000 0 1;
#X obj 99 141 tgl 19 0 empty empty empty 0 -10 0 12 #ffe3c6 #000000 #000000 0 1;
#X obj 121 141 tgl 19 0 empty empty empty 0 -10 0 12 #feffc6 #000000 #000000 0 1;
#X obj 143 141 tgl 19 0 empty empty empty 0 -10 0 12 #c6ffc7 #000000 #000000 0 1;
#X obj 165 141 tgl 19 0 empty empty empty 0 -10 0 12 #c6feff #000000 #000000 0 1;
#X obj 187 141 tgl 19 0 empty empty empty 0 -10 0 12 #c7c6ff #000000 #000000 0 1;
#X obj 209 141 tgl 19 0 empty empty empty 0 -10 0 12 #e3c6ff #000000 #000000 0 1;
#X obj 231 141 tgl 19 0 empty empty empty 0 -10 0 12 #fcfcfc #000000 #000000 0 1;
#X obj 253 141 tgl 19 0 empty empty empty 0 -10 0 12 #ffc7c6 #000000 #000000 0 1;
#X obj 275 141 tgl 19 0 empty empty empty 0 -10 0 12 #ffe3c6 #000000 #000000 0 1;
#X obj 297 141 tgl 19 0 empty empty empty 0 -10 0 12 #feffc6 #000000 #000000 0 1;
#X obj 319 141 tgl 19 0 empty empty empty 0 -10 0 12 #c6ffc7 #000000 #000000 0 1;
#X obj 341 141 tgl 19 0 empty empty empty 0 -10 0 12 #c6feff #000000 #000000 0 1;
#X obj 363 141 tgl 19 0 empty empty empty 0 -10 0 12 #c7c6ff #000000 #000000 0 1;
#X obj 385 141 tgl 19 0 empty empty empty 0 -10 0 12 #e3c6ff #000000 #000000 0 1;
#X obj 480 160 bng 19 250 50 0 empty empty empty 0 -10 0 12 #fcfcfc #000000 #000000;
#X obj 420 160 loadbang;
#X obj 420 122 unpack f f f f f f f f f f f f f f f f;
#X obj 420 98 inlet;
#X connect 3 0 1 0;
#X connect 4 0 3 0;
#X connect 4 0 20 0;
#X connect 5 0 3 1;
#X connect 5 0 20 0;
#X connect 6 0 3 2;
#X connect 6 0 20 0;
#X connect 7 0 3 3;
#X connect 7 0 20 0;
#X connect 8 0 3 4;
#X connect 8 0 20 0;
#X connect 9 0 3 5;
#X connect 9 0 20 0;
#X connect 10 0 3 6;
#X connect 10 0 20 0;
#X connect 11 0 3 7;
#X connect 11 0 20 0;
#X connect 12 0 3 8;
#X connect 12 0 20 0;
#X connect 13 0 3 9;
#X connect 13 0 20 0;
#X connect 14 0 3 10;
#X connect 14 0 20 0;
#X connect 15 0 3 11;
#X connect 15 0 20 0;
#X connect 16 0 3 12;
#X connect 16 0 20 0;
#X connect 17 0 3 13;
#X connect 17 0 20 0;
#X connect 18 0 3 14;
#X connect 18 0 20 0;
#X connect 19 0 3 15;
#X connect 19 0 20 0;
#X connect 20 0 3 0;
#X connect 21 0 3 0;
#X connect 22 0 4 0;
#X connect 22 1 5 0;
#X connect 22 2 6 0;
#X connect 22 3 7 0;
#X connect 22 4 8 0;
#X connect 22 5 9 0;
#X connect 22 6 10 0;
#X connect 22 7 11 0;
#X connect 22 8 12 0;
#X connect 22 9 13 0;
#X connect 22 10 14 0;
#X connect 22 11 15 0;
#X connect 22 12 16 0;
#X connect 22 13 17 0;
#X connect 22 14 18 0;
#X connect 22 15 19 0;
#X connect 23 0 22 0;
#X coords 0 -1 1 1 400 30 2 15 135;
#X restore 184 406 pd kick_steps;
#N canvas 1022 645 1366 677 hat_steps 0;
#N canvas 0 50 450 250 (subpatch) 0;
#X array \$0-hat 16 float 3;
#A 0 1 0 1 0 1 0 1 0 1 0 1 0 1 0 1 0;
#X coords 0 250 1 249 200 10 0;
#X restore 716 122 graph;
#X obj 761 160 array set \$0-hat;
#X text 30 142 HAT;
#X obj 500 160 pack f f f f f f f f f f f f f f f f;
#X obj 55 141 tgl 19 0 empty empty empty 0 -10 0 12 #fcfcfc #000000 #000000 0 1;
#X obj 77 141 tgl 19 0 empty empty empty 0 -10 0 12 #ffc7c6 #000000 #000000 0 1;
#X obj 99 141 tgl 19 0 empty empty empty 0 -10 0 12 #ffe3c6 #000000 #000000 0 1;
#X obj 121 141 tgl 19 0 empty empty empty 0 -10 0 12 #feffc6 #000000 #000000 0 1;
#X obj 143 141 tgl 19 0 empty empty empty 0 -10 0 12 #c6ffc7 #000000 #000000 0 1;
#X obj 165 141 tgl 19 0 empty empty empty 0 -10 0 12 #c6feff #000000 #000000 0 1;
#X obj 187 141 tgl 19 0 empty empty empty 0 -10 0 12 #c7c6ff #000000 #000000 0 1;
#X obj 209 141 tgl 19 0 empty empty empty 0 -10 0 12 #e3c6ff #000000 #000000 0 1;
#X obj 231 141 tgl 19 0 empty empty empty 0 -10 0 12 #fcfcfc #000000 #000000 0 1;
#X obj 253 141 tgl 19 0 empty empty empty 0 -10 0 12 #ffc7c6 #000000 #000000 0 1;
#X obj 275 141 tgl 19 0 empty empty empty 0 -10 0 12 #ffe3c6 #000000 #000000 0 1;
#X obj 297 141 tgl 19 0 empty empty empty 0 -10 0 12 #feffc6 #000000 #000000 0 1;
#X obj 319 141 tgl 19 0 empty empty empty 0 -10 0 12 #c6ffc7 #000000 #000000 0 1;
#X obj 341 141 tgl 19 0 empty empty empty 0 -10 0 12 #c6feff #000000 #000000 0 1;
#X obj 363 141 tgl 19 0 empty empty empty 0 -10 0 12 #c7c6ff #000000 #000000 0 1;
#X obj 385 141 tgl 19 0 empty empty empty 0 -10 0 12 #e3c6ff #000000 #000000 0 1;
#X obj 480 160 bng 19 250 50 0 empty empty empty 0 -10 0 12 #fcfcfc #000000 #000000;
#X obj 420 160 loadbang;
#X obj 420 122 unpack f f f f f f f f f f f f f f f f;
#X obj 420 98 inlet;
#X connect 3 0 1 0;
#X connect 4 0 3 0;
#X connect 4 0 20 0;
#X connect 5 0 3 1;
#X connect 5 0 20 0;
#X connect 6 0 3 2;
#X connect 6 0 20 0;
#X connect 7 0 3 3;
#X connect 7 0 20 0;
#X connect 8 0 3 4;
#X connect 8 0 20 0;
#X connect 9 0 3 5;
#X connect 9 0 20 0;
#X connect 10 0 3 6;
#X connect 10 0 20 0;
#X connect 11 0 3 7;
#X connect 11 0 20 0;
#X connect 12 0 3 8;
#X connect 12 0 20 0;
#X connect 13 0 3 9;
#X connect 13 0 20 0;
#X connect 14 0 3 10;
#X connect 14 0 20 0;
#X connect 15 0 3 11;
#X connect 15 0 20 0;
#X connect 16 0 3 12;
#X connect 16 0 20 0;
#X connect 17 0 3 13;
#X connect 17 0 20 0;
#X connect 18 0 3 14;
#X connect 18 0 20 0;
#X connect 19 0 3 15;
#X connect 19 0 20 0;
#X connect 20 0 3 0;
#X connect 21 0 3 0;
#X connect 22 0 4 0;
#X connect 22 1 5 0;
#X connect 22 2 6 0;
#X connect 22 3 7 0;
#X connect 22 4 8 0;
#X connect 22 5 9 0;
#X connect 22 6 10 0;
#X connect 22 7 11 0;
#X connect 22 8 12 0;
#X connect 22 9 13 0;
#X connect 22 10 14 0;
#X connect 22 11 15 0;
#X connect 22 12 16 0;
#X connect 22 13 17 0;
#X connect 22 14 18 0;
#X connect 22 15 19 0;
#X connect 23 0 22 0;
#X coords 0 -1 1 1 400 30 2 15 135;
#X restore 184 449 pd hat_steps;
#N canvas 2392 0 1198 581 snare_steps 0;
#N canvas 0 50 450 250 (subpatch) 0;
#X array \$0-snare 16 float 3;
#A 0 0 0 0 0 1 0 0 0 0 0 0 0 1 0 0 0;
#X coords 0 250 1 249 200 10 0;
#X restore 716 123 graph;
#X obj 761 161 array set \$0-snare;
#X text 16 142 SNARE;
#X obj 500 160 pack f f f f f f f f f f f f f f f f;
#X obj 55 141 tgl 19 0 empty empty empty 0 -10 0 12 #fcfcfc #000000 #000000 0 1;
#X obj 77 141 tgl 19 0 empty empty empty 0 -10 0 12 #ffc7c6 #000000 #000000 0 1;
#X obj 99 141 tgl 19 0 empty empty empty 0 -10 0 12 #ffe3c6 #000000 #000000 0 1;
#X obj 121 141 tgl 19 0 empty empty empty 0 -10 0 12 #feffc6 #000000 #000000 0 1;
#X obj 143 141 tgl 19 0 empty empty empty 0 -10 0 12 #c6ffc7 #000000 #000000 0 1;
#X obj 165 141 tgl 19 0 empty empty empty 0 -10 0 12 #c6feff #000000 #000000 0 1;
#X obj 187 141 tgl 19 0 empty empty empty 0 -10 0 12 #c7c6ff #000000 #000000 0 1;
#X obj 209 141 tgl 19 0 empty empty empty 0 -10 0 12 #e3c6ff #000000 #000000 0 1;
#X obj 231 141 tgl 19 0 empty empty empty 0 -10 0 12 #fcfcfc #000000 #000000 0 1;
#X obj 253 141 tgl 19 0 empty empty empty 0 -10 0 12 #ffc7c6 #000000 #000000 0 1;
#X obj 275 141 tgl 19 0 empty empty empty 0 -10 0 12 #ffe3c6 #000000 #000000 0 1;
#X obj 297 141 tgl 19 0 empty empty empty 0 -10 0 12 #feffc6 #000000 #000000 0 1;
#X obj 319 141 tgl 19 0 empty empty empty 0 -10 0 12 #c6ffc7 #000000 #000000 0 1;
#X obj 341 141 tgl 19 0 empty empty empty 0 -10 0 12 #c6feff #000000 #000000 0 1;
#X obj 363 141 tgl 19 0 empty empty empty 0 -10 0 12 #c7c6ff #000000 #000000 0 1;
#X obj 385 141 tgl 19 0 empty empty empty 0 -10 0 12 #e3c6ff #000000 #000000 0 1;
#X obj 480 160 bng 19 250 50 0 empty empty empty 0 -10 0 12 #fcfcfc #000000 #000000;
#X obj 420 160 loadbang;
#X obj 420 122 unpack f f f f f f f f f f f f f f f f;
#X obj 420 98 inlet;
#X connect 3 0 1 0;
#X connect 4 0 3 0;
#X connect 4 0 20 0;
#X connect 5 0 3 1;
#X connect 5 0 20 0;
#X connect 6 0 3 2;
#X connect 6 0 20 0;
#X connect 7 0 3 3;
#X connect 7 0 20 0;
#X connect 8 0 3 4;
#X connect 8 0 20 0;
#X connect 9 0 3 5;
#X connect 9 0 20 0;
#X connect 10 0 3 6;
#X connect 10 0 20 0;
#X connect 11 0 3 7;
#X connect 11 0 20 0;
#X connect 12 0 3 8;
#X connect 12 0 20 0;
#X connect 13 0 3 9;
#X connect 13 0 20 0;
#X connect 14 0 3 10;
#X connect 14 0 20 0;
#X connect 15 0 3 11;
#X connect 15 0 20 0;
#X connect 16 0 3 12;
#X connect 16 0 20 0;
#X connect 17 0 3 13;
#X connect 17 0 20 0;
#X connect 18 0 3 14;
#X connect 18 0 20 0;
#X connect 19 0 3 15;
#X connect 19 0 20 0;
#X connect 20 0 3 0;
#X connect 21 0 3 0;
#X connect 22 0 4 0;
#X connect 22 1 5 0;
#X connect 22 2 6 0;
#X connect 22 3 7 0;
#X connect 22 4 8 0;
#X connect 22 5 9 0;
#X connect 22 6 10 0;
#X connect 22 7 11 0;
#X connect 22 8 12 0;
#X connect 22 9 13 0;
#X connect 22 10 14 0;
#X connect 22 11 15 0;
#X connect 22 12 16 0;
#X connect 22 13 17 0;
#X connect 22 14 18 0;
#X connect 22 15 19 0;
#X connect 23 0 22 0;
#X coords 0 -1 1 1 400 30 2 15 135;
#X restore 184 492 pd snare_steps;
#N canvas 852 645 1366 677 tom1_steps 0;
#N canvas 0 50 450 250 (subpatch) 0;
#X array \$0-tom1 16 float 3;
#A 0 0 0 0 0 0 0 0 0 0 0 0 0 0 0 0 1;
#X coords 0 250 1 249 200 10 0;
#X restore 716 122 graph;
#X obj 761 160 array set \$0-tom1;
#X text 23 142 TOM1;
#X obj 500 160 pack f f f f f f f f f f f f f f f f;
#X obj 55 141 tgl 19 0 empty empty empty 0 -10 0 12 #fcfcfc #000000 #000000 0 1;
#X obj 77 141 tgl 19 0 empty empty empty 0 -10 0 12 #ffc7c6 #000000 #000000 0 1;
#X obj 99 141 tgl 19 0 empty empty empty 0 -10 0 12 #ffe3c6 #000000 #000000 0 1;
#X obj 121 141 tgl 19 0 empty empty empty 0 -10 0 12 #feffc6 #000000 #000000 0 1;
#X obj 143 141 tgl 19 0 empty empty empty 0 -10 0 12 #c6ffc7 #000000 #000000 0 1;
#X obj 165 141 tgl 19 0 empty empty empty 0 -10 0 12 #c6feff #000000 #000000 0 1;
#X obj 187 141 tgl 19 0 empty empty empty 0 -10 0 12 #c7c6ff #000000 #000000 0 1;
#X obj 209 141 tgl 19 0 empty empty empty 0 -10 0 12 #e3c6ff #000000 #000000 0 1;
#X obj 231 141 tgl 19 0 empty empty empty 0 -10 0 12 #fcfcfc #000000 #000000 0 1;
#X obj 253 141 tgl 19 0 empty empty empty 0 -10 0 12 #ffc7c6 #000000 #000000 0 1;
#X obj 275 141 tgl 19 0 empty empty empty 0 -10 0 12 #ffe3c6 #000000 #000000 0 1;
#X obj 297 141 tgl 19 0 empty empty empty 0 -10 0 12 #feffc6 #000000 #000000 0 1;
#X obj 319 141 tgl 19 0 empty empty empty 0 -10 0 12 #c6ffc7 #000000 #000000 0 1;
#X obj 341 141 tgl 19 0 empty empty empty 0 -10 0 12 #c6feff #000000 #000000 0 1;
#X obj 363 141 tgl 19 0 empty empty empty 0 -10 0 12 #c7c6ff #000000 #000000 0 1;
#X obj 385 141 tgl 19 0 empty empty empty 0 -10 0 12 #e3c6ff #000000 #000000 0 1;
#X obj 480 160 bng 19 250 50 0 empty empty empty 0 -10 0 12 #fcfcfc #000000 #000000;
#X obj 420 160 loadbang;
#X obj 420 122 unpack f f f f f f f f f f f f f f f f;
#X obj 420 98 inlet;
#X connect 3 0 1 0;
#X connect 4 0 3 0;
#X connect 4 0 20 0;
#X connect 5 0 3 1;
#X connect 5 0 20 0;
#X connect 6 0 3 2;
#X connect 6 0 20 0;
#X connect 7 0 3 3;
#X connect 7 0 20 0;
#X connect 8 0 3 4;
#X connect 8 0 20 0;
#X connect 9 0 3 5;
#X connect 9 0 20 0;
#X connect 10 0 3 6;
#X connect 10 0 20 0;
#X connect 11 0 3 7;
#X connect 11 0 20 0;
#X connect 12 0 3 8;
#X connect 12 0 20 0;
#X connect 13 0 3 9;
#X connect 13 0 20 0;
#X connect 14 0 3 10;
#X connect 14 0 20 0;
#X connect 15 0 3 11;
#X connect 15 0 20 0;
#X connect 16 0 3 12;
#X connect 16 0 20 0;
#X connect 17 0 3 13;
#X connect 17 0 20 0;
#X connect 18 0 3 14;
#X connect 18 0 20 0;
#X connect 19 0 3 15;
#X connect 19 0 20 0;
#X connect 20 0 3 0;
#X connect 21 0 3 0;
#X connect 22 0 4 0;
#X connect 22 1 5 0;
#X connect 22 2 6 0;
#X connect 22 3 7 0;
#X connect 22 4 8 0;
#X connect 22 5 9 0;
#X connect 22 6 10 0;
#X connect 22 7 11 0;
#X connect 22 8 12 0;
#X connect 22 9 13 0;
#X connect 22 10 14 0;
#X connect 22 11 15 0;
#X connect 22 12 16 0;
#X connect 22 13 17 0;
#X connect 22 14 18 0;
#X connect 22 15 19 0;
#X connect 23 0 22 0;
#X coords 0 -1 1 1 400 30 2 15 135;
#X restore 184 539 pd tom1_steps;
#N canvas 158 68 1366 677 hat_controls 0;
#X obj 191 490 *~;
#X obj 237 159 hsl 162 19 0 1 0 0 empty empty VOL -2 -10 0 12 #faff00 #000000 #000000 0 1;
#X floatatom 90 307 5 0 0 0 - - - 0;
#X obj 90 330 + 0.5;
#X obj 90 354 int;
#X floatatom 90 378 5 0 0 0 - - - 0;
#X obj 90 424 sel 0 1;
#X msg 148 257 1;
#X floatatom 250 304 5 0 0 0 - - - 0;
#X obj 250 327 + 0.5;
#X obj 250 351 int;
#X floatatom 250 376 5 0 0 0 - - - 0;
#X obj 250 423 sel 0 1;
#X msg 308 256 1;
#X obj 273 447 delay 100;
#X floatatom 345 448 5 0 0 0 - - - 0;
#X obj 90 233 r stepODD;
#X obj 250 232 r stepEVEN;
#X obj 237 197 hsl 162 19 0 0.55 0 0 empty empty vol_range -2 -10 0 12 #ff0400 #000000 #000000 0 1;
#X obj 358 375 r tempo;
#X obj 237 121 hsl 162 19 0 1 0 0 empty empty SWING -2 -10 0 12 #00ff04 #000000 #000000 0 1;
#X obj 60 159 hsl 162 19 0 100 0 0 empty empty EVEN_DENSITY -2 -10 0 12 #faff00 #000000 #000000 0 1;
#X obj 171 353 random 100;
#X floatatom 171 401 5 0 0 0 - - - 0;
#X obj 292 375 >;
#X floatatom 292 399 5 0 0 0 - - - 0;
#X obj 171 305 r val;
#X obj 171 329 bng 19 250 50 0 empty empty empty 0 -10 0 12 #fcfcfc #000000 #000000;
#X obj 60 197 hsl 162 19 0 100 0 0 empty empty ODD_DENSITY -2 -10 0 12 #ff0400 #000000 #000000 0 1;
#X obj 132 377 >;
#X floatatom 132 401 5 0 0 0 - - - 0;
#X obj 171 377 + 1;
#X obj 358 399 / 4;
#X obj 90 400 * \$1;
#X obj 250 399 * \$1;
#X obj 60 121 hsl 162 19 0 100 0 0 empty empty MAIN_DENSITY -2 -10 0 12 #00ff04 #000000 #000000 0 1;
#X obj 90 281 array get \$0-hat;
#X obj 250 280 array get \$0-hat;
#N canvas 144 0 1198 729 hat 0;
#X obj 25 232 soundfiler;
#N canvas 0 50 450 250 (subpatch) 0;
#X array h1 47964 float 2;
#X coords 0 1 47964 -1 1133 265 1 0 0;
#X restore 585 90 graph;
#X obj 128 260 bng 19 250 50 0 empty empty empty 0 -10 0 12 #fcfcfc #000000 #000000;
#X obj 25 184 loadbang;
#X obj 152 260 inlet;
#X obj 24 438 *~;
#X obj 45 402 hsl 162 19 0 1 0 0 empty empty empty -2 -10 0 12 #faff00 #000000 #000000 0 1;
#X obj 101 458 outlet~;
#X obj 42 339 loadbang;
#X msg 42 363 0.5;
#X obj 326 334 * 0.5;
#X obj 275 334 * 0.25;
#X obj 377 334 hsl 162 19 0 0.55 0 0 empty empty empty -2 -10 0 12 #fcfcfc #000000 #000000 0 1;
#X obj 374 381 -;
#X obj 374 405 * -1;
#X obj 374 357 1 \$1;
#X obj 326 381 -;
#X obj 326 405 * -1;
#X obj 326 357 1 \$1;
#X obj 275 380 -;
#X obj 275 404 * -1;
#X obj 275 356 1 \$1;
#X obj 302 303 sel 0 1 2;
#X floatatom 275 428 5 0 0 0 - - - 0;
#X floatatom 326 429 5 0 0 0 - - - 0;
#X floatatom 374 429 5 0 0 0 - - - 0;
#X obj 302 255 bng 19 250 50 0 empty empty empty 0 -10 0 12 #fcfcfc #000000 #000000;
#X obj 374 303 inlet;
#X obj 302 279 random 3;
#X obj 25 303 tabplay~ h1;
#X msg 25 207 read -resize Hihat.wav h1;
#X obj 152 294 s hatBng;
#X connect 2 0 29 0;
#X connect 3 0 30 0;
#X connect 4 0 28 0;
#X connect 4 0 29 0;
#X connect 4 0 31 0;
#X connect 5 0 7 0;
#X connect 6 0 5 1;
#X connect 8 0 9 0;
#X connect 9 0 6 0;
#X connect 10 0 18 0;
#X connect 11 0 21 0;
#X connect 12 0 15 0;
#X connect 12 0 10 0;
#X connect 12 0 11 0;
#X connect 13 0 14 0;
#X connect 14 0 25 0;
#X connect 15 0 13 0;
#X connect 16 0 17 0;
#X connect 17 0 24 0;
#X connect 18 0 16 0;
#X connect 19 0 20 0;
#X connect 20 0 23 0;
#X connect 21 0 19 0;
#X connect 22 0 23 0;
#X connect 22 1 24 0;
#X connect 22 2 25 0;
#X connect 23 0 6 0;
#X connect 24 0 6 0;
#X connect 25 0 6 0;
#X connect 26 0 28 0;
#X connect 27 0 12 0;
#X connect 28 0 22 0;
#X connect 29 0 5 0;
#X connect 30 0 0 0;
#X restore 273 471 pd hat;
#N canvas 468 0 1366 677 hato 0;
#X obj 25 232 soundfiler;
#N canvas 0 50 450 250 (subpatch) 0;
#X array h1o 47964 float 2;
#X coords 0 1 47964 -1 1133 265 1 0 0;
#X restore 585 90 graph;
#X obj 128 260 bng 19 250 50 0 empty empty empty 0 -10 0 12 #fcfcfc #000000 #000000;
#X obj 25 184 loadbang;
#X obj 152 260 inlet;
#X obj 24 438 *~;
#X obj 45 402 hsl 162 19 0 1 0 0 empty empty empty -2 -10 0 12 #faff00 #000000 #000000 0 1;
#X obj 101 458 outlet~;
#X obj 42 339 loadbang;
#X msg 42 363 0.5;
#X obj 326 334 * 0.5;
#X obj 275 334 * 0.25;
#X obj 377 334 hsl 162 19 0 0.55 0 0 empty empty empty -2 -10 0 12 #fcfcfc #000000 #000000 0 1;
#X obj 374 381 -;
#X obj 374 405 * -1;
#X obj 374 357 1 \$1;
#X obj 326 381 -;
#X obj 326 405 * -1;
#X obj 326 357 1 \$1;
#X obj 275 380 -;
#X obj 275 404 * -1;
#X obj 275 356 1 \$1;
#X obj 302 303 sel 0 1 2;
#X floatatom 275 428 5 0 0 0 - - - 0;
#X floatatom 326 429 5 0 0 0 - - - 0;
#X floatatom 374 429 5 0 0 0 - - - 0;
#X obj 302 255 bng 19 250 50 0 empty empty empty 0 -10 0 12 #fcfcfc #000000 #000000;
#X obj 374 303 inlet;
#X obj 302 279 random 3;
#X obj 25 303 tabplay~ h1o;
#X msg 25 207 read -resize Hihat.wav h1o;
#X obj 163 298 s hatBng;
#X connect 2 0 29 0;
#X connect 3 0 30 0;
#X connect 4 0 28 0;
#X connect 4 0 29 0;
#X connect 4 0 31 0;
#X connect 5 0 7 0;
#X connect 6 0 5 1;
#X connect 8 0 9 0;
#X connect 9 0 6 0;
#X connect 10 0 18 0;
#X connect 11 0 21 0;
#X connect 12 0 15 0;
#X connect 12 0 10 0;
#X connect 12 0 11 0;
#X connect 13 0 14 0;
#X connect 14 0 25 0;
#X connect 15 0 13 0;
#X connect 16 0 17 0;
#X connect 17 0 24 0;
#X connect 18 0 16 0;
#X connect 19 0 20 0;
#X connect 20 0 23 0;
#X connect 21 0 19 0;
#X connect 22 0 23 0;
#X connect 22 1 24 0;
#X connect 22 2 25 0;
#X connect 23 0 6 0;
#X connect 24 0 6 0;
#X connect 25 0 6 0;
#X connect 26 0 28 0;
#X connect 27 0 12 0;
#X connect 28 0 22 0;
#X connect 29 0 5 0;
#X connect 30 0 0 0;
#X restore 113 471 pd hato;
#X obj 333 423 * \$1;
#X obj 191 514 outlet~;
#X text 376 101 HAT;
#X obj 109 55 inlet;
#X obj 153 55 inlet;
#X obj 197 55 inlet;
#X obj 241 55 inlet;
#X obj 285 55 inlet;
#X obj 329 55 inlet;
#X obj 434 109 loadbang;
#X msg 434 133 1;
#X msg 434 157 0.125;
#X connect 0 0 41 0;
#X connect 1 0 0 1;
#X connect 2 0 3 0;
#X connect 3 0 4 0;
#X connect 4 0 5 0;
#X connect 5 0 33 0;
#X connect 6 1 39 0;
#X connect 7 0 36 1;
#X connect 8 0 9 0;
#X connect 9 0 10 0;
#X connect 10 0 11 0;
#X connect 11 0 34 0;
#X connect 12 1 14 0;
#X connect 13 0 37 1;
#X connect 14 0 38 0;
#X connect 16 0 36 0;
#X connect 17 0 37 0;
#X connect 18 0 38 1;
#X connect 18 0 39 1;
#X connect 19 0 32 0;
#X connect 20 0 40 0;
#X connect 21 0 24 1;
#X connect 22 0 31 0;
#X connect 23 0 24 0;
#X connect 23 0 29 0;
#X connect 24 0 25 0;
#X connect 25 0 34 1;
#X connect 26 0 27 0;
#X connect 27 0 22 0;
#X connect 28 0 29 1;
#X connect 29 0 30 0;
#X connect 30 0 33 1;
#X connect 31 0 23 0;
#X connect 32 0 40 1;
#X connect 33 0 6 0;
#X connect 34 0 12 0;
#X connect 35 0 28 0;
#X connect 35 0 21 0;
#X connect 36 0 2 0;
#X connect 37 0 8 0;
#X connect 38 0 0 0;
#X connect 39 0 0 0;
#X connect 40 0 14 1;
#X connect 40 0 15 0;
#X connect 43 0 35 0;
#X connect 44 0 21 0;
#X connect 45 0 28 0;
#X connect 46 0 20 0;
#X connect 47 0 1 0;
#X connect 48 0 18 0;
#X connect 49 0 50 0;
#X connect 49 0 51 0;
#X connect 50 0 1 0;
#X connect 51 0 18 0;
#X coords 0 -1 1 1 360 120 2 50 100;
#X restore 617 477 pd hat_controls;
#N canvas 42 65 1198 581 snare_controls 0;
#X obj 191 490 *~;
#X obj 237 159 hsl 162 19 0 1 0 0 empty empty VOL -2 -10 0 12 #faff00 #000000 #000000 0 1;
#X obj 90 424 sel 0 1;
#X msg 148 257 1;
#X floatatom 250 304 5 0 0 0 - - - 0;
#X obj 250 327 + 0.5;
#X obj 250 351 int;
#X floatatom 250 376 5 0 0 0 - - - 0;
#X obj 250 423 sel 0 1;
#X msg 308 256 1;
#X obj 273 447 delay 100;
#X floatatom 345 448 5 0 0 0 - - - 0;
#X obj 90 233 r stepODD;
#X obj 250 232 r stepEVEN;
#X obj 237 197 hsl 162 19 0 0.55 0 0 empty empty vol_range -2 -10 0 12 #ff0400 #000000 #000000 0 1;
#X obj 358 375 r tempo;
#X obj 237 121 hsl 162 19 0 1 0 0 empty empty SWING -2 -10 0 12 #00ff04 #000000 #000000 0 1;
#X obj 333 423 * \$1;
#X obj 60 159 hsl 162 19 0 100 0 0 empty empty EVEN_DENSITY -2 -10 0 12 #faff00 #000000 #000000 0 1;
#X obj 171 353 random 100;
#X floatatom 171 401 5 0 0 0 - - - 0;
#X obj 292 375 >;
#X floatatom 292 399 5 0 0 0 - - - 0;
#X obj 171 305 r val;
#X obj 171 329 bng 19 250 50 0 empty empty empty 0 -10 0 12 #fcfcfc #000000 #000000;
#X obj 60 197 hsl 162 19 0 100 0 0 empty empty ODD_DENSITY -2 -10 0 12 #ff0400 #000000 #000000 0 1;
#X obj 132 377 >;
#X floatatom 132 401 5 0 0 0 - - - 0;
#X obj 171 377 + 1;
#X obj 358 399 / 4;
#X obj 250 399 * \$1;
#X obj 60 121 hsl 162 19 0 100 0 0 empty empty MAIN_DENSITY -2 -10 0 12 #00ff04 #000000 #000000 0 1;
#X obj 90 281 array get \$0-snare;
#X obj 250 280 array get \$0-snare;
#N canvas 524 0 1366 677 snare 0;
#X obj 25 232 soundfiler;
#N canvas 0 50 450 250 (subpatch) 0;
#X array s1 47964 float 2;
#X coords 0 1 47964 -1 1133 265 1 0 0;
#X restore 585 90 graph;
#X obj 128 260 bng 19 250 50 0 empty empty empty 0 -10 0 12 #fcfcfc #000000 #000000;
#X obj 25 184 loadbang;
#X obj 152 260 inlet;
#X obj 24 438 *~;
#X obj 45 402 hsl 162 19 0 1 0 0 empty empty empty -2 -10 0 12 #faff00 #000000 #000000 0 1;
#X obj 101 458 outlet~;
#X obj 42 339 loadbang;
#X msg 42 363 0.5;
#X obj 326 334 * 0.5;
#X obj 275 334 * 0.25;
#X obj 377 334 hsl 162 19 0 0.55 0 0 empty empty empty -2 -10 0 12 #fcfcfc #000000 #000000 0 1;
#X obj 374 381 -;
#X obj 374 405 * -1;
#X obj 374 357 1 \$1;
#X obj 326 381 -;
#X obj 326 405 * -1;
#X obj 326 357 1 \$1;
#X obj 275 380 -;
#X obj 275 404 * -1;
#X obj 275 356 1 \$1;
#X obj 302 303 sel 0 1 2;
#X floatatom 275 428 5 0 0 0 - - - 0;
#X floatatom 326 429 5 0 0 0 - - - 0;
#X floatatom 374 429 5 0 0 0 - - - 0;
#X obj 302 255 bng 19 250 50 0 empty empty empty 0 -10 0 12 #fcfcfc #000000 #000000;
#X obj 374 303 inlet;
#X obj 302 279 random 3;
#X obj 25 303 tabplay~ s1;
#X msg 25 207 read -resize Snare.wav s1;
#X obj 152 284 s snareBng;
#X connect 2 0 29 0;
#X connect 3 0 30 0;
#X connect 4 0 28 0;
#X connect 4 0 29 0;
#X connect 4 0 31 0;
#X connect 5 0 7 0;
#X connect 6 0 5 1;
#X connect 8 0 9 0;
#X connect 9 0 6 0;
#X connect 10 0 18 0;
#X connect 11 0 21 0;
#X connect 12 0 15 0;
#X connect 12 0 10 0;
#X connect 12 0 11 0;
#X connect 13 0 14 0;
#X connect 14 0 25 0;
#X connect 15 0 13 0;
#X connect 16 0 17 0;
#X connect 17 0 24 0;
#X connect 18 0 16 0;
#X connect 19 0 20 0;
#X connect 20 0 23 0;
#X connect 21 0 19 0;
#X connect 22 0 23 0;
#X connect 22 1 24 0;
#X connect 22 2 25 0;
#X connect 23 0 6 0;
#X connect 24 0 6 0;
#X connect 25 0 6 0;
#X connect 26 0 28 0;
#X connect 27 0 12 0;
#X connect 28 0 22 0;
#X connect 29 0 5 0;
#X connect 30 0 0 0;
#X restore 273 471 pd snare;
#N canvas 276 0 1366 677 snareo 0;
#X obj 25 232 soundfiler;
#N canvas 0 50 450 250 (subpatch) 0;
#X array s1o 47964 float 2;
#X coords 0 1 47964 -1 1133 265 1 0 0;
#X restore 585 90 graph;
#X obj 128 260 bng 19 250 50 0 empty empty empty 0 -10 0 12 #fcfcfc #000000 #000000;
#X obj 25 184 loadbang;
#X obj 152 260 inlet;
#X obj 24 438 *~;
#X obj 45 402 hsl 162 19 0 1 0 0 empty empty empty -2 -10 0 12 #faff00 #000000 #000000 0 1;
#X obj 101 458 outlet~;
#X obj 42 339 loadbang;
#X msg 42 363 0.5;
#X obj 326 334 * 0.5;
#X obj 275 334 * 0.25;
#X obj 377 334 hsl 162 19 0 0.55 0 0 empty empty empty -2 -10 0 12 #fcfcfc #000000 #000000 0 1;
#X obj 374 381 -;
#X obj 374 405 * -1;
#X obj 374 357 1 \$1;
#X obj 326 381 -;
#X obj 326 405 * -1;
#X obj 326 357 1 \$1;
#X obj 275 380 -;
#X obj 275 404 * -1;
#X obj 275 356 1 \$1;
#X obj 302 303 sel 0 1 2;
#X floatatom 275 428 5 0 0 0 - - - 0;
#X floatatom 326 429 5 0 0 0 - - - 0;
#X floatatom 374 429 5 0 0 0 - - - 0;
#X obj 302 255 bng 19 250 50 0 empty empty empty 0 -10 0 12 #fcfcfc #000000 #000000;
#X obj 374 303 inlet;
#X obj 302 279 random 3;
#X obj 25 303 tabplay~ s1o;
#X msg 25 207 read -resize Snare.wav s1o;
#X obj 152 284 s snareBng;
#X connect 2 0 29 0;
#X connect 3 0 30 0;
#X connect 4 0 28 0;
#X connect 4 0 29 0;
#X connect 4 0 31 0;
#X connect 5 0 7 0;
#X connect 6 0 5 1;
#X connect 8 0 9 0;
#X connect 9 0 6 0;
#X connect 10 0 18 0;
#X connect 11 0 21 0;
#X connect 12 0 15 0;
#X connect 12 0 10 0;
#X connect 12 0 11 0;
#X connect 13 0 14 0;
#X connect 14 0 25 0;
#X connect 15 0 13 0;
#X connect 16 0 17 0;
#X connect 17 0 24 0;
#X connect 18 0 16 0;
#X connect 19 0 20 0;
#X connect 20 0 23 0;
#X connect 21 0 19 0;
#X connect 22 0 23 0;
#X connect 22 1 24 0;
#X connect 22 2 25 0;
#X connect 23 0 6 0;
#X connect 24 0 6 0;
#X connect 25 0 6 0;
#X connect 26 0 28 0;
#X connect 27 0 12 0;
#X connect 28 0 22 0;
#X connect 29 0 5 0;
#X connect 30 0 0 0;
#X restore 113 471 pd snareo;
#X floatatom 90 307 5 0 0 0 - - - 0;
#X obj 90 330 + 0.5;
#X obj 90 354 int;
#X floatatom 90 378 5 0 0 0 - - - 0;
#X obj 90 400 * \$1;
#X obj 191 514 outlet~;
#X text 362 101 SNARE;
#X obj 102 48 inlet;
#X obj 146 48 inlet;
#X obj 190 48 inlet;
#X obj 234 48 inlet;
#X obj 278 48 inlet;
#X obj 322 48 inlet;
#X obj 434 109 loadbang;
#X msg 434 133 1;
#X msg 434 155 0.125;
#X connect 0 0 41 0;
#X connect 1 0 0 1;
#X connect 2 1 35 0;
#X connect 3 0 32 1;
#X connect 4 0 5 0;
#X connect 5 0 6 0;
#X connect 6 0 7 0;
#X connect 7 0 30 0;
#X connect 8 1 10 0;
#X connect 9 0 33 1;
#X connect 10 0 34 0;
#X connect 12 0 32 0;
#X connect 13 0 33 0;
#X connect 14 0 34 1;
#X connect 14 0 35 1;
#X connect 15 0 29 0;
#X connect 16 0 17 0;
#X connect 17 0 10 1;
#X connect 17 0 11 0;
#X connect 18 0 21 1;
#X connect 19 0 28 0;
#X connect 20 0 21 0;
#X connect 20 0 26 0;
#X connect 21 0 22 0;
#X connect 22 0 30 1;
#X connect 23 0 24 0;
#X connect 24 0 19 0;
#X connect 25 0 26 1;
#X connect 26 0 27 0;
#X connect 27 0 40 1;
#X connect 28 0 20 0;
#X connect 29 0 17 1;
#X connect 30 0 8 0;
#X connect 31 0 25 0;
#X connect 31 0 18 0;
#X connect 32 0 36 0;
#X connect 33 0 4 0;
#X connect 34 0 0 0;
#X connect 35 0 0 0;
#X connect 36 0 37 0;
#X connect 37 0 38 0;
#X connect 38 0 39 0;
#X connect 39 0 40 0;
#X connect 40 0 2 0;
#X connect 43 0 31 0;
#X connect 44 0 18 0;
#X connect 45 0 25 0;
#X connect 46 0 16 0;
#X connect 47 0 1 0;
#X connect 48 0 14 0;
#X connect 49 0 50 0;
#X connect 49 0 51 0;
#X connect 50 0 1 0;
#X connect 51 0 14 0;
#X coords 0 -1 1 1 360 120 2 50 100;
#X restore 617 630 pd snare_controls;
#N canvas 39 95 1198 581 tom1_controls 0;
#X obj 191 490 *~;
#X obj 237 159 hsl 162 19 0 1 0 0 empty empty VOL -2 -10 0 12 #faff00 #000000 #000000 0 1;
#X obj 90 424 sel 0 1;
#X msg 148 257 1;
#X floatatom 250 304 5 0 0 0 - - - 0;
#X obj 250 327 + 0.5;
#X obj 250 351 int;
#X floatatom 250 376 5 0 0 0 - - - 0;
#X obj 250 423 sel 0 1;
#X msg 308 256 1;
#X obj 273 447 delay 100;
#X floatatom 345 448 5 0 0 0 - - - 0;
#X obj 90 233 r stepODD;
#X obj 250 232 r stepEVEN;
#X obj 237 197 hsl 162 19 0 0.55 0 0 empty empty vol_range -2 -10 0 12 #ff0400 #000000 #000000 0 1;
#X obj 358 375 r tempo;
#X obj 237 121 hsl 162 19 0 1 0 0 empty empty SWING -2 -10 0 12 #00ff04 #000000 #000000 0 1;
#X obj 333 423 * \$1;
#X obj 60 159 hsl 162 19 0 100 0 0 empty empty EVEN_DENSITY -2 -10 0 12 #faff00 #000000 #000000 0 1;
#X obj 171 353 random 100;
#X floatatom 171 401 5 0 0 0 - - - 0;
#X obj 292 375 >;
#X floatatom 292 399 5 0 0 0 - - - 0;
#X obj 171 305 r val;
#X obj 171 329 bng 19 250 50 0 empty empty empty 0 -10 0 12 #fcfcfc #000000 #000000;
#X obj 60 197 hsl 162 19 0 100 0 0 empty empty ODD_DENSITY -2 -10 0 12 #ff0400 #000000 #000000 0 1;
#X obj 132 377 >;
#X floatatom 132 401 5 0 0 0 - - - 0;
#X obj 171 377 + 1;
#X obj 358 399 / 4;
#X obj 250 399 * \$1;
#X obj 60 121 hsl 162 19 0 100 0 0 empty empty MAIN_DENSITY -2 -10 0 12 #00ff04 #000000 #000000 0 1;
#X obj 90 281 array get \$0-tom1;
#N canvas 0 0 1370 729 tom1 0;
#X obj 25 232 soundfiler;
#N canvas 0 50 450 250 (subpatch) 0;
#X array t11 47964 float 2;
#X coords 0 1 47964 -1 1133 265 1 0 0;
#X restore 585 90 graph;
#X obj 128 260 bng 19 250 50 0 empty empty empty 0 -10 0 12 #fcfcfc #000000 #000000;
#X obj 25 171 loadbang;
#X obj 152 260 inlet;
#X obj 24 438 *~;
#X obj 45 402 hsl 162 19 0 1 0 0 empty empty empty -2 -10 0 12 #faff00 #000000 #000000 0 1;
#X obj 101 458 outlet~;
#X obj 42 339 loadbang;
#X msg 42 363 0.5;
#X obj 326 334 * 0.5;
#X obj 275 334 * 0.25;
#X obj 377 334 hsl 162 19 0 0.55 0 0 empty empty empty -2 -10 0 12 #fcfcfc #000000 #000000 0 1;
#X obj 374 381 -;
#X obj 374 405 * -1;
#X obj 374 357 1 \$1;
#X obj 326 381 -;
#X obj 326 405 * -1;
#X obj 326 357 1 \$1;
#X obj 275 380 -;
#X obj 275 404 * -1;
#X obj 275 356 1 \$1;
#X obj 302 303 sel 0 1 2;
#X floatatom 275 428 5 0 0 0 - - - 0;
#X floatatom 326 429 5 0 0 0 - - - 0;
#X floatatom 374 429 5 0 0 0 - - - 0;
#X obj 302 255 bng 19 250 50 0 empty empty empty 0 -10 0 12 #fcfcfc #000000 #000000;
#X obj 374 303 inlet;
#X obj 302 279 random 3;
#X obj 25 303 tabplay~ t11;
#X msg 25 194 read -resize Crash.wav t11;
#X obj 152 284 s crashBng;
#X connect 2 0 29 0;
#X connect 3 0 30 0;
#X connect 4 0 28 0;
#X connect 4 0 29 0;
#X connect 4 0 31 0;
#X connect 5 0 7 0;
#X connect 6 0 5 1;
#X connect 8 0 9 0;
#X connect 9 0 6 0;
#X connect 10 0 18 0;
#X connect 11 0 21 0;
#X connect 12 0 15 0;
#X connect 12 0 10 0;
#X connect 12 0 11 0;
#X connect 13 0 14 0;
#X connect 14 0 25 0;
#X connect 15 0 13 0;
#X connect 16 0 17 0;
#X connect 17 0 24 0;
#X connect 18 0 16 0;
#X connect 19 0 20 0;
#X connect 20 0 23 0;
#X connect 21 0 19 0;
#X connect 22 0 23 0;
#X connect 22 1 24 0;
#X connect 22 2 25 0;
#X connect 23 0 6 0;
#X connect 24 0 6 0;
#X connect 25 0 6 0;
#X connect 26 0 28 0;
#X connect 27 0 12 0;
#X connect 28 0 22 0;
#X connect 29 0 5 0;
#X connect 30 0 0 0;
#X restore 273 471 pd tom1;
#X obj 250 280 array get \$0-tom1;
#N canvas 0 0 1370 729 tom1o 0;
#X obj 25 232 soundfiler;
#N canvas 0 50 450 250 (subpatch) 0;
#X array t11o 47964 float 2;
#X coords 0 1 47964 -1 1133 265 1 0 0;
#X restore 585 90 graph;
#X obj 128 260 bng 19 250 50 0 empty empty empty 0 -10 0 12 #fcfcfc #000000 #000000;
#X obj 25 171 loadbang;
#X obj 152 260 inlet;
#X obj 24 438 *~;
#X obj 45 402 hsl 162 19 0 1 0 0 empty empty empty -2 -10 0 12 #faff00 #000000 #000000 0 1;
#X obj 101 458 outlet~;
#X obj 42 339 loadbang;
#X msg 42 363 0.5;
#X obj 326 334 * 0.5;
#X obj 275 334 * 0.25;
#X obj 377 334 hsl 162 19 0 0.55 0 0 empty empty empty -2 -10 0 12 #fcfcfc #000000 #000000 0 1;
#X obj 374 381 -;
#X obj 374 405 * -1;
#X obj 374 357 1 \$1;
#X obj 326 381 -;
#X obj 326 405 * -1;
#X obj 326 357 1 \$1;
#X obj 275 380 -;
#X obj 275 404 * -1;
#X obj 275 356 1 \$1;
#X obj 302 303 sel 0 1 2;
#X floatatom 275 428 5 0 0 0 - - - 0;
#X floatatom 326 429 5 0 0 0 - - - 0;
#X floatatom 374 429 5 0 0 0 - - - 0;
#X obj 302 255 bng 19 250 50 0 empty empty empty 0 -10 0 12 #fcfcfc #000000 #000000;
#X obj 374 303 inlet;
#X obj 302 279 random 3;
#X obj 25 303 tabplay~ t11o;
#X msg 25 194 read -resize Crash.wav t11o;
#X obj 152 284 s crashBng;
#X connect 2 0 29 0;
#X connect 3 0 30 0;
#X connect 4 0 28 0;
#X connect 4 0 29 0;
#X connect 4 0 31 0;
#X connect 5 0 7 0;
#X connect 6 0 5 1;
#X connect 8 0 9 0;
#X connect 9 0 6 0;
#X connect 10 0 18 0;
#X connect 11 0 21 0;
#X connect 12 0 15 0;
#X connect 12 0 10 0;
#X connect 12 0 11 0;
#X connect 13 0 14 0;
#X connect 14 0 25 0;
#X connect 15 0 13 0;
#X connect 16 0 17 0;
#X connect 17 0 24 0;
#X connect 18 0 16 0;
#X connect 19 0 20 0;
#X connect 20 0 23 0;
#X connect 21 0 19 0;
#X connect 22 0 23 0;
#X connect 22 1 24 0;
#X connect 22 2 25 0;
#X connect 23 0 6 0;
#X connect 24 0 6 0;
#X connect 25 0 6 0;
#X connect 26 0 28 0;
#X connect 27 0 12 0;
#X connect 28 0 22 0;
#X connect 29 0 5 0;
#X connect 30 0 0 0;
#X restore 114 471 pd tom1o;
#X floatatom 90 307 5 0 0 0 - - - 0;
#X obj 90 330 + 0.5;
#X obj 90 354 int;
#X floatatom 90 378 5 0 0 0 - - - 0;
#X obj 90 400 * \$1;
#X obj 191 514 outlet~;
#X text 369 101 TOM1;
#X obj 102 48 inlet;
#X obj 146 48 inlet;
#X obj 190 48 inlet;
#X obj 234 48 inlet;
#X obj 278 48 inlet;
#X obj 322 48 inlet;
#X obj 434 109 loadbang;
#X msg 434 133 1;
#X msg 434 157 0.125;
#X connect 0 0 41 0;
#X connect 1 0 0 1;
#X connect 2 1 35 0;
#X connect 3 0 32 1;
#X connect 4 0 5 0;
#X connect 5 0 6 0;
#X connect 6 0 7 0;
#X connect 7 0 30 0;
#X connect 8 1 10 0;
#X connect 9 0 34 1;
#X connect 10 0 33 0;
#X connect 12 0 32 0;
#X connect 13 0 34 0;
#X connect 14 0 33 1;
#X connect 14 0 35 1;
#X connect 15 0 29 0;
#X connect 16 0 17 0;
#X connect 17 0 10 1;
#X connect 17 0 11 0;
#X connect 18 0 21 1;
#X connect 19 0 28 0;
#X connect 20 0 21 0;
#X connect 20 0 26 0;
#X connect 21 0 22 0;
#X connect 22 0 30 1;
#X connect 23 0 24 0;
#X connect 24 0 19 0;
#X connect 25 0 26 1;
#X connect 26 0 27 0;
#X connect 27 0 40 1;
#X connect 28 0 20 0;
#X connect 29 0 17 1;
#X connect 30 0 8 0;
#X connect 31 0 25 0;
#X connect 31 0 18 0;
#X connect 32 0 36 0;
#X connect 33 0 0 0;
#X connect 34 0 4 0;
#X connect 35 0 0 0;
#X connect 36 0 37 0;
#X connect 37 0 38 0;
#X connect 38 0 39 0;
#X connect 39 0 40 0;
#X connect 40 0 2 0;
#X connect 43 0 31 0;
#X connect 44 0 18 0;
#X connect 45 0 25 0;
#X connect 46 0 16 0;
#X connect 47 0 1 0;
#X connect 48 0 14 0;
#X connect 49 0 50 0;
#X connect 49 0 51 0;
#X connect 50 0 1 0;
#X connect 51 0 14 0;
#X coords 0 -1 1 1 360 120 2 50 100;
#X restore 1002 324 pd tom1_controls;
#N canvas 220 726 1366 677 tom2_controls 0;
#X obj 191 490 *~;
#X obj 237 159 hsl 162 19 0 1 0 0 empty empty VOL -2 -10 0 12 #faff00 #000000 #000000 0 1;
#X floatatom 90 307 5 0 0 0 - - - 0;
#X obj 90 330 + 0.5;
#X obj 90 354 int;
#X floatatom 90 378 5 0 0 0 - - - 0;
#X obj 90 424 sel 0 1;
#X msg 148 257 1;
#X floatatom 250 304 5 0 0 0 - - - 0;
#X obj 250 327 + 0.5;
#X obj 250 351 int;
#X floatatom 250 376 5 0 0 0 - - - 0;
#X obj 250 423 sel 0 1;
#X msg 308 256 1;
#X obj 273 447 delay 100;
#X floatatom 345 448 5 0 0 0 - - - 0;
#X obj 90 233 r stepODD;
#X obj 250 232 r stepEVEN;
#X obj 237 197 hsl 162 19 0 0.55 0 0 empty empty vol_range -2 -10 0 12 #ff0400 #000000 #000000 0 1;
#X obj 358 375 r tempo;
#X obj 237 121 hsl 162 19 0 1 0 0 empty empty SWING -2 -10 0 12 #00ff04 #000000 #000000 0 1;
#X obj 333 423 * \$1;
#X obj 60 159 hsl 162 19 0 100 0 0 empty empty EVEN_DENSITY -2 -10 0 12 #faff00 #000000 #000000 0 1;
#X obj 171 353 random 100;
#X floatatom 171 401 5 0 0 0 - - - 0;
#X obj 292 375 >;
#X floatatom 292 399 5 0 0 0 - - - 0;
#X obj 171 305 r val;
#X obj 171 329 bng 19 250 50 0 empty empty empty 0 -10 0 12 #fcfcfc #000000 #000000;
#X obj 60 197 hsl 162 19 0 100 0 0 empty empty ODD_DENSITY -2 -10 0 12 #ff0400 #000000 #000000 0 1;
#X obj 132 377 >;
#X floatatom 132 401 5 0 0 0 - - - 0;
#X obj 171 377 + 1;
#X obj 358 399 / 4;
#X obj 90 400 * \$1;
#X obj 250 399 * \$1;
#X obj 60 121 hsl 162 19 0 100 0 0 empty empty MAIN_DENSITY -2 -10 0 12 #00ff04 #000000 #000000 0 1;
#X obj 90 281 array get \$0-tom2;
#X obj 250 280 array get \$0-tom2;
#N canvas 0 0 1370 729 tom2 0;
#X obj 25 232 soundfiler;
#N canvas 0 50 450 250 (subpatch) 0;
#X array t21 47964 float 2;
#X coords 0 1 47964 -1 1133 265 1 0 0;
#X restore 585 90 graph;
#X obj 128 260 bng 19 250 50 0 empty empty empty 0 -10 0 12 #fcfcfc #000000 #000000;
#X obj 25 171 loadbang;
#X obj 152 260 inlet;
#X obj 24 438 *~;
#X obj 45 402 hsl 162 19 0 1 0 0 empty empty empty -2 -10 0 12 #faff00 #000000 #000000 0 1;
#X obj 101 458 outlet~;
#X obj 42 339 loadbang;
#X msg 42 363 0.5;
#X obj 326 334 * 0.5;
#X obj 275 334 * 0.25;
#X obj 377 334 hsl 162 19 0 0.55 0 0 empty empty empty -2 -10 0 12 #fcfcfc #000000 #000000 0 1;
#X obj 374 381 -;
#X obj 374 405 * -1;
#X obj 374 357 1 \$1;
#X obj 326 381 -;
#X obj 326 405 * -1;
#X obj 326 357 1 \$1;
#X obj 275 380 -;
#X obj 275 404 * -1;
#X obj 275 356 1 \$1;
#X obj 302 303 sel 0 1 2;
#X floatatom 275 428 5 0 0 0 - - - 0;
#X floatatom 326 429 5 0 0 0 - - - 0;
#X floatatom 374 429 5 0 0 0 - - - 0;
#X obj 302 255 bng 19 250 50 0 empty empty empty 0 -10 0 12 #fcfcfc #000000 #000000;
#X obj 374 303 inlet;
#X obj 302 279 random 3;
#X obj 25 303 tabplay~ t21;
#X msg 25 194 read -resize Brrr.wav t21;
#X obj 152 284 s brrrBng;
#X connect 2 0 29 0;
#X connect 3 0 30 0;
#X connect 4 0 28 0;
#X connect 4 0 29 0;
#X connect 4 0 31 0;
#X connect 5 0 7 0;
#X connect 6 0 5 1;
#X connect 8 0 9 0;
#X connect 9 0 6 0;
#X connect 10 0 18 0;
#X connect 11 0 21 0;
#X connect 12 0 15 0;
#X connect 12 0 10 0;
#X connect 12 0 11 0;
#X connect 13 0 14 0;
#X connect 14 0 25 0;
#X connect 15 0 13 0;
#X connect 16 0 17 0;
#X connect 17 0 24 0;
#X connect 18 0 16 0;
#X connect 19 0 20 0;
#X connect 20 0 23 0;
#X connect 21 0 19 0;
#X connect 22 0 23 0;
#X connect 22 1 24 0;
#X connect 22 2 25 0;
#X connect 23 0 6 0;
#X connect 24 0 6 0;
#X connect 25 0 6 0;
#X connect 26 0 28 0;
#X connect 27 0 12 0;
#X connect 28 0 22 0;
#X connect 29 0 5 0;
#X connect 30 0 0 0;
#X restore 273 471 pd tom2;
#N canvas 0 0 1370 729 tom2o 0;
#X obj 25 232 soundfiler;
#N canvas 0 50 450 250 (subpatch) 0;
#X array t21o 47964 float 2;
#X coords 0 1 47964 -1 1133 265 1 0 0;
#X restore 585 90 graph;
#X obj 128 260 bng 19 250 50 0 empty empty empty 0 -10 0 12 #fcfcfc #000000 #000000;
#X obj 25 171 loadbang;
#X obj 152 260 inlet;
#X obj 24 438 *~;
#X obj 45 402 hsl 162 19 0 1 0 0 empty empty empty -2 -10 0 12 #faff00 #000000 #000000 0 1;
#X obj 101 458 outlet~;
#X obj 42 339 loadbang;
#X msg 42 363 0.5;
#X obj 326 334 * 0.5;
#X obj 275 334 * 0.25;
#X obj 377 334 hsl 162 19 0 0.55 0 0 empty empty empty -2 -10 0 12 #fcfcfc #000000 #000000 0 1;
#X obj 374 381 -;
#X obj 374 405 * -1;
#X obj 374 357 1 \$1;
#X obj 326 381 -;
#X obj 326 405 * -1;
#X obj 326 357 1 \$1;
#X obj 275 380 -;
#X obj 275 404 * -1;
#X obj 275 356 1 \$1;
#X obj 302 303 sel 0 1 2;
#X floatatom 275 428 5 0 0 0 - - - 0;
#X floatatom 326 429 5 0 0 0 - - - 0;
#X floatatom 374 429 5 0 0 0 - - - 0;
#X obj 302 255 bng 19 250 50 0 empty empty empty 0 -10 0 12 #fcfcfc #000000 #000000;
#X obj 374 303 inlet;
#X obj 302 279 random 3;
#X obj 25 303 tabplay~ t21o;
#X msg 25 194 read -resize Brrr.wav t21o;
#X obj 152 284 s brrrBng;
#X connect 2 0 29 0;
#X connect 3 0 30 0;
#X connect 4 0 28 0;
#X connect 4 0 29 0;
#X connect 4 0 31 0;
#X connect 5 0 7 0;
#X connect 6 0 5 1;
#X connect 8 0 9 0;
#X connect 9 0 6 0;
#X connect 10 0 18 0;
#X connect 11 0 21 0;
#X connect 12 0 15 0;
#X connect 12 0 10 0;
#X connect 12 0 11 0;
#X connect 13 0 14 0;
#X connect 14 0 25 0;
#X connect 15 0 13 0;
#X connect 16 0 17 0;
#X connect 17 0 24 0;
#X connect 18 0 16 0;
#X connect 19 0 20 0;
#X connect 20 0 23 0;
#X connect 21 0 19 0;
#X connect 22 0 23 0;
#X connect 22 1 24 0;
#X connect 22 2 25 0;
#X connect 23 0 6 0;
#X connect 24 0 6 0;
#X connect 25 0 6 0;
#X connect 26 0 28 0;
#X connect 27 0 12 0;
#X connect 28 0 22 0;
#X connect 29 0 5 0;
#X connect 30 0 0 0;
#X restore 113 471 pd tom2o;
#X obj 191 514 outlet~;
#X text 369 101 TOM2;
#X obj 102 48 inlet;
#X obj 146 48 inlet;
#X obj 190 48 inlet;
#X obj 234 48 inlet;
#X obj 278 48 inlet;
#X obj 322 48 inlet;
#X obj 434 109 loadbang;
#X msg 434 133 1;
#X msg 434 157 0.125;
#X connect 0 0 41 0;
#X connect 1 0 0 1;
#X connect 2 0 3 0;
#X connect 3 0 4 0;
#X connect 4 0 5 0;
#X connect 5 0 34 0;
#X connect 6 1 40 0;
#X connect 7 0 37 1;
#X connect 8 0 9 0;
#X connect 9 0 10 0;
#X connect 10 0 11 0;
#X connect 11 0 35 0;
#X connect 12 1 14 0;
#X connect 13 0 38 1;
#X connect 14 0 39 0;
#X connect 16 0 37 0;
#X connect 17 0 38 0;
#X connect 18 0 39 1;
#X connect 18 0 40 1;
#X connect 19 0 33 0;
#X connect 20 0 21 0;
#X connect 21 0 14 1;
#X connect 21 0 15 0;
#X connect 22 0 25 1;
#X connect 23 0 32 0;
#X connect 24 0 25 0;
#X connect 24 0 30 0;
#X connect 25 0 26 0;
#X connect 26 0 35 1;
#X connect 27 0 28 0;
#X connect 28 0 23 0;
#X connect 29 0 30 1;
#X connect 30 0 31 0;
#X connect 31 0 34 1;
#X connect 32 0 24 0;
#X connect 33 0 21 1;
#X connect 34 0 6 0;
#X connect 35 0 12 0;
#X connect 36 0 29 0;
#X connect 36 0 22 0;
#X connect 37 0 2 0;
#X connect 38 0 8 0;
#X connect 39 0 0 0;
#X connect 40 0 0 0;
#X connect 43 0 36 0;
#X connect 44 0 22 0;
#X connect 45 0 29 0;
#X connect 46 0 20 0;
#X connect 47 0 1 0;
#X connect 48 0 18 0;
#X connect 49 0 50 0;
#X connect 49 0 51 0;
#X connect 50 0 1 0;
#X connect 51 0 18 0;
#X coords 0 -1 1 1 360 120 2 50 100;
#X restore 1002 477 pd tom2_controls;
#N canvas 83 23 1198 581 kick_controls 0;
#N canvas 0 0 1370 729 kick 0;
#X obj 25 232 soundfiler;
#N canvas 0 50 450 250 (subpatch) 0;
#X array k1 47964 float 2;
#X coords 0 1 47964 -1 1133 265 1 0 0;
#X restore 585 90 graph;
#X obj 128 260 bng 19 250 50 0 empty empty empty 0 -10 0 12 #fcfcfc #000000 #000000;
#X obj 25 184 loadbang;
#X obj 152 260 inlet;
#X obj 24 438 *~;
#X obj 45 402 hsl 162 19 0 1 0 0 empty empty empty -2 -10 0 12 #faff00 #000000 #000000 0 1;
#X obj 101 458 outlet~;
#X obj 42 339 loadbang;
#X msg 42 363 0.5;
#X obj 326 334 * 0.5;
#X obj 275 334 * 0.25;
#X obj 377 334 hsl 162 19 0 0.55 0 0 empty empty empty -2 -10 0 12 #fcfcfc #000000 #000000 0 1;
#X obj 374 381 -;
#X obj 374 405 * -1;
#X obj 374 357 1 \$1;
#X obj 326 381 -;
#X obj 326 405 * -1;
#X obj 326 357 1 \$1;
#X obj 275 380 -;
#X obj 275 404 * -1;
#X obj 275 356 1 \$1;
#X obj 302 303 sel 0 1 2;
#X floatatom 275 428 5 0 0 0 - - - 0;
#X floatatom 326 429 5 0 0 0 - - - 0;
#X floatatom 374 429 5 0 0 0 - - - 0;
#X obj 302 255 bng 19 250 50 0 empty empty empty 0 -10 0 12 #fcfcfc #000000 #000000;
#X obj 25 303 tabplay~ k1;
#X obj 374 303 inlet;
#X obj 302 279 random 3;
#X msg 25 207 read -resize Kick.wav k1;
#X obj 152 284 s kickBng;
#X connect 2 0 27 0;
#X connect 3 0 30 0;
#X connect 4 0 27 0;
#X connect 4 0 29 0;
#X connect 4 0 31 0;
#X connect 5 0 7 0;
#X connect 6 0 5 1;
#X connect 8 0 9 0;
#X connect 9 0 6 0;
#X connect 10 0 18 0;
#X connect 11 0 21 0;
#X connect 12 0 15 0;
#X connect 12 0 10 0;
#X connect 12 0 11 0;
#X connect 13 0 14 0;
#X connect 14 0 25 0;
#X connect 15 0 13 0;
#X connect 16 0 17 0;
#X connect 17 0 24 0;
#X connect 18 0 16 0;
#X connect 19 0 20 0;
#X connect 20 0 23 0;
#X connect 21 0 19 0;
#X connect 22 0 23 0;
#X connect 22 1 24 0;
#X connect 22 2 25 0;
#X connect 23 0 6 0;
#X connect 24 0 6 0;
#X connect 25 0 6 0;
#X connect 26 0 29 0;
#X connect 27 0 5 0;
#X connect 28 0 12 0;
#X connect 29 0 22 0;
#X connect 30 0 0 0;
#X restore 273 471 pd kick;
#X obj 191 490 *~;
#X obj 237 159 hsl 162 19 0 1 0 0 empty empty VOL -2 -10 0 12 #faff00 #000000 #000000 0 1;
#X obj 90 281 array get \$0-kick;
#X floatatom 90 307 5 0 0 0 - - - 0;
#X obj 90 330 + 0.5;
#X obj 90 354 int;
#X floatatom 90 378 5 0 0 0 - - - 0;
#X obj 90 424 sel 0 1;
#X msg 148 257 1;
#X floatatom 250 304 5 0 0 0 - - - 0;
#X obj 250 327 + 0.5;
#X obj 250 351 int;
#X floatatom 250 376 5 0 0 0 - - - 0;
#X obj 250 423 sel 0 1;
#X msg 308 256 1;
#X obj 273 447 delay 100;
#X floatatom 345 448 5 0 0 0 - - - 0;
#X obj 250 280 array get \$0-kick;
#X obj 90 233 r stepODD;
#X obj 250 232 r stepEVEN;
#X obj 239 197 hsl 162 19 0 0.55 0 0 empty empty vol_range -2 -10 0 12 #ff0400 #000000 #000000 0 1;
#X obj 358 375 r tempo;
#X obj 237 121 hsl 162 19 0 1 0 0 empty empty SWING -2 -10 0 12 #00ff04 #000000 #000000 0 1;
#X obj 333 423 * \$1;
#X obj 60 159 hsl 162 19 0 100 0 0 empty empty EVEN_DENSITY -2 -10 0 12 #faff00 #000000 #000000 0 1;
#X obj 171 353 random 100;
#X floatatom 171 401 5 0 0 0 - - - 0;
#X obj 292 375 >;
#X floatatom 292 399 5 0 0 0 - - - 0;
#X obj 171 305 r val;
#X obj 171 329 bng 19 250 50 0 empty empty empty 0 -10 0 12 #fcfcfc #000000 #000000;
#X obj 60 197 hsl 162 19 0 100 0 0 empty empty ODD_DENSITY -2 -10 0 12 #ff0400 #000000 #000000 0 1;
#X obj 132 377 >;
#X floatatom 132 401 5 0 0 0 - - - 0;
#X obj 171 377 + 1;
#X obj 358 399 / 4;
#X obj 90 400 * \$1;
#X obj 250 399 * \$1;
#X obj 60 122 hsl 162 19 0 100 0 0 empty empty MAIN_DENSITY -2 -10 0 12 #00ff04 #000000 #000000 0 1;
#N canvas 0 0 1370 729 kicko 0;
#X obj 25 -5 soundfiler;
#N canvas 0 50 450 250 (subpatch) 0;
#X array k1o 47964 float 2;
#X coords 0 1 47964 -1 1133 265 1 0 0;
#X restore 585 -147 graph;
#X obj 128 23 bng 19 250 50 0 empty empty empty 0 -10 0 12 #fcfcfc #000000 #000000;
#X obj 25 -53 loadbang;
#X obj 152 23 inlet;
#X obj 24 201 *~;
#X obj 45 165 hsl 162 19 0 1 0 0 empty empty empty -2 -10 0 12 #faff00 #000000 #000000 0 1;
#X obj 101 221 outlet~;
#X obj 42 102 loadbang;
#X msg 42 126 0.5;
#X obj 326 97 * 0.5;
#X obj 275 97 * 0.25;
#X obj 377 97 hsl 162 19 0 0.55 0 0 empty empty empty -2 -10 0 12 #fcfcfc #000000 #000000 0 1;
#X obj 374 144 -;
#X obj 374 168 * -1;
#X obj 374 120 1 \$1;
#X obj 326 144 -;
#X obj 326 168 * -1;
#X obj 326 120 1 \$1;
#X obj 275 143 -;
#X obj 275 167 * -1;
#X obj 275 119 1 \$1;
#X obj 302 66 sel 0 1 2;
#X floatatom 275 191 5 0 0 0 - - - 0;
#X floatatom 326 192 5 0 0 0 - - - 0;
#X floatatom 374 192 5 0 0 0 - - - 0;
#X obj 302 18 bng 19 250 50 0 empty empty empty 0 -10 0 12 #fcfcfc #000000 #000000;
#X obj 374 66 inlet;
#X obj 302 42 random 3;
#X obj 25 66 tabplay~ k1o;
#X msg 25 -30 read -resize Kick.wav k1o;
#X obj 152 47 s kickBng;
#X connect 2 0 29 0;
#X connect 3 0 30 0;
#X connect 4 0 28 0;
#X connect 4 0 29 0;
#X connect 4 0 31 0;
#X connect 5 0 7 0;
#X connect 6 0 5 1;
#X connect 8 0 9 0;
#X connect 9 0 6 0;
#X connect 10 0 18 0;
#X connect 11 0 21 0;
#X connect 12 0 15 0;
#X connect 12 0 10 0;
#X connect 12 0 11 0;
#X connect 13 0 14 0;
#X connect 14 0 25 0;
#X connect 15 0 13 0;
#X connect 16 0 17 0;
#X connect 17 0 24 0;
#X connect 18 0 16 0;
#X connect 19 0 20 0;
#X connect 20 0 23 0;
#X connect 21 0 19 0;
#X connect 22 0 23 0;
#X connect 22 1 24 0;
#X connect 22 2 25 0;
#X connect 23 0 6 0;
#X connect 24 0 6 0;
#X connect 25 0 6 0;
#X connect 26 0 28 0;
#X connect 27 0 12 0;
#X connect 28 0 22 0;
#X connect 29 0 5 0;
#X connect 30 0 0 0;
#X coords 0 729 1 728 200 30 0;
#X restore 113 471 pd kicko;
#X text 369 101 KICK;
#X obj 191 514 outlet~;
#X obj 102 48 inlet;
#X obj 146 48 inlet;
#X obj 190 48 inlet;
#X obj 234 48 inlet;
#X obj 278 48 inlet;
#X obj 322 48 inlet;
#X obj 434 109 loadbang;
#X msg 434 133 1;
#X msg 434 157 0.125;
#X msg 9 119 100;
#X obj 9 143 bondo;
#X obj 9 167 -;
#X obj 9 225 s kickDens;
#X floatatom 9 191 5 0 0 0 - - - 0;
#X connect 0 0 1 0;
#X connect 1 0 42 0;
#X connect 2 0 1 1;
#X connect 3 0 4 0;
#X connect 4 0 5 0;
#X connect 5 0 6 0;
#X connect 6 0 7 0;
#X connect 7 0 37 0;
#X connect 8 1 40 0;
#X connect 9 0 3 1;
#X connect 10 0 11 0;
#X connect 11 0 12 0;
#X connect 12 0 13 0;
#X connect 13 0 38 0;
#X connect 14 1 16 0;
#X connect 15 0 18 1;
#X connect 16 0 0 0;
#X connect 18 0 10 0;
#X connect 19 0 3 0;
#X connect 20 0 18 0;
#X connect 21 0 0 1;
#X connect 21 0 40 1;
#X connect 22 0 36 0;
#X connect 23 0 24 0;
#X connect 24 0 16 1;
#X connect 24 0 17 0;
#X connect 25 0 28 1;
#X connect 26 0 35 0;
#X connect 27 0 28 0;
#X connect 27 0 33 0;
#X connect 28 0 29 0;
#X connect 29 0 38 1;
#X connect 30 0 31 0;
#X connect 31 0 26 0;
#X connect 32 0 33 1;
#X connect 33 0 34 0;
#X connect 34 0 37 1;
#X connect 35 0 27 0;
#X connect 36 0 24 1;
#X connect 37 0 8 0;
#X connect 38 0 14 0;
#X connect 39 0 32 0;
#X connect 39 0 25 0;
#X connect 39 0 53 1;
#X connect 40 0 1 0;
#X connect 43 0 39 0;
#X connect 44 0 25 0;
#X connect 45 0 32 0;
#X connect 46 0 23 0;
#X connect 47 0 2 0;
#X connect 48 0 21 0;
#X connect 49 0 50 0;
#X connect 49 0 51 0;
#X connect 49 0 52 0;
#X connect 50 0 2 0;
#X connect 51 0 21 0;
#X connect 52 0 53 0;
#X connect 53 0 54 0;
#X connect 53 1 54 1;
#X connect 54 0 55 0;
#X connect 54 0 56 0;
#X coords 0 -1 1 1 360 120 2 50 100;
#X restore 617 324 pd kick_controls;
#X text 1208 9 MIDI STUFF;
#X obj 309 250 i;
#X obj 340 250 + 1;
#X floatatom 309 274 5 0 0 0 - - - 0;
#X obj 418 324 bng 49 250 50 0 empty empty RESET 8 27 0 12 #ffc7c6 #000000 #000000;
#X obj 1474 692 throw~ signal;
#N canvas 59 92 1198 581 tom3_controls 0;
#X obj 191 490 *~;
#X obj 237 159 hsl 162 19 0 1 0 0 empty empty VOL -2 -10 0 12 #faff00 #000000 #000000 0 1;
#X floatatom 90 307 5 0 0 0 - - - 0;
#X obj 90 330 + 0.5;
#X obj 90 354 int;
#X floatatom 90 378 5 0 0 0 - - - 0;
#X obj 90 424 sel 0 1;
#X msg 148 257 1;
#X floatatom 250 304 5 0 0 0 - - - 0;
#X obj 250 327 + 0.5;
#X obj 250 351 int;
#X floatatom 250 376 5 0 0 0 - - - 0;
#X obj 250 423 sel 0 1;
#X msg 308 256 1;
#X obj 273 447 delay 100;
#X floatatom 345 448 5 0 0 0 - - - 0;
#X obj 90 233 r stepODD;
#X obj 250 232 r stepEVEN;
#X obj 237 197 hsl 162 19 0 0.55 0 0 empty empty vol_range -2 -10 0 12 #ff0400 #000000 #000000 0 1;
#X obj 358 375 r tempo;
#X obj 237 121 hsl 162 19 0 1 0 0 empty empty SWING -2 -10 0 12 #00ff04 #000000 #000000 0 1;
#X obj 333 423 * \$1;
#X obj 60 159 hsl 162 19 0 100 0 0 empty empty EVEN_DENSITY -2 -10 0 12 #faff00 #000000 #000000 0 1;
#X obj 171 353 random 100;
#X floatatom 171 401 5 0 0 0 - - - 0;
#X obj 292 375 >;
#X floatatom 292 399 5 0 0 0 - - - 0;
#X obj 171 305 r val;
#X obj 171 329 bng 19 250 50 0 empty empty empty 0 -10 0 12 #fcfcfc #000000 #000000;
#X obj 60 197 hsl 162 19 0 100 0 0 empty empty ODD_DENSITY -2 -10 0 12 #ff0400 #000000 #000000 0 1;
#X obj 132 377 >;
#X floatatom 132 401 5 0 0 0 - - - 0;
#X obj 171 377 + 1;
#X obj 358 399 / 4;
#X obj 90 400 * \$1;
#X obj 250 399 * \$1;
#X obj 60 121 hsl 162 19 0 100 0 0 empty empty MAIN_DENSITY -2 -10 0 12 #00ff04 #000000 #000000 0 1;
#X obj 191 514 outlet~;
#X obj 102 48 inlet;
#X obj 146 48 inlet;
#X obj 190 48 inlet;
#X obj 234 48 inlet;
#X obj 278 48 inlet;
#X obj 322 48 inlet;
#X obj 434 109 loadbang;
#X msg 434 133 1;
#X text 369 101 TOM3;
#N canvas 423 68 1125 956 tom3o 0;
#X obj 25 232 soundfiler;
#N canvas 0 50 450 250 (subpatch) 0;
#X array t31o 47964 float 2;
#X coords 0 1 47964 -1 1133 265 1 0 0;
#X restore 585 90 graph;
#X obj 128 260 bng 19 250 50 0 empty empty empty 0 -10 0 12 #fcfcfc #000000 #000000;
#X obj 25 171 loadbang;
#X obj 152 260 inlet;
#X obj 24 438 *~;
#X obj 45 402 hsl 162 19 0 1 0 0 empty empty empty -2 -10 0 12 #faff00 #000000 #000000 0 1;
#X obj 101 458 outlet~;
#X obj 42 339 loadbang;
#X msg 42 363 0.5;
#X obj 326 334 * 0.5;
#X obj 275 334 * 0.25;
#X obj 377 334 hsl 162 19 0 0.55 0 0 empty empty empty -2 -10 0 12 #fcfcfc #000000 #000000 0 1;
#X obj 374 381 -;
#X obj 374 405 * -1;
#X obj 374 357 1 \$1;
#X obj 326 381 -;
#X obj 326 405 * -1;
#X obj 326 357 1 \$1;
#X obj 275 380 -;
#X obj 275 404 * -1;
#X obj 275 356 1 \$1;
#X obj 302 303 sel 0 1 2;
#X floatatom 275 428 5 0 0 0 - - - 0;
#X floatatom 326 429 5 0 0 0 - - - 0;
#X floatatom 374 429 5 0 0 0 - - - 0;
#X obj 302 255 bng 19 250 50 0 empty empty empty 0 -10 0 12 #fcfcfc #000000 #000000;
#X obj 374 303 inlet;
#X obj 302 279 random 3;
#X obj 25 303 tabplay~ t31o;
#X msg 25 194 read -resize Oneshot.wav t31o;
#X connect 2 0 29 0;
#X connect 3 0 30 0;
#X connect 4 0 28 0;
#X connect 4 0 29 0;
#X connect 5 0 7 0;
#X connect 6 0 5 1;
#X connect 8 0 9 0;
#X connect 9 0 6 0;
#X connect 10 0 18 0;
#X connect 11 0 21 0;
#X connect 12 0 15 0;
#X connect 12 0 10 0;
#X connect 12 0 11 0;
#X connect 13 0 14 0;
#X connect 14 0 25 0;
#X connect 15 0 13 0;
#X connect 16 0 17 0;
#X connect 17 0 24 0;
#X connect 18 0 16 0;
#X connect 19 0 20 0;
#X connect 20 0 23 0;
#X connect 21 0 19 0;
#X connect 22 0 23 0;
#X connect 22 1 24 0;
#X connect 22 2 25 0;
#X connect 23 0 6 0;
#X connect 24 0 6 0;
#X connect 25 0 6 0;
#X connect 26 0 28 0;
#X connect 27 0 12 0;
#X connect 28 0 22 0;
#X connect 29 0 5 0;
#X connect 30 0 0 0;
#X restore 113 471 pd tom3o;
#N canvas 551 0 1366 677 tom3 0;
#X obj 25 232 soundfiler;
#N canvas 0 50 450 250 (subpatch) 0;
#X array t31 47964 float 2;
#X coords 0 1 47964 -1 1133 265 1 0 0;
#X restore 585 90 graph;
#X obj 128 260 bng 19 250 50 0 empty empty empty 0 -10 0 12 #fcfcfc #000000 #000000;
#X obj 25 171 loadbang;
#X obj 152 260 inlet;
#X obj 24 438 *~;
#X obj 45 402 hsl 162 19 0 1 0 0 empty empty empty -2 -10 0 12 #faff00 #000000 #000000 0 1;
#X obj 101 458 outlet~;
#X obj 42 339 loadbang;
#X msg 42 363 0.5;
#X obj 326 334 * 0.5;
#X obj 275 334 * 0.25;
#X obj 377 334 hsl 162 19 0 0.55 0 0 empty empty empty -2 -10 0 12 #fcfcfc #000000 #000000 0 1;
#X obj 374 381 -;
#X obj 374 405 * -1;
#X obj 374 357 1 \$1;
#X obj 326 381 -;
#X obj 326 405 * -1;
#X obj 326 357 1 \$1;
#X obj 275 380 -;
#X obj 275 404 * -1;
#X obj 275 356 1 \$1;
#X obj 302 303 sel 0 1 2;
#X floatatom 275 428 5 0 0 0 - - - 0;
#X floatatom 326 429 5 0 0 0 - - - 0;
#X floatatom 374 429 5 0 0 0 - - - 0;
#X obj 302 255 bng 19 250 50 0 empty empty empty 0 -10 0 12 #fcfcfc #000000 #000000;
#X obj 374 303 inlet;
#X obj 302 279 random 3;
#X obj 25 303 tabplay~ t31;
#X msg 25 194 read -resize Oneshot.wav t31;
#X connect 2 0 29 0;
#X connect 3 0 30 0;
#X connect 4 0 28 0;
#X connect 4 0 29 0;
#X connect 5 0 7 0;
#X connect 6 0 5 1;
#X connect 8 0 9 0;
#X connect 9 0 6 0;
#X connect 10 0 18 0;
#X connect 11 0 21 0;
#X connect 12 0 15 0;
#X connect 12 0 10 0;
#X connect 12 0 11 0;
#X connect 13 0 14 0;
#X connect 14 0 25 0;
#X connect 15 0 13 0;
#X connect 16 0 17 0;
#X connect 17 0 24 0;
#X connect 18 0 16 0;
#X connect 19 0 20 0;
#X connect 20 0 23 0;
#X connect 21 0 19 0;
#X connect 22 0 23 0;
#X connect 22 1 24 0;
#X connect 22 2 25 0;
#X connect 23 0 6 0;
#X connect 24 0 6 0;
#X connect 25 0 6 0;
#X connect 26 0 28 0;
#X connect 27 0 12 0;
#X connect 28 0 22 0;
#X connect 29 0 5 0;
#X connect 30 0 0 0;
#X restore 273 471 pd tom3;
#X obj 250 280 array get \$0-tom3;
#X obj 90 281 array get \$0-tom3;
#X msg 434 157 0.125;
#X msg 437 194 90;
#X connect 0 0 37 0;
#X connect 1 0 0 1;
#X connect 2 0 3 0;
#X connect 3 0 4 0;
#X connect 4 0 5 0;
#X connect 5 0 34 0;
#X connect 6 1 47 0;
#X connect 7 0 50 1;
#X connect 8 0 9 0;
#X connect 9 0 10 0;
#X connect 10 0 11 0;
#X connect 11 0 35 0;
#X connect 12 1 14 0;
#X connect 13 0 49 1;
#X connect 14 0 48 0;
#X connect 16 0 50 0;
#X connect 17 0 49 0;
#X connect 18 0 48 1;
#X connect 18 0 47 1;
#X connect 19 0 33 0;
#X connect 20 0 21 0;
#X connect 21 0 14 1;
#X connect 21 0 15 0;
#X connect 22 0 25 1;
#X connect 23 0 32 0;
#X connect 24 0 25 0;
#X connect 24 0 30 0;
#X connect 25 0 26 0;
#X connect 26 0 35 1;
#X connect 27 0 28 0;
#X connect 28 0 23 0;
#X connect 29 0 30 1;
#X connect 30 0 31 0;
#X connect 31 0 34 1;
#X connect 32 0 24 0;
#X connect 33 0 21 1;
#X connect 34 0 6 0;
#X connect 35 0 12 0;
#X connect 36 0 29 0;
#X connect 36 0 22 0;
#X connect 38 0 36 0;
#X connect 39 0 22 0;
#X connect 40 0 29 0;
#X connect 41 0 20 0;
#X connect 42 0 1 0;
#X connect 43 0 18 0;
#X connect 44 0 45 0;
#X connect 44 0 51 0;
#X connect 44 0 52 0;
#X connect 45 0 1 0;
#X connect 47 0 0 0;
#X connect 48 0 0 0;
#X connect 49 0 8 0;
#X connect 50 0 2 0;
#X connect 51 0 18 0;
#X connect 52 0 36 0;
#X coords 0 -1 1 1 360 120 2 50 100;
#X restore 1002 630 pd tom3_controls;
#N canvas 471 288 1198 581 tom3_steps 0;
#N canvas 0 50 450 250 (subpatch) 0;
#X array \$0-tom3 16 float 3;
#A 0 0 0 0 0 0 0 0 0 0 0 0 0 0 1 0 0;
#X coords 0 250 1 249 200 10 0;
#X restore 695 122 graph;
#X obj 500 160 pack f f f f f f f f f f f f f f f f;
#X obj 55 141 tgl 19 0 empty empty empty 0 -10 0 12 #fcfcfc #000000 #000000 0 1;
#X obj 77 141 tgl 19 0 empty empty empty 0 -10 0 12 #ffc7c6 #000000 #000000 0 1;
#X obj 99 141 tgl 19 0 empty empty empty 0 -10 0 12 #ffe3c6 #000000 #000000 0 1;
#X obj 121 141 tgl 19 0 empty empty empty 0 -10 0 12 #feffc6 #000000 #000000 0 1;
#X obj 143 141 tgl 19 0 empty empty empty 0 -10 0 12 #c6ffc7 #000000 #000000 0 1;
#X obj 165 141 tgl 19 0 empty empty empty 0 -10 0 12 #c6feff #000000 #000000 0 1;
#X obj 187 141 tgl 19 0 empty empty empty 0 -10 0 12 #c7c6ff #000000 #000000 0 1;
#X obj 209 141 tgl 19 0 empty empty empty 0 -10 0 12 #e3c6ff #000000 #000000 0 1;
#X obj 231 141 tgl 19 0 empty empty empty 0 -10 0 12 #fcfcfc #000000 #000000 0 1;
#X obj 253 141 tgl 19 0 empty empty empty 0 -10 0 12 #ffc7c6 #000000 #000000 0 1;
#X obj 275 141 tgl 19 0 empty empty empty 0 -10 0 12 #ffe3c6 #000000 #000000 0 1;
#X obj 297 141 tgl 19 0 empty empty empty 0 -10 0 12 #feffc6 #000000 #000000 0 1;
#X obj 319 141 tgl 19 0 empty empty empty 0 -10 0 12 #c6ffc7 #000000 #000000 0 1;
#X obj 341 141 tgl 19 0 empty empty empty 0 -10 0 12 #c6feff #000000 #000000 0 1;
#X obj 363 141 tgl 19 0 empty empty empty 0 -10 0 12 #c7c6ff #000000 #000000 0 1;
#X obj 385 141 tgl 19 0 empty empty empty 0 -10 0 12 #e3c6ff #000000 #000000 0 1;
#X obj 480 160 bng 19 250 50 0 empty empty empty 0 -10 0 12 #fcfcfc #000000 #000000;
#X obj 420 160 loadbang;
#X obj 420 122 unpack f f f f f f f f f f f f f f f f;
#X obj 420 98 inlet;
#X text 23 142 TOM3;
#X obj 761 160 array set \$0-tom3;
#X connect 1 0 23 0;
#X connect 2 0 1 0;
#X connect 2 0 18 0;
#X connect 3 0 1 1;
#X connect 3 0 18 0;
#X connect 4 0 1 2;
#X connect 4 0 18 0;
#X connect 5 0 1 3;
#X connect 5 0 18 0;
#X connect 6 0 1 4;
#X connect 6 0 18 0;
#X connect 7 0 1 5;
#X connect 7 0 18 0;
#X connect 8 0 1 6;
#X connect 8 0 18 0;
#X connect 9 0 1 7;
#X connect 9 0 18 0;
#X connect 10 0 1 8;
#X connect 10 0 18 0;
#X connect 11 0 1 9;
#X connect 11 0 18 0;
#X connect 12 0 1 10;
#X connect 12 0 18 0;
#X connect 13 0 1 11;
#X connect 13 0 18 0;
#X connect 14 0 1 12;
#X connect 14 0 18 0;
#X connect 15 0 1 13;
#X connect 15 0 18 0;
#X connect 16 0 1 14;
#X connect 16 0 18 0;
#X connect 17 0 1 15;
#X connect 17 0 18 0;
#X connect 18 0 1 0;
#X connect 19 0 1 0;
#X connect 20 0 2 0;
#X connect 20 1 3 0;
#X connect 20 2 4 0;
#X connect 20 3 5 0;
#X connect 20 4 6 0;
#X connect 20 5 7 0;
#X connect 20 6 8 0;
#X connect 20 7 9 0;
#X connect 20 8 10 0;
#X connect 20 9 11 0;
#X connect 20 10 12 0;
#X connect 20 11 13 0;
#X connect 20 12 14 0;
#X connect 20 13 15 0;
#X connect 20 14 16 0;
#X connect 20 15 17 0;
#X connect 21 0 20 0;
#X coords 0 -1 1 1 400 30 2 15 135;
#X restore 184 633 pd tom3_steps;
#N canvas 739 237 1198 581 tom2_steps 0;
#N canvas 0 50 450 250 (subpatch) 0;
#X array \$0-tom2 16 float 3;
#A 0 0 0 0 0 0 0 0 0 0 0 0 0 0 0 1 0;
#X coords 0 250 1 249 200 10 0;
#X restore 695 122 graph;
#X obj 500 160 pack f f f f f f f f f f f f f f f f;
#X obj 55 141 tgl 19 0 empty empty empty 0 -10 0 12 #fcfcfc #000000 #000000 0 1;
#X obj 77 141 tgl 19 0 empty empty empty 0 -10 0 12 #ffc7c6 #000000 #000000 0 1;
#X obj 99 141 tgl 19 0 empty empty empty 0 -10 0 12 #ffe3c6 #000000 #000000 0 1;
#X obj 121 141 tgl 19 0 empty empty empty 0 -10 0 12 #feffc6 #000000 #000000 0 1;
#X obj 143 141 tgl 19 0 empty empty empty 0 -10 0 12 #c6ffc7 #000000 #000000 0 1;
#X obj 165 141 tgl 19 0 empty empty empty 0 -10 0 12 #c6feff #000000 #000000 0 1;
#X obj 187 141 tgl 19 0 empty empty empty 0 -10 0 12 #c7c6ff #000000 #000000 0 1;
#X obj 209 141 tgl 19 0 empty empty empty 0 -10 0 12 #e3c6ff #000000 #000000 0 1;
#X obj 231 141 tgl 19 0 empty empty empty 0 -10 0 12 #fcfcfc #000000 #000000 0 1;
#X obj 253 141 tgl 19 0 empty empty empty 0 -10 0 12 #ffc7c6 #000000 #000000 0 1;
#X obj 275 141 tgl 19 0 empty empty empty 0 -10 0 12 #ffe3c6 #000000 #000000 0 1;
#X obj 297 141 tgl 19 0 empty empty empty 0 -10 0 12 #feffc6 #000000 #000000 0 1;
#X obj 319 141 tgl 19 0 empty empty empty 0 -10 0 12 #c6ffc7 #000000 #000000 0 1;
#X obj 341 141 tgl 19 0 empty empty empty 0 -10 0 12 #c6feff #000000 #000000 0 1;
#X obj 363 141 tgl 19 0 empty empty empty 0 -10 0 12 #c7c6ff #000000 #000000 0 1;
#X obj 385 141 tgl 19 0 empty empty empty 0 -10 0 12 #e3c6ff #000000 #000000 0 1;
#X obj 480 160 bng 19 250 50 0 empty empty empty 0 -10 0 12 #fcfcfc #000000 #000000;
#X obj 420 160 loadbang;
#X obj 420 122 unpack f f f f f f f f f f f f f f f f;
#X obj 420 98 inlet;
#X text 23 142 TOM2;
#X obj 761 160 array set \$0-tom2;
#X connect 1 0 23 0;
#X connect 2 0 1 0;
#X connect 2 0 18 0;
#X connect 3 0 1 1;
#X connect 3 0 18 0;
#X connect 4 0 1 2;
#X connect 4 0 18 0;
#X connect 5 0 1 3;
#X connect 5 0 18 0;
#X connect 6 0 1 4;
#X connect 6 0 18 0;
#X connect 7 0 1 5;
#X connect 7 0 18 0;
#X connect 8 0 1 6;
#X connect 8 0 18 0;
#X connect 9 0 1 7;
#X connect 9 0 18 0;
#X connect 10 0 1 8;
#X connect 10 0 18 0;
#X connect 11 0 1 9;
#X connect 11 0 18 0;
#X connect 12 0 1 10;
#X connect 12 0 18 0;
#X connect 13 0 1 11;
#X connect 13 0 18 0;
#X connect 14 0 1 12;
#X connect 14 0 18 0;
#X connect 15 0 1 13;
#X connect 15 0 18 0;
#X connect 16 0 1 14;
#X connect 16 0 18 0;
#X connect 17 0 1 15;
#X connect 17 0 18 0;
#X connect 18 0 1 0;
#X connect 19 0 1 0;
#X connect 20 0 2 0;
#X connect 20 1 3 0;
#X connect 20 2 4 0;
#X connect 20 3 5 0;
#X connect 20 4 6 0;
#X connect 20 5 7 0;
#X connect 20 6 8 0;
#X connect 20 7 9 0;
#X connect 20 8 10 0;
#X connect 20 9 11 0;
#X connect 20 10 12 0;
#X connect 20 11 13 0;
#X connect 20 12 14 0;
#X connect 20 13 15 0;
#X connect 20 14 16 0;
#X connect 20 15 17 0;
#X connect 21 0 20 0;
#X coords 0 -1 1 1 400 30 2 15 135;
#X restore 184 586 pd tom2_steps;
#X floatatom 1501 154 5 0 0 0 - - - 0;
#X floatatom 1569 154 5 0 0 0 - - - 0;
#X floatatom 1637 154 5 0 0 0 - - - 0;
#X obj 1501 177 / 127;
#X obj 1568 249 / 127;
#X obj 1568 273 * 100;
#X obj 1637 249 / 127;
#X obj 1705 273 * 100;
#X obj 1637 274 * 100;
#X obj 1705 201 -;
#X obj 1705 177 127 \$1;
#X obj 1705 225 * -1;
#X obj 1637 201 -;
#X obj 1637 177 127 \$1;
#X obj 1637 225 * -1;
#X obj 1568 201 -;
#X obj 1568 177 127 \$1;
#X obj 1568 225 * -1;
#X obj 9 406 outlet~;
#X obj 441 268 outlet;
#N canvas 1202 119 1366 677 patterns 0;
#X msg 264 136 1 0 1 0 1 0 1 0 1 0 1 0 1 0 1 0;
#X msg 264 162 0 0 0 0 1 0 0 0 0 0 0 0 1 0 0 0;
#X msg 264 110 1 0 0 1 1 0 0 0 1 0 0 1 1 0 0 0;
#X msg 264 188 0 0 0 0 0 0 0 0 0 0 0 0 0 0 0 1;
#X msg 264 214 0 0 0 0 0 0 0 0 0 0 0 0 0 0 1 0;
#X msg 264 240 0 0 0 0 0 0 0 0 0 0 0 0 0 1 0 0;
#X obj 271 405 outlet;
#X obj 322 405 outlet;
#X obj 374 405 outlet;
#X obj 425 405 outlet;
#X obj 476 405 outlet;
#X obj 527 405 outlet;
#X msg 1070 104 0 0 0 0 0 0 0 0 0 0 0 0 0 0 0 0;
#X msg 1089 282 1 1 1 1 1 1 1 1 1 1 1 1 1 1 1 1;
#X msg 1088 354 1 0 0 0 1 0 0 0 1 0 0 0 1 0 1 0;
#X msg 1088 378 1 0 0 0 1 0 0 0 1 0 0 0 1 0 0 0;
#X msg 1088 330 1 0 1 0 1 0 1 0 1 0 1 0 1 0 1 0;
#X msg 1089 306 1 0 0 0 1 0 0 0 1 0 1 0 1 1 1 1;
#X msg 507 109 1 0 0 0 1 0 0 1 0 0 0 0 1 0 1 0;
#X msg 507 133 0 1 0 1 0 1 0 1 0 0 0 0 0 0 0 0;
#X msg 507 157 0 0 0 1 0 0 0 0 0 0 0 1 0 0 0 0;
#X msg 507 181 0 0 0 0 0 0 0 0 0 0 0 0 0 1 0 0;
#X msg 507 205 0 0 0 0 0 1 0 0 0 0 1 1 0 0 1 0;
#X msg 507 229 0 0 0 0 0 0 0 0 0 0 0 0 0 0 0 1;
#X text 576 87 Pattern 1;
#X obj 507 85 bng 19 250 50 0 empty empty empty 0 -10 0 12 #fcfcfc #000000 #000000;
#X msg 783 133 1 0 0 0 1 0 0 0 1 0 0 0 1 0 0 0;
#X msg 783 205 1 0 0 0 1 0 0 0 1 0 0 0 1 0 0 0;
#X msg 783 157 0 0 0 0 0 0 0 0 0 0 1 0 1 0 1 0;
#X msg 783 108 1 0 1 0 1 0 1 0 1 0 1 0 1 0 1 0;
#X msg 783 181 0 0 0 0 0 0 1 0 0 0 0 0 0 0 1 0;
#X msg 783 228 0 0 0 0 0 0 0 0 0 0 0 0 0 0 0 0;
#X obj 264 83 bng 19 250 50 0 empty empty empty 0 -10 0 12 #fcfcfc #000000 #000000;
#X obj 783 82 bng 19 250 50 0 empty empty empty 0 -10 0 12 #fcfcfc #000000 #000000;
#X obj 1070 76 bng 19 250 50 0 empty empty empty 0 -10 0 12 #fcfcfc #000000 #000000;
#X obj 510 51 sel 40 41 42 43;
#X text 1142 85 Mute;
#X obj 573 2 inlet;
#X obj 668 4 inlet;
#X msg 512 5 0;
#X obj 514 29 +;
#X connect 0 0 7 0;
#X connect 1 0 8 0;
#X connect 2 0 6 0;
#X connect 3 0 9 0;
#X connect 4 0 10 0;
#X connect 5 0 11 0;
#X connect 12 0 11 0;
#X connect 12 0 10 0;
#X connect 12 0 9 0;
#X connect 12 0 8 0;
#X connect 12 0 7 0;
#X connect 12 0 6 0;
#X connect 18 0 6 0;
#X connect 19 0 7 0;
#X connect 20 0 8 0;
#X connect 21 0 9 0;
#X connect 22 0 10 0;
#X connect 23 0 11 0;
#X connect 25 0 18 0;
#X connect 25 0 19 0;
#X connect 25 0 20 0;
#X connect 25 0 21 0;
#X connect 25 0 22 0;
#X connect 25 0 23 0;
#X connect 26 0 7 0;
#X connect 27 0 10 0;
#X connect 28 0 8 0;
#X connect 29 0 6 0;
#X connect 30 0 9 0;
#X connect 31 0 11 0;
#X connect 32 0 2 0;
#X connect 32 0 0 0;
#X connect 32 0 1 0;
#X connect 32 0 3 0;
#X connect 32 0 4 0;
#X connect 32 0 5 0;
#X connect 33 0 28 0;
#X connect 33 0 30 0;
#X connect 33 0 27 0;
#X connect 33 0 31 0;
#X connect 33 0 29 0;
#X connect 33 0 26 0;
#X connect 34 0 12 0;
#X connect 35 0 32 0;
#X connect 35 1 25 0;
#X connect 35 2 33 0;
#X connect 35 3 34 0;
#X connect 37 0 40 1;
#X connect 38 0 39 0;
#X connect 39 0 40 0;
#X connect 40 0 35 0;
#X restore 39 597 pd patterns;
#X obj 39 567 notein;
#X obj 1501 130 ctlin 1;
#X obj 181 272 loadbang;
#X msg 734 241 0;
#X obj 73 418 s drumsVol;
#X msg 744 192 0.5;
#X connect 0 0 5 0;
#X connect 0 0 6 0;
#X connect 1 0 4 0;
#X connect 2 0 7 0;
#X connect 3 0 0 1;
#X connect 3 0 62 1;
#X connect 4 0 0 0;
#X connect 5 0 8 0;
#X connect 6 0 0 1;
#X connect 7 0 4 1;
#X connect 8 0 9 0;
#X connect 8 0 10 0;
#X connect 8 0 29 0;
#X connect 9 8 11 0;
#X connect 10 7 62 0;
#X connect 10 7 89 0;
#X connect 10 7 90 1;
#X connect 10 8 12 0;
#X connect 13 0 15 0;
#X connect 13 0 18 0;
#X connect 16 0 19 0;
#X connect 21 0 20 0;
#X connect 22 0 26 0;
#X connect 23 0 22 1;
#X connect 23 0 95 0;
#X connect 24 0 23 0;
#X connect 25 0 24 0;
#X connect 26 0 88 0;
#X connect 27 0 22 0;
#X connect 28 0 30 0;
#X connect 28 0 94 0;
#X connect 28 0 96 0;
#X connect 30 0 21 0;
#X connect 31 0 32 0;
#X connect 31 1 33 0;
#X connect 31 2 34 0;
#X connect 32 0 38 0;
#X connect 39 0 80 0;
#X connect 40 0 77 0;
#X connect 41 0 39 0;
#X connect 42 0 72 0;
#X connect 43 0 71 0;
#X connect 56 0 66 0;
#X connect 57 0 66 0;
#X connect 58 0 66 0;
#X connect 59 0 66 0;
#X connect 60 0 66 0;
#X connect 62 0 63 0;
#X connect 62 0 64 0;
#X connect 63 0 62 1;
#X connect 65 0 16 0;
#X connect 67 0 66 0;
#X connect 70 0 73 0;
#X connect 71 0 86 0;
#X connect 72 0 83 0;
#X connect 73 0 23 0;
#X connect 74 0 75 0;
#X connect 75 0 60 0;
#X connect 76 0 78 0;
#X connect 77 0 58 0;
#X connect 77 0 59 0;
#X connect 78 0 57 0;
#X connect 78 0 56 0;
#X connect 79 0 81 0;
#X connect 80 0 79 0;
#X connect 81 0 40 0;
#X connect 82 0 84 0;
#X connect 83 0 82 0;
#X connect 84 0 76 0;
#X connect 85 0 87 0;
#X connect 86 0 85 0;
#X connect 87 0 74 0;
#X connect 90 0 52 0;
#X connect 90 1 53 0;
#X connect 90 2 54 0;
#X connect 90 3 55 0;
#X connect 90 4 69 0;
#X connect 90 5 68 0;
#X connect 91 0 90 0;
#X connect 92 0 70 0;
#X connect 93 0 13 0;
#X connect 94 0 60 3;
#X connect 94 0 56 3;
#X connect 94 0 57 3;
#X connect 94 0 67 3;
#X connect 94 0 59 3;
#X connect 94 0 58 3;
#X connect 96 0 56 4;
#X connect 96 0 58 4;
#X connect 96 0 67 4;
#X coords 0 -1 1 1 1250 480 2 150 300;
