#N canvas 0 0 1920 989 12;
#N canvas 0 50 450 250 (subpatch) 0;
#X array wavetable1 4096 float 2;
#X coords 0 1 4096 -1 200 140 1 0 0;
#X restore 351 123 graph;
#X obj 228 99 soundfiler;
#X floatatom 228 123 5 0 0 0 - - - 0;
#X obj 228 146 / 8;
#X floatatom 228 170 5 0 0 0 - - - 0;
#X obj 228 193 s pSize;
#X obj 228 51 loadbang;
#X msg 228 75 read -resize waveforms/Violin.wav wavetable1;
#X obj 87 212 inlet;
#X obj 87 295 outlet~;
#X obj 87 265 clone FMvoice.cl 3;
#X msg 87 239 next \$1;
#X connect 1 0 2 0;
#X connect 2 0 3 0;
#X connect 3 0 4 0;
#X connect 4 0 5 0;
#X connect 6 0 7 0;
#X connect 7 0 1 0;
#X connect 8 0 11 0;
#X connect 10 0 9 0;
#X connect 11 0 10 0;
