#N canvas 109 76 1920 989 12;
#X obj 166 289 hsl 162 19 0 1 0 0 empty empty empty -2 -10 0 12 #fcfcfc #000000 #000000 0 1;
#X obj 163 262 / 127;
#X obj 37 695 tri~;
#X obj 37 662 +~;
#X obj 37 513 mtof;
#X obj 73 569 *~;
#X obj 411 289 hsl 162 19 0 1000 0 0 empty empty empty -2 -10 0 12 #fcfcfc #000000 #000000 0 1;
#X floatatom 55 172 5 0 0 0 - - - 0;
#N canvas 352 48 1366 677 waveTable1 0;
#X obj 52 142 mtof;
#X floatatom 52 168 5 0 0 0 - - - 0;
#X obj 52 193 phasor~;
#X floatatom 52 117 5 0 0 0 - - - 0;
#X obj 52 217 *~;
#X obj 52 345 tabread4~ wavetable1;
#X obj 130 153 r pSize;
#X obj 52 319 +~;
#X obj 94 295 *~;
#X msg 112 271 0;
#X obj 204 345 tabread4~ wavetable1;
#X obj 204 319 +~;
#X obj 246 295 *~;
#X obj 355 345 tabread4~ wavetable1;
#X obj 355 319 +~;
#X obj 397 295 *~;
#X obj 506 345 tabread4~ wavetable1;
#X obj 506 319 +~;
#X obj 548 295 *~;
#X obj 657 345 tabread4~ wavetable1;
#X obj 657 319 +~;
#X obj 699 295 *~;
#X obj 809 345 tabread4~ wavetable1;
#X obj 809 319 +~;
#X obj 851 295 *~;
#X obj 960 345 tabread4~ wavetable1;
#X obj 960 319 +~;
#X obj 1002 295 *~;
#X obj 1111 345 tabread4~ wavetable1;
#X obj 1111 319 +~;
#X obj 1153 295 *~;
#X msg 264 271 1;
#X msg 415 271 2;
#X msg 566 271 3;
#X msg 717 271 4;
#X msg 869 271 5;
#X msg 1020 271 6;
#X msg 1171 271 7;
#X obj 148 125 loadbang;
#X obj 468 417 mixer8wt;
#X obj 881 437 hsl 162 19 0 7 0 0 empty empty empty -2 -10 0 12 #fcfcfc #000000 #000000 0 1;
#X obj 879 472 line 10;
#X obj 561 642 outlet~;
#X obj 930 218 inlet;
#X obj 878 409 * 7;
#X obj 52 92 inlet;
#X connect 0 0 1 0;
#X connect 1 0 2 0;
#X connect 2 0 4 0;
#X connect 3 0 0 0;
#X connect 4 0 7 0;
#X connect 4 0 11 0;
#X connect 4 0 14 0;
#X connect 4 0 17 0;
#X connect 4 0 20 0;
#X connect 4 0 23 0;
#X connect 4 0 26 0;
#X connect 4 0 29 0;
#X connect 5 0 39 0;
#X connect 6 0 4 1;
#X connect 6 0 8 0;
#X connect 6 0 12 0;
#X connect 6 0 15 0;
#X connect 6 0 18 0;
#X connect 6 0 21 0;
#X connect 6 0 24 0;
#X connect 6 0 27 0;
#X connect 6 0 30 0;
#X connect 7 0 5 0;
#X connect 8 0 7 1;
#X connect 9 0 8 1;
#X connect 10 0 39 1;
#X connect 11 0 10 0;
#X connect 12 0 11 1;
#X connect 13 0 39 2;
#X connect 14 0 13 0;
#X connect 15 0 14 1;
#X connect 16 0 39 3;
#X connect 17 0 16 0;
#X connect 18 0 17 1;
#X connect 19 0 39 4;
#X connect 20 0 19 0;
#X connect 21 0 20 1;
#X connect 22 0 39 5;
#X connect 23 0 22 0;
#X connect 24 0 23 1;
#X connect 25 0 39 6;
#X connect 26 0 25 0;
#X connect 27 0 26 1;
#X connect 28 0 39 7;
#X connect 29 0 28 0;
#X connect 30 0 29 1;
#X connect 31 0 12 1;
#X connect 32 0 15 1;
#X connect 33 0 18 1;
#X connect 34 0 21 1;
#X connect 35 0 24 1;
#X connect 36 0 27 1;
#X connect 37 0 30 1;
#X connect 38 0 9 0;
#X connect 38 0 31 0;
#X connect 38 0 32 0;
#X connect 38 0 33 0;
#X connect 38 0 34 0;
#X connect 38 0 35 0;
#X connect 38 0 36 0;
#X connect 38 0 37 0;
#X connect 39 0 42 0;
#X connect 40 0 41 0;
#X connect 41 0 39 8;
#X connect 43 0 44 0;
#X connect 44 0 40 0;
#X connect 45 0 3 0;
#X restore 73 342 pd waveTable1;
#X obj 163 239 lfo -sin;
#X obj 163 55 bng 19 250 50 0 empty empty empty 0 -10 0 12 #fcfcfc #000000 #000000;
#X obj 408 238 s2f~;
#X obj 408 190 bng 19 250 50 0 empty empty empty 0 -10 0 12 #fcfcfc #000000 #000000;
#X obj 37 719 *~;
#X obj 73 607 +~;
#X obj 108 546 osc~;
#X obj 295 511 hsl 162 19 0 200 0 0 empty empty empty -2 -10 0 12 #fcfcfc #000000 #000000 0 1;
#X obj 292 460 s2f~;
#X obj 108 570 *~;
#X obj 108 522 * 2;
#X obj 298 158 lfo -sin;
#X floatatom 298 135 5 0 0 0 - - - 0;
#X obj 163 144 +;
#X obj 298 182 / 127;
#X floatatom 88 232 5 0 0 0 - - - 0;
#X obj 55 82 inlet;
#X obj 37 795 outlet~;
#X obj 292 483 * 150;
#X obj 213 89 random 100;
#X obj 298 89 random 100;
#X floatatom 208 187 5 0 0 0 - - - 0;
#X obj 163 194 +;
#X floatatom 174 218 5 0 0 0 - - - 0;
#X obj 298 206 - 0.5;
#X obj 208 163 * 0.1;
#X obj 408 263 * 500;
#X obj 213 113 / 1600;
#X obj 298 112 / 1600;
#X obj 163 28 loadbang;
#X msg 163 89 0.075;
#X text 431 190 Ammount of modulation;
#X text 313 412 Amount of mod over the modulator;
#X obj 292 436 envgen~ 2500 1 3500 0;
#X obj 408 214 envgen~ 1000 1 5000 0;
#X connect 0 0 8 1;
#X connect 1 0 0 0;
#X connect 2 0 13 0;
#X connect 3 0 2 0;
#X connect 4 0 3 0;
#X connect 4 0 19 0;
#X connect 5 0 14 0;
#X connect 6 0 5 1;
#X connect 7 0 8 0;
#X connect 8 0 5 0;
#X connect 9 0 1 0;
#X connect 10 0 28 0;
#X connect 10 0 29 0;
#X connect 10 0 39 0;
#X connect 11 0 13 1;
#X connect 11 0 35 0;
#X connect 12 0 42 0;
#X connect 12 0 43 0;
#X connect 13 0 26 0;
#X connect 14 0 3 1;
#X connect 15 0 18 0;
#X connect 17 0 27 0;
#X connect 18 0 14 1;
#X connect 19 0 15 0;
#X connect 20 0 23 0;
#X connect 21 0 20 0;
#X connect 22 0 24 0;
#X connect 22 0 31 1;
#X connect 23 0 33 0;
#X connect 25 0 7 0;
#X connect 25 0 12 0;
#X connect 25 0 4 0;
#X connect 27 0 16 0;
#X connect 27 0 18 1;
#X connect 28 0 36 0;
#X connect 29 0 37 0;
#X connect 30 0 31 0;
#X connect 31 0 9 0;
#X connect 31 0 32 0;
#X connect 33 0 34 0;
#X connect 34 0 30 0;
#X connect 35 0 6 0;
#X connect 36 0 22 1;
#X connect 37 0 21 0;
#X connect 38 0 10 0;
#X connect 39 0 22 0;
#X connect 42 0 17 0;
#X connect 43 0 11 0;
