#N canvas 0 0 1370 729 12;
#N canvas 953 0 958 980 chord 0;
#X obj 100 102 inlet;
#X obj 100 549 outlet;
#X obj 139 549 outlet;
#X obj 179 549 outlet;
#X obj 217 549 outlet;
#X floatatom 100 489 5 0 0 0 - - - 0;
#X floatatom 139 509 5 0 0 0 - - - 0;
#X floatatom 179 489 5 0 0 0 - - - 0;
#X floatatom 217 509 5 0 0 0 - - - 0;
#X text 211 230 Am7/11 A1 E2 G2 C3 D3;
#X text 227 250 C add11 F1 G2 C3 E3;
#X text 244 270 Dm add11 D1 F2 G2 A2 D3;
#X text 260 290 F maj7 F1 C2 F2 A2 E3;
#X msg 100 230 33 40 43 48 50;
#X msg 133 270 26 41 43 45 50;
#X msg 149 290 29 36 41 45 52;
#X obj 100 380 unpack f f f f f, f 23;
#X obj 258 549 outlet;
#X floatatom 258 509 5 0 0 0 - - - 0;
#X obj 100 150 sel 1 2 3 4;
#X obj 100 126 counter 1 4, f 12;
#X obj 100 447 line;
#X obj 139 468 line;
#X obj 179 447 line;
#X obj 217 468 line;
#X obj 258 447 line;
#X msg 116 250 29 43 48 52 52;
#X msg 100 419 \$1 750;
#X msg 139 441 \$1 750;
#X msg 179 419 \$1 750;
#X msg 217 442 \$1 750;
#X msg 258 420 \$1 750;
#X connect 0 0 20 0;
#X connect 5 0 1 0;
#X connect 6 0 2 0;
#X connect 7 0 3 0;
#X connect 8 0 4 0;
#X connect 13 0 16 0;
#X connect 14 0 16 0;
#X connect 15 0 16 0;
#X connect 16 0 27 0;
#X connect 16 1 28 0;
#X connect 16 2 29 0;
#X connect 16 3 30 0;
#X connect 16 4 31 0;
#X connect 18 0 17 0;
#X connect 19 0 13 0;
#X connect 19 1 26 0;
#X connect 19 2 14 0;
#X connect 19 3 15 0;
#X connect 20 0 19 0;
#X connect 21 0 5 0;
#X connect 22 0 6 0;
#X connect 23 0 7 0;
#X connect 24 0 8 0;
#X connect 25 0 18 0;
#X connect 26 0 16 0;
#X connect 27 0 21 0;
#X connect 28 0 22 0;
#X connect 29 0 23 0;
#X connect 30 0 24 0;
#X connect 31 0 25 0;
#X restore 364 144 pd chord;
#N canvas 0 0 1366 677 osc 0;
#X obj 330 210 +~;
#X obj 330 282 outlet~;
#X obj 288 161 +~;
#X obj 460 161 +~;
#X obj 374 100 inlet;
#N canvas 953 0 958 980 sawtooth 0;
#X obj 100 140 mtof;
#X floatatom 100 100 5 0 0 0 - - - 0;
#X obj 200 70 random 100;
#X obj 200 110 + 1;
#X floatatom 200 130 8 0 0 0 - - - 0;
#X obj 200 90 / 1e+06;
#X obj 150 70 bng 15 250 50 0 empty empty empty 17 7 0 10 #fcfcfc #000000 #000000;
#X obj 100 40 inlet;
#X obj 150 140 mtof;
#X obj 150 100 *;
#X floatatom 150 120 5 0 0 0 - - - 0;
#X obj 100 188 +~;
#X obj 100 162 saw~;
#X obj 150 162 saw~;
#X obj 100 214 /~ 2;
#X obj 100 240 outlet~;
#X connect 0 0 12 0;
#X connect 1 0 0 0;
#X connect 2 0 5 0;
#X connect 3 0 4 0;
#X connect 4 0 9 1;
#X connect 5 0 3 0;
#X connect 6 0 2 0;
#X connect 7 0 1 0;
#X connect 7 0 6 0;
#X connect 7 0 9 0;
#X connect 8 0 13 0;
#X connect 9 0 10 0;
#X connect 10 0 8 0;
#X connect 11 0 14 0;
#X connect 12 0 11 0;
#X connect 13 0 11 1;
#X connect 14 0 15 0;
#X restore 374 128 pd sawtooth;
#X obj 460 100 inlet;
#N canvas 953 0 958 980 sawtooth 0;
#X obj 100 140 mtof;
#X floatatom 100 100 5 0 0 0 - - - 0;
#X obj 200 70 random 100;
#X obj 200 110 + 1;
#X floatatom 200 130 8 0 0 0 - - - 0;
#X obj 200 90 / 1e+06;
#X obj 150 70 bng 15 250 50 0 empty empty empty 17 7 0 10 #fcfcfc #000000 #000000;
#X obj 100 40 inlet;
#X obj 150 140 mtof;
#X obj 150 100 *;
#X floatatom 150 120 5 0 0 0 - - - 0;
#X obj 100 188 +~;
#X obj 100 162 saw~;
#X obj 150 162 saw~;
#X obj 100 214 /~ 2;
#X obj 100 240 outlet~;
#X connect 0 0 12 0;
#X connect 1 0 0 0;
#X connect 2 0 5 0;
#X connect 3 0 4 0;
#X connect 4 0 9 1;
#X connect 5 0 3 0;
#X connect 6 0 2 0;
#X connect 7 0 1 0;
#X connect 7 0 6 0;
#X connect 7 0 9 0;
#X connect 8 0 13 0;
#X connect 9 0 10 0;
#X connect 10 0 8 0;
#X connect 11 0 14 0;
#X connect 12 0 11 0;
#X connect 13 0 11 1;
#X connect 14 0 15 0;
#X restore 460 128 pd sawtooth;
#X obj 546 100 inlet;
#N canvas 953 0 958 980 sawtooth 0;
#X obj 100 140 mtof;
#X floatatom 100 100 5 0 0 0 - - - 0;
#X obj 200 70 random 100;
#X obj 200 110 + 1;
#X floatatom 200 130 8 0 0 0 - - - 0;
#X obj 200 90 / 1e+06;
#X obj 150 70 bng 15 250 50 0 empty empty empty 17 7 0 10 #fcfcfc #000000 #000000;
#X obj 100 40 inlet;
#X obj 150 140 mtof;
#X obj 150 100 *;
#X floatatom 150 120 5 0 0 0 - - - 0;
#X obj 100 188 +~;
#X obj 100 162 saw~;
#X obj 150 162 saw~;
#X obj 100 214 /~ 2;
#X obj 100 240 outlet~;
#X connect 0 0 12 0;
#X connect 1 0 0 0;
#X connect 2 0 5 0;
#X connect 3 0 4 0;
#X connect 4 0 9 1;
#X connect 5 0 3 0;
#X connect 6 0 2 0;
#X connect 7 0 1 0;
#X connect 7 0 6 0;
#X connect 7 0 9 0;
#X connect 8 0 13 0;
#X connect 9 0 10 0;
#X connect 10 0 8 0;
#X connect 11 0 14 0;
#X connect 12 0 11 0;
#X connect 13 0 11 1;
#X connect 14 0 15 0;
#X restore 546 128 pd sawtooth;
#X obj 202 100 inlet;
#X obj 288 100 inlet;
#N canvas 605 196 958 729 sawtooth 0;
#X obj 100 140 mtof;
#X floatatom 100 100 5 0 0 0 - - - 0;
#X obj 200 70 random 100;
#X obj 200 110 + 1;
#X floatatom 200 130 8 0 0 0 - - - 0;
#X obj 200 90 / 1e+06;
#X obj 150 70 bng 15 250 50 0 empty empty empty 17 7 0 10 #fcfcfc #000000 #000000;
#X obj 100 40 inlet;
#X obj 150 140 mtof;
#X obj 150 100 *;
#X floatatom 150 120 5 0 0 0 - - - 0;
#X obj 100 188 +~;
#X obj 100 162 saw~;
#X obj 150 162 saw~;
#X obj 100 214 /~ 2;
#X obj 100 240 outlet~;
#X connect 0 0 12 0;
#X connect 1 0 0 0;
#X connect 2 0 5 0;
#X connect 3 0 4 0;
#X connect 4 0 9 1;
#X connect 5 0 3 0;
#X connect 6 0 2 0;
#X connect 7 0 1 0;
#X connect 7 0 6 0;
#X connect 7 0 9 0;
#X connect 8 0 13 0;
#X connect 9 0 10 0;
#X connect 10 0 8 0;
#X connect 11 0 14 0;
#X connect 12 0 11 0;
#X connect 13 0 11 1;
#X connect 14 0 15 0;
#X restore 288 128 pd sawtooth;
#X obj 330 258 /~ 5;
#X obj 330 234 +~;
#N canvas -49 80 958 729 sawtooth 0;
#X obj 100 140 mtof;
#X floatatom 100 100 5 0 0 0 - - - 0;
#X obj 200 70 random 100;
#X obj 200 110 + 1;
#X floatatom 200 130 8 0 0 0 - - - 0;
#X obj 200 90 / 1e+06;
#X obj 150 70 bng 15 250 50 0 empty empty empty 17 7 0 10 #fcfcfc #000000 #000000;
#X obj 100 40 inlet;
#X obj 150 140 mtof;
#X obj 150 100 *;
#X floatatom 150 120 5 0 0 0 - - - 0;
#X obj 100 188 +~;
#X obj 100 162 saw~;
#X obj 150 162 saw~;
#X obj 100 214 /~ 2;
#X obj 100 240 outlet~;
#X connect 0 0 12 0;
#X connect 1 0 0 0;
#X connect 2 0 5 0;
#X connect 3 0 4 0;
#X connect 4 0 9 1;
#X connect 5 0 3 0;
#X connect 6 0 2 0;
#X connect 7 0 1 0;
#X connect 7 0 6 0;
#X connect 7 0 9 0;
#X connect 8 0 13 0;
#X connect 9 0 10 0;
#X connect 10 0 8 0;
#X connect 11 0 14 0;
#X connect 12 0 11 0;
#X connect 13 0 11 1;
#X connect 14 0 15 0;
#X restore 202 128 pd sawtooth;
#X connect 0 0 14 0;
#X connect 2 0 0 0;
#X connect 3 0 0 1;
#X connect 4 0 5 0;
#X connect 5 0 2 1;
#X connect 6 0 7 0;
#X connect 7 0 3 0;
#X connect 8 0 9 0;
#X connect 9 0 3 1;
#X connect 10 0 15 0;
#X connect 11 0 12 0;
#X connect 12 0 2 0;
#X connect 13 0 1 0;
#X connect 14 0 13 0;
#X connect 15 0 14 1;
#X restore 364 184 pd osc;
#X f 8;
#X obj 364 119 bng 19 250 50 0 empty empty empty 0 -10 0 12 #fcfcfc #000000 #000000;
#X obj 364 217 bob~;
#X msg 257 184 bypass \$1;
#X obj 257 161 tgl 15 0 empty empty empty 17 7 0 10 #dcdcdc #000000 #000000 0 1;
#X obj 482 62 loadbang;
#N canvas 0 0 1370 729 granular 0;
#X obj 1305 371 s maxLength;
#X msg 1305 350 4410;
#X obj 686 90 hsl 128 15 5 2000 0 0 empty tMeanH empty -2 -8 0 10 #fcfcfc #000000 #000000 0 1;
#X obj 744 111 hsl 128 15 0 2000 0 0 empty tRangeH empty -2 -8 0 10 #fcfcfc #000000 #000000 0 1;
#X text 878 111 time range;
#X obj 683 110 s tMean;
#X obj 741 131 s tRange;
#X obj 398 156 hsl 128 15 0 2 0 0 empty lMeanH empty -2 -8 0 10 #fcfcfc #000000 #000000 0 1;
#X obj 458 180 hsl 128 15 0 1 0 0 empty lRangeH empty -2 -8 0 10 #fcfcfc #000000 #000000 0 1;
#X text 593 180 length range;
#X obj 455 200 s lRange;
#X obj 967 111 hsl 128 15 0 20 0 0 empty spMeanH empty -2 -8 0 10 #fcfcfc #000000 #000000 0 1;
#X obj 1035 174 hsl 128 15 0 20 0 0 empty spRangeH empty -2 -8 0 10 #fcfcfc #000000 #000000 0 1;
#X text 1171 173 speed range;
#X obj 964 131 s spMean;
#X obj 1032 194 s spRange;
#X obj 388 89 hsl 195 15 0 1 0 0 empty stMeanH empty -2 -8 0 10 #fcfcfc #000000 #000000 0 1;
#X obj 528 109 hsl 128 15 0 1 0 0 empty stRangeH empty -2 -8 0 10 #fcfcfc #000000 #000000 0 1;
#X text 589 131 start range;
#X obj 385 109 s stMean;
#X obj 525 129 s stRange;
#X obj 1304 328 loadbang;
#X obj 734 157 hsl 128 15 0 1 0 0 empty volMeanH empty -2 -8 0 10 #fcfcfc #000000 #000000 0 1;
#X obj 808 180 hsl 128 15 0 0.5 0 0 empty volRangeH empty -2 -8 0 10 #fcfcfc #000000 #000000 0 1;
#X obj 395 176 s lMean;
#X text 876 202 volume range;
#X obj 996 221 hsl 128 15 0 1 0 0 empty panningH empty -2 -8 0 10 #fcfcfc #000000 #000000 0 1;
#X text 1129 221 panning;
#X obj 993 240 s panning;
#X obj 731 176 s volMean;
#X obj 805 200 s volRange;
#X obj 1105 383 bng 15 250 50 0 empty empty empty 17 7 0 10 #fcfcfc #000000 #000000;
#X msg 1382 508 0.1;
#X obj 1403 532 s stMeanH;
#X obj 1233 540 s spMeanH;
#X obj 1150 567 s panningH;
#X obj 1344 470 s tRangeH;
#X obj 1396 434 s spRangeH;
#X msg 1381 350 2000;
#X obj 1381 371 s maxDel;
#X obj 816 431 s octaveLock;
#X obj 816 411 tgl 15 0 empty empty empty 17 7 0 10 #fcfcfc #000000 #000000 0 1;
#X obj 815 389 s grainsNum;
#X floatatom 815 367 5 0 0 0 - - - 0;
#N canvas 0 23 1258 676 online8grains 0;
#N canvas 0 22 1020 608 selector8toggles 0;
#X msg 200 147 1;
#X msg 161 147 0;
#X msg 240 192 1;
#X msg 201 192 0;
#X obj 161 340 tgl 15 0 empty empty empty 17 7 0 10 #fcfcfc #000000 #000000 0 1;
#X obj 184 340 tgl 15 0 empty empty empty 17 7 0 10 #fcfcfc #000000 #000000 0 1;
#X obj 206 340 tgl 15 0 empty empty empty 17 7 0 10 #fcfcfc #000000 #000000 0 1;
#X obj 229 340 tgl 15 0 empty empty empty 17 7 0 10 #fcfcfc #000000 #000000 0 1;
#X msg 280 238 1;
#X msg 241 238 0;
#X msg 321 286 1;
#X msg 282 286 0;
#X obj 161 125 moses 1;
#X obj 201 170 moses 2;
#X obj 241 216 moses 3;
#X obj 282 264 moses 4;
#X msg 290 149 1;
#X msg 251 149 0;
#X msg 330 194 1;
#X msg 291 194 0;
#X msg 370 240 1;
#X msg 331 240 0;
#X msg 411 288 1;
#X msg 372 288 0;
#X obj 251 127 moses 5;
#X obj 291 172 moses 6;
#X obj 331 218 moses 7;
#X obj 372 266 moses 8;
#X obj 260 340 tgl 15 0 empty empty empty 17 7 0 10 #fcfcfc #000000 #000000 0 1;
#X obj 283 340 tgl 15 0 empty empty empty 17 7 0 10 #fcfcfc #000000 #000000 0 1;
#X obj 305 340 tgl 15 0 empty empty empty 17 7 0 10 #fcfcfc #000000 #000000 0 1;
#X obj 328 340 tgl 15 0 empty empty empty 17 7 0 10 #fcfcfc #000000 #000000 0 1;
#X obj 295 95 inlet;
#X obj 184 385 outlet;
#X obj 161 362 outlet;
#X obj 229 383 outlet;
#X obj 206 360 outlet;
#X obj 283 384 outlet;
#X obj 260 361 outlet;
#X obj 328 382 outlet;
#X obj 305 359 outlet;
#X connect 0 0 4 0;
#X connect 1 0 4 0;
#X connect 2 0 5 0;
#X connect 3 0 5 0;
#X connect 4 0 34 0;
#X connect 5 0 33 0;
#X connect 6 0 36 0;
#X connect 7 0 35 0;
#X connect 8 0 6 0;
#X connect 9 0 6 0;
#X connect 10 0 7 0;
#X connect 11 0 7 0;
#X connect 12 0 1 0;
#X connect 12 1 0 0;
#X connect 13 0 3 0;
#X connect 13 1 2 0;
#X connect 14 0 9 0;
#X connect 14 1 8 0;
#X connect 15 0 11 0;
#X connect 15 1 10 0;
#X connect 16 0 28 0;
#X connect 17 0 28 0;
#X connect 18 0 29 0;
#X connect 19 0 29 0;
#X connect 20 0 30 0;
#X connect 21 0 30 0;
#X connect 22 0 31 0;
#X connect 23 0 31 0;
#X connect 24 0 17 0;
#X connect 24 1 16 0;
#X connect 25 0 19 0;
#X connect 25 1 18 0;
#X connect 26 0 21 0;
#X connect 26 1 20 0;
#X connect 27 0 23 0;
#X connect 27 1 22 0;
#X connect 28 0 38 0;
#X connect 29 0 37 0;
#X connect 30 0 40 0;
#X connect 31 0 39 0;
#X connect 32 0 12 0;
#X connect 32 0 13 0;
#X connect 32 0 14 0;
#X connect 32 0 15 0;
#X connect 32 0 24 0;
#X connect 32 0 25 0;
#X connect 32 0 26 0;
#X connect 32 0 27 0;
#X restore 956 48 pd selector8toggles;
#X obj 956 25 inlet;
#X obj 102 287 anOnlineGrain;
#X obj 99 52 r tMean;
#X obj 106 72 r tRange;
#X obj 121 115 r lRange;
#X obj 128 135 r spMean;
#X obj 136 154 r spRange;
#X obj 145 173 r stMean;
#X obj 114 94 r lMean;
#X obj 150 192 r stRange;
#X obj 158 210 r volMean;
#X obj 165 229 r volRange;
#X obj 173 248 r panning;
#X obj 182 266 r octaveLock;
#X obj 102 28 tgl 15 0 empty empty empty 17 7 0 10 #fcfcfc #000000 #000000 0 1;
#X obj 275 51 r tMean;
#X obj 282 71 r tRange;
#X obj 297 114 r lRange;
#X obj 304 134 r spMean;
#X obj 312 153 r spRange;
#X obj 321 172 r stMean;
#X obj 290 93 r lMean;
#X obj 326 191 r stRange;
#X obj 334 209 r volMean;
#X obj 341 228 r volRange;
#X obj 349 247 r panning;
#X obj 358 265 r octaveLock;
#X obj 278 27 tgl 15 0 empty empty empty 17 7 0 10 #fcfcfc #000000 #000000 0 1;
#X obj 439 54 r tMean;
#X obj 446 74 r tRange;
#X obj 461 117 r lRange;
#X obj 468 137 r spMean;
#X obj 476 156 r spRange;
#X obj 485 175 r stMean;
#X obj 454 96 r lMean;
#X obj 490 194 r stRange;
#X obj 498 212 r volMean;
#X obj 505 231 r volRange;
#X obj 513 250 r panning;
#X obj 522 268 r octaveLock;
#X obj 442 30 tgl 15 0 empty empty empty 17 7 0 10 #fcfcfc #000000 #000000 0 1;
#X obj 615 53 r tMean;
#X obj 622 73 r tRange;
#X obj 637 116 r lRange;
#X obj 644 136 r spMean;
#X obj 652 155 r spRange;
#X obj 661 174 r stMean;
#X obj 630 95 r lMean;
#X obj 666 193 r stRange;
#X obj 674 211 r volMean;
#X obj 681 230 r volRange;
#X obj 689 249 r panning;
#X obj 698 267 r octaveLock;
#X obj 618 29 tgl 15 0 empty empty empty 17 7 0 10 #fcfcfc #000000 #000000 0 1;
#X obj 443 341 r tMean;
#X obj 450 361 r tRange;
#X obj 465 404 r lRange;
#X obj 472 424 r spMean;
#X obj 480 443 r spRange;
#X obj 489 462 r stMean;
#X obj 458 383 r lMean;
#X obj 494 481 r stRange;
#X obj 502 499 r volMean;
#X obj 509 518 r volRange;
#X obj 517 537 r panning;
#X obj 526 555 r octaveLock;
#X obj 446 317 tgl 15 0 empty empty empty 17 7 0 10 #fcfcfc #000000 #000000 0 1;
#X obj 619 340 r tMean;
#X obj 626 360 r tRange;
#X obj 641 403 r lRange;
#X obj 648 423 r spMean;
#X obj 656 442 r spRange;
#X obj 665 461 r stMean;
#X obj 634 382 r lMean;
#X obj 670 480 r stRange;
#X obj 678 498 r volMean;
#X obj 685 517 r volRange;
#X obj 693 536 r panning;
#X obj 702 554 r octaveLock;
#X obj 622 316 tgl 15 0 empty empty empty 17 7 0 10 #fcfcfc #000000 #000000 0 1;
#X obj 783 343 r tMean;
#X obj 790 363 r tRange;
#X obj 805 406 r lRange;
#X obj 812 426 r spMean;
#X obj 820 445 r spRange;
#X obj 829 464 r stMean;
#X obj 798 385 r lMean;
#X obj 834 483 r stRange;
#X obj 842 501 r volMean;
#X obj 849 520 r volRange;
#X obj 857 539 r panning;
#X obj 866 557 r octaveLock;
#X obj 786 319 tgl 15 0 empty empty empty 17 7 0 10 #fcfcfc #000000 #000000 0 1;
#X obj 959 342 r tMean;
#X obj 966 362 r tRange;
#X obj 981 405 r lRange;
#X obj 988 425 r spMean;
#X obj 996 444 r spRange;
#X obj 1005 463 r stMean;
#X obj 974 384 r lMean;
#X obj 1010 482 r stRange;
#X obj 1018 500 r volMean;
#X obj 1025 519 r volRange;
#X obj 1033 538 r panning;
#X obj 1042 556 r octaveLock;
#X obj 962 318 tgl 15 0 empty empty empty 17 7 0 10 #fcfcfc #000000 #000000 0 1;
#X obj 421 645 outlet~;
#X obj 352 646 outlet~;
#X obj 278 286 anOnlineGrain;
#X obj 442 289 anOnlineGrain;
#X obj 618 288 anOnlineGrain;
#X obj 446 576 anOnlineGrain;
#X obj 622 575 anOnlineGrain;
#X obj 786 578 anOnlineGrain;
#X obj 962 577 anOnlineGrain;
#X connect 0 0 15 0;
#X connect 0 1 28 0;
#X connect 0 2 41 0;
#X connect 0 3 54 0;
#X connect 0 4 67 0;
#X connect 0 5 80 0;
#X connect 0 6 93 0;
#X connect 0 7 106 0;
#X connect 1 0 0 0;
#X connect 2 0 108 0;
#X connect 2 1 107 0;
#X connect 3 0 2 1;
#X connect 4 0 2 2;
#X connect 5 0 2 4;
#X connect 6 0 2 5;
#X connect 7 0 2 6;
#X connect 8 0 2 7;
#X connect 9 0 2 3;
#X connect 10 0 2 8;
#X connect 11 0 2 9;
#X connect 12 0 2 10;
#X connect 13 0 2 11;
#X connect 14 0 2 12;
#X connect 15 0 2 0;
#X connect 16 0 109 1;
#X connect 17 0 109 2;
#X connect 18 0 109 4;
#X connect 19 0 109 5;
#X connect 20 0 109 6;
#X connect 21 0 109 7;
#X connect 22 0 109 3;
#X connect 23 0 109 8;
#X connect 24 0 109 9;
#X connect 25 0 109 10;
#X connect 26 0 109 11;
#X connect 27 0 109 12;
#X connect 28 0 109 0;
#X connect 29 0 110 1;
#X connect 30 0 110 2;
#X connect 31 0 110 4;
#X connect 32 0 110 5;
#X connect 33 0 110 6;
#X connect 34 0 110 7;
#X connect 35 0 110 3;
#X connect 36 0 110 8;
#X connect 37 0 110 9;
#X connect 38 0 110 10;
#X connect 39 0 110 11;
#X connect 40 0 110 12;
#X connect 41 0 110 0;
#X connect 42 0 111 1;
#X connect 43 0 111 2;
#X connect 44 0 111 4;
#X connect 45 0 111 5;
#X connect 46 0 111 6;
#X connect 47 0 111 7;
#X connect 48 0 111 3;
#X connect 49 0 111 8;
#X connect 50 0 111 9;
#X connect 51 0 111 10;
#X connect 52 0 111 11;
#X connect 53 0 111 12;
#X connect 54 0 111 0;
#X connect 55 0 112 1;
#X connect 56 0 112 2;
#X connect 57 0 112 4;
#X connect 58 0 112 5;
#X connect 59 0 112 6;
#X connect 60 0 112 7;
#X connect 61 0 112 3;
#X connect 62 0 112 8;
#X connect 63 0 112 9;
#X connect 64 0 112 10;
#X connect 65 0 112 11;
#X connect 66 0 112 12;
#X connect 67 0 112 0;
#X connect 68 0 113 1;
#X connect 69 0 113 2;
#X connect 70 0 113 4;
#X connect 71 0 113 5;
#X connect 72 0 113 6;
#X connect 73 0 113 7;
#X connect 74 0 113 3;
#X connect 75 0 113 8;
#X connect 76 0 113 9;
#X connect 77 0 113 10;
#X connect 78 0 113 11;
#X connect 79 0 113 12;
#X connect 80 0 113 0;
#X connect 81 0 114 1;
#X connect 82 0 114 2;
#X connect 83 0 114 4;
#X connect 84 0 114 5;
#X connect 85 0 114 6;
#X connect 86 0 114 7;
#X connect 87 0 114 3;
#X connect 88 0 114 8;
#X connect 89 0 114 9;
#X connect 90 0 114 10;
#X connect 91 0 114 11;
#X connect 92 0 114 12;
#X connect 93 0 114 0;
#X connect 94 0 115 1;
#X connect 95 0 115 2;
#X connect 96 0 115 4;
#X connect 97 0 115 5;
#X connect 98 0 115 6;
#X connect 99 0 115 7;
#X connect 100 0 115 3;
#X connect 101 0 115 8;
#X connect 102 0 115 9;
#X connect 103 0 115 10;
#X connect 104 0 115 11;
#X connect 105 0 115 12;
#X connect 106 0 115 0;
#X connect 109 0 108 0;
#X connect 109 1 107 0;
#X connect 110 0 108 0;
#X connect 110 1 107 0;
#X connect 111 0 108 0;
#X connect 111 1 107 0;
#X connect 112 0 108 0;
#X connect 112 1 107 0;
#X connect 113 0 108 0;
#X connect 113 1 107 0;
#X connect 114 0 108 0;
#X connect 114 1 107 0;
#X connect 115 0 108 0;
#X connect 115 1 107 0;
#X restore 395 328 pd online8grains;
#X obj 395 304 r grainsNum;
#N canvas 0 23 1258 676 online8grains 0;
#N canvas 0 22 1020 608 selector8toggles 0;
#X msg 200 147 1;
#X msg 161 147 0;
#X msg 240 192 1;
#X msg 201 192 0;
#X obj 161 340 tgl 15 0 empty empty empty 17 7 0 10 #fcfcfc #000000 #000000 0 1;
#X obj 184 340 tgl 15 0 empty empty empty 17 7 0 10 #fcfcfc #000000 #000000 0 1;
#X obj 206 340 tgl 15 0 empty empty empty 17 7 0 10 #fcfcfc #000000 #000000 0 1;
#X obj 229 340 tgl 15 0 empty empty empty 17 7 0 10 #fcfcfc #000000 #000000 0 1;
#X msg 280 238 1;
#X msg 241 238 0;
#X msg 321 286 1;
#X msg 282 286 0;
#X obj 161 125 moses 1;
#X obj 201 170 moses 2;
#X obj 241 216 moses 3;
#X obj 282 264 moses 4;
#X msg 290 149 1;
#X msg 251 149 0;
#X msg 330 194 1;
#X msg 291 194 0;
#X msg 370 240 1;
#X msg 331 240 0;
#X msg 411 288 1;
#X msg 372 288 0;
#X obj 251 127 moses 5;
#X obj 291 172 moses 6;
#X obj 331 218 moses 7;
#X obj 372 266 moses 8;
#X obj 260 340 tgl 15 0 empty empty empty 17 7 0 10 #fcfcfc #000000 #000000 0 1;
#X obj 283 340 tgl 15 0 empty empty empty 17 7 0 10 #fcfcfc #000000 #000000 0 1;
#X obj 305 340 tgl 15 0 empty empty empty 17 7 0 10 #fcfcfc #000000 #000000 0 1;
#X obj 328 340 tgl 15 0 empty empty empty 17 7 0 10 #fcfcfc #000000 #000000 0 1;
#X obj 295 95 inlet;
#X obj 184 385 outlet;
#X obj 161 362 outlet;
#X obj 229 383 outlet;
#X obj 206 360 outlet;
#X obj 283 384 outlet;
#X obj 260 361 outlet;
#X obj 328 382 outlet;
#X obj 305 359 outlet;
#X connect 0 0 4 0;
#X connect 1 0 4 0;
#X connect 2 0 5 0;
#X connect 3 0 5 0;
#X connect 4 0 34 0;
#X connect 5 0 33 0;
#X connect 6 0 36 0;
#X connect 7 0 35 0;
#X connect 8 0 6 0;
#X connect 9 0 6 0;
#X connect 10 0 7 0;
#X connect 11 0 7 0;
#X connect 12 0 1 0;
#X connect 12 1 0 0;
#X connect 13 0 3 0;
#X connect 13 1 2 0;
#X connect 14 0 9 0;
#X connect 14 1 8 0;
#X connect 15 0 11 0;
#X connect 15 1 10 0;
#X connect 16 0 28 0;
#X connect 17 0 28 0;
#X connect 18 0 29 0;
#X connect 19 0 29 0;
#X connect 20 0 30 0;
#X connect 21 0 30 0;
#X connect 22 0 31 0;
#X connect 23 0 31 0;
#X connect 24 0 17 0;
#X connect 24 1 16 0;
#X connect 25 0 19 0;
#X connect 25 1 18 0;
#X connect 26 0 21 0;
#X connect 26 1 20 0;
#X connect 27 0 23 0;
#X connect 27 1 22 0;
#X connect 28 0 38 0;
#X connect 29 0 37 0;
#X connect 30 0 40 0;
#X connect 31 0 39 0;
#X connect 32 0 12 0;
#X connect 32 0 13 0;
#X connect 32 0 14 0;
#X connect 32 0 15 0;
#X connect 32 0 24 0;
#X connect 32 0 25 0;
#X connect 32 0 26 0;
#X connect 32 0 27 0;
#X restore 956 48 pd selector8toggles;
#X obj 956 25 inlet;
#X obj 99 52 r tMean;
#X obj 106 72 r tRange;
#X obj 121 115 r lRange;
#X obj 128 135 r spMean;
#X obj 136 154 r spRange;
#X obj 145 173 r stMean;
#X obj 114 94 r lMean;
#X obj 150 192 r stRange;
#X obj 158 210 r volMean;
#X obj 165 229 r volRange;
#X obj 173 248 r panning;
#X obj 182 266 r octaveLock;
#X obj 102 28 tgl 15 0 empty empty empty 17 7 0 10 #fcfcfc #000000 #000000 0 1;
#X obj 275 51 r tMean;
#X obj 282 71 r tRange;
#X obj 297 114 r lRange;
#X obj 304 134 r spMean;
#X obj 312 153 r spRange;
#X obj 321 172 r stMean;
#X obj 290 93 r lMean;
#X obj 326 191 r stRange;
#X obj 334 209 r volMean;
#X obj 341 228 r volRange;
#X obj 349 247 r panning;
#X obj 358 265 r octaveLock;
#X obj 278 27 tgl 15 0 empty empty empty 17 7 0 10 #fcfcfc #000000 #000000 0 1;
#X obj 439 54 r tMean;
#X obj 446 74 r tRange;
#X obj 461 117 r lRange;
#X obj 468 137 r spMean;
#X obj 476 156 r spRange;
#X obj 485 175 r stMean;
#X obj 454 96 r lMean;
#X obj 490 194 r stRange;
#X obj 498 212 r volMean;
#X obj 505 231 r volRange;
#X obj 513 250 r panning;
#X obj 522 268 r octaveLock;
#X obj 442 30 tgl 15 0 empty empty empty 17 7 0 10 #fcfcfc #000000 #000000 0 1;
#X obj 615 53 r tMean;
#X obj 622 73 r tRange;
#X obj 637 116 r lRange;
#X obj 644 136 r spMean;
#X obj 652 155 r spRange;
#X obj 661 174 r stMean;
#X obj 630 95 r lMean;
#X obj 666 193 r stRange;
#X obj 674 211 r volMean;
#X obj 681 230 r volRange;
#X obj 689 249 r panning;
#X obj 698 267 r octaveLock;
#X obj 618 29 tgl 15 0 empty empty empty 17 7 0 10 #fcfcfc #000000 #000000 0 1;
#X obj 443 341 r tMean;
#X obj 450 361 r tRange;
#X obj 465 404 r lRange;
#X obj 472 424 r spMean;
#X obj 480 443 r spRange;
#X obj 489 462 r stMean;
#X obj 458 383 r lMean;
#X obj 494 481 r stRange;
#X obj 502 499 r volMean;
#X obj 509 518 r volRange;
#X obj 517 537 r panning;
#X obj 526 555 r octaveLock;
#X obj 446 317 tgl 15 0 empty empty empty 17 7 0 10 #fcfcfc #000000 #000000 0 1;
#X obj 619 340 r tMean;
#X obj 626 360 r tRange;
#X obj 641 403 r lRange;
#X obj 648 423 r spMean;
#X obj 656 442 r spRange;
#X obj 665 461 r stMean;
#X obj 634 382 r lMean;
#X obj 670 480 r stRange;
#X obj 678 498 r volMean;
#X obj 685 517 r volRange;
#X obj 693 536 r panning;
#X obj 702 554 r octaveLock;
#X obj 622 316 tgl 15 0 empty empty empty 17 7 0 10 #fcfcfc #000000 #000000 0 1;
#X obj 783 343 r tMean;
#X obj 790 363 r tRange;
#X obj 805 406 r lRange;
#X obj 812 426 r spMean;
#X obj 820 445 r spRange;
#X obj 829 464 r stMean;
#X obj 798 385 r lMean;
#X obj 834 483 r stRange;
#X obj 842 501 r volMean;
#X obj 849 520 r volRange;
#X obj 857 539 r panning;
#X obj 866 557 r octaveLock;
#X obj 786 319 tgl 15 0 empty empty empty 17 7 0 10 #fcfcfc #000000 #000000 0 1;
#X obj 959 342 r tMean;
#X obj 966 362 r tRange;
#X obj 981 405 r lRange;
#X obj 988 425 r spMean;
#X obj 996 444 r spRange;
#X obj 1005 463 r stMean;
#X obj 974 384 r lMean;
#X obj 1010 482 r stRange;
#X obj 1018 500 r volMean;
#X obj 1025 519 r volRange;
#X obj 1033 538 r panning;
#X obj 1042 556 r octaveLock;
#X obj 962 318 tgl 15 0 empty empty empty 17 7 0 10 #fcfcfc #000000 #000000 0 1;
#X obj 421 645 outlet~;
#X obj 352 646 outlet~;
#X obj 102 287 anOnlineGrain;
#X obj 278 286 anOnlineGrain;
#X obj 442 289 anOnlineGrain;
#X obj 618 288 anOnlineGrain;
#X obj 446 576 anOnlineGrain;
#X obj 622 575 anOnlineGrain;
#X obj 786 578 anOnlineGrain;
#X obj 962 577 anOnlineGrain;
#X connect 0 0 14 0;
#X connect 0 1 27 0;
#X connect 0 2 40 0;
#X connect 0 3 53 0;
#X connect 0 4 66 0;
#X connect 0 5 79 0;
#X connect 0 6 92 0;
#X connect 0 7 105 0;
#X connect 1 0 0 0;
#X connect 2 0 108 1;
#X connect 3 0 108 2;
#X connect 4 0 108 4;
#X connect 5 0 108 5;
#X connect 6 0 108 6;
#X connect 7 0 108 7;
#X connect 8 0 108 3;
#X connect 9 0 108 8;
#X connect 10 0 108 9;
#X connect 11 0 108 10;
#X connect 12 0 108 11;
#X connect 13 0 108 12;
#X connect 14 0 108 0;
#X connect 15 0 109 1;
#X connect 16 0 109 2;
#X connect 17 0 109 4;
#X connect 18 0 109 5;
#X connect 19 0 109 6;
#X connect 20 0 109 7;
#X connect 21 0 109 3;
#X connect 22 0 109 8;
#X connect 23 0 109 9;
#X connect 24 0 109 10;
#X connect 25 0 109 11;
#X connect 26 0 109 12;
#X connect 27 0 109 0;
#X connect 28 0 110 1;
#X connect 29 0 110 2;
#X connect 30 0 110 4;
#X connect 31 0 110 5;
#X connect 32 0 110 6;
#X connect 33 0 110 7;
#X connect 34 0 110 3;
#X connect 35 0 110 8;
#X connect 36 0 110 9;
#X connect 37 0 110 10;
#X connect 38 0 110 11;
#X connect 39 0 110 12;
#X connect 40 0 110 0;
#X connect 41 0 111 1;
#X connect 42 0 111 2;
#X connect 43 0 111 4;
#X connect 44 0 111 5;
#X connect 45 0 111 6;
#X connect 46 0 111 7;
#X connect 47 0 111 3;
#X connect 48 0 111 8;
#X connect 49 0 111 9;
#X connect 50 0 111 10;
#X connect 51 0 111 11;
#X connect 52 0 111 12;
#X connect 53 0 111 0;
#X connect 54 0 112 1;
#X connect 55 0 112 2;
#X connect 56 0 112 4;
#X connect 57 0 112 5;
#X connect 58 0 112 6;
#X connect 59 0 112 7;
#X connect 60 0 112 3;
#X connect 61 0 112 8;
#X connect 62 0 112 9;
#X connect 63 0 112 10;
#X connect 64 0 112 11;
#X connect 65 0 112 12;
#X connect 66 0 112 0;
#X connect 67 0 113 1;
#X connect 68 0 113 2;
#X connect 69 0 113 4;
#X connect 70 0 113 5;
#X connect 71 0 113 6;
#X connect 72 0 113 7;
#X connect 73 0 113 3;
#X connect 74 0 113 8;
#X connect 75 0 113 9;
#X connect 76 0 113 10;
#X connect 77 0 113 11;
#X connect 78 0 113 12;
#X connect 79 0 113 0;
#X connect 80 0 114 1;
#X connect 81 0 114 2;
#X connect 82 0 114 4;
#X connect 83 0 114 5;
#X connect 84 0 114 6;
#X connect 85 0 114 7;
#X connect 86 0 114 3;
#X connect 87 0 114 8;
#X connect 88 0 114 9;
#X connect 89 0 114 10;
#X connect 90 0 114 11;
#X connect 91 0 114 12;
#X connect 92 0 114 0;
#X connect 93 0 115 1;
#X connect 94 0 115 2;
#X connect 95 0 115 4;
#X connect 96 0 115 5;
#X connect 97 0 115 6;
#X connect 98 0 115 7;
#X connect 99 0 115 3;
#X connect 100 0 115 8;
#X connect 101 0 115 9;
#X connect 102 0 115 10;
#X connect 103 0 115 11;
#X connect 104 0 115 12;
#X connect 105 0 115 0;
#X connect 108 0 107 0;
#X connect 108 1 106 0;
#X connect 109 0 107 0;
#X connect 109 1 106 0;
#X connect 110 0 107 0;
#X connect 110 1 106 0;
#X connect 111 0 107 0;
#X connect 111 1 106 0;
#X connect 112 0 107 0;
#X connect 112 1 106 0;
#X connect 113 0 107 0;
#X connect 113 1 106 0;
#X connect 114 0 107 0;
#X connect 114 1 106 0;
#X connect 115 0 107 0;
#X connect 115 1 106 0;
#X restore 504 326 pd online8grains;
#X obj 504 281 r grainsNum;
#N canvas 0 23 1258 676 online8grains 0;
#N canvas 0 22 1020 608 selector8toggles 0;
#X msg 200 147 1;
#X msg 161 147 0;
#X msg 240 192 1;
#X msg 201 192 0;
#X obj 161 340 tgl 15 0 empty empty empty 17 7 0 10 #fcfcfc #000000 #000000 0 1;
#X obj 184 340 tgl 15 0 empty empty empty 17 7 0 10 #fcfcfc #000000 #000000 0 1;
#X obj 206 340 tgl 15 0 empty empty empty 17 7 0 10 #fcfcfc #000000 #000000 0 1;
#X obj 229 340 tgl 15 0 empty empty empty 17 7 0 10 #fcfcfc #000000 #000000 0 1;
#X msg 280 238 1;
#X msg 241 238 0;
#X msg 321 286 1;
#X msg 282 286 0;
#X obj 161 125 moses 1;
#X obj 201 170 moses 2;
#X obj 241 216 moses 3;
#X obj 282 264 moses 4;
#X msg 290 149 1;
#X msg 251 149 0;
#X msg 330 194 1;
#X msg 291 194 0;
#X msg 370 240 1;
#X msg 331 240 0;
#X msg 411 288 1;
#X msg 372 288 0;
#X obj 251 127 moses 5;
#X obj 291 172 moses 6;
#X obj 331 218 moses 7;
#X obj 372 266 moses 8;
#X obj 260 340 tgl 15 0 empty empty empty 17 7 0 10 #fcfcfc #000000 #000000 0 1;
#X obj 283 340 tgl 15 0 empty empty empty 17 7 0 10 #fcfcfc #000000 #000000 0 1;
#X obj 305 340 tgl 15 0 empty empty empty 17 7 0 10 #fcfcfc #000000 #000000 0 1;
#X obj 328 340 tgl 15 0 empty empty empty 17 7 0 10 #fcfcfc #000000 #000000 0 1;
#X obj 295 95 inlet;
#X obj 184 385 outlet;
#X obj 161 362 outlet;
#X obj 229 383 outlet;
#X obj 206 360 outlet;
#X obj 283 384 outlet;
#X obj 260 361 outlet;
#X obj 328 382 outlet;
#X obj 305 359 outlet;
#X connect 0 0 4 0;
#X connect 1 0 4 0;
#X connect 2 0 5 0;
#X connect 3 0 5 0;
#X connect 4 0 34 0;
#X connect 5 0 33 0;
#X connect 6 0 36 0;
#X connect 7 0 35 0;
#X connect 8 0 6 0;
#X connect 9 0 6 0;
#X connect 10 0 7 0;
#X connect 11 0 7 0;
#X connect 12 0 1 0;
#X connect 12 1 0 0;
#X connect 13 0 3 0;
#X connect 13 1 2 0;
#X connect 14 0 9 0;
#X connect 14 1 8 0;
#X connect 15 0 11 0;
#X connect 15 1 10 0;
#X connect 16 0 28 0;
#X connect 17 0 28 0;
#X connect 18 0 29 0;
#X connect 19 0 29 0;
#X connect 20 0 30 0;
#X connect 21 0 30 0;
#X connect 22 0 31 0;
#X connect 23 0 31 0;
#X connect 24 0 17 0;
#X connect 24 1 16 0;
#X connect 25 0 19 0;
#X connect 25 1 18 0;
#X connect 26 0 21 0;
#X connect 26 1 20 0;
#X connect 27 0 23 0;
#X connect 27 1 22 0;
#X connect 28 0 38 0;
#X connect 29 0 37 0;
#X connect 30 0 40 0;
#X connect 31 0 39 0;
#X connect 32 0 12 0;
#X connect 32 0 13 0;
#X connect 32 0 14 0;
#X connect 32 0 15 0;
#X connect 32 0 24 0;
#X connect 32 0 25 0;
#X connect 32 0 26 0;
#X connect 32 0 27 0;
#X restore 956 48 pd selector8toggles;
#X obj 956 25 inlet;
#X obj 99 52 r tMean;
#X obj 106 72 r tRange;
#X obj 121 115 r lRange;
#X obj 128 135 r spMean;
#X obj 136 154 r spRange;
#X obj 145 173 r stMean;
#X obj 114 94 r lMean;
#X obj 150 192 r stRange;
#X obj 158 210 r volMean;
#X obj 165 229 r volRange;
#X obj 173 248 r panning;
#X obj 182 266 r octaveLock;
#X obj 102 28 tgl 15 0 empty empty empty 17 7 0 10 #fcfcfc #000000 #000000 0 1;
#X obj 275 51 r tMean;
#X obj 282 71 r tRange;
#X obj 297 114 r lRange;
#X obj 304 134 r spMean;
#X obj 312 153 r spRange;
#X obj 321 172 r stMean;
#X obj 290 93 r lMean;
#X obj 326 191 r stRange;
#X obj 334 209 r volMean;
#X obj 341 228 r volRange;
#X obj 349 247 r panning;
#X obj 358 265 r octaveLock;
#X obj 278 27 tgl 15 0 empty empty empty 17 7 0 10 #fcfcfc #000000 #000000 0 1;
#X obj 439 54 r tMean;
#X obj 446 74 r tRange;
#X obj 461 117 r lRange;
#X obj 468 137 r spMean;
#X obj 476 156 r spRange;
#X obj 485 175 r stMean;
#X obj 454 96 r lMean;
#X obj 490 194 r stRange;
#X obj 498 212 r volMean;
#X obj 505 231 r volRange;
#X obj 513 250 r panning;
#X obj 522 268 r octaveLock;
#X obj 442 30 tgl 15 0 empty empty empty 17 7 0 10 #fcfcfc #000000 #000000 0 1;
#X obj 615 53 r tMean;
#X obj 622 73 r tRange;
#X obj 637 116 r lRange;
#X obj 644 136 r spMean;
#X obj 652 155 r spRange;
#X obj 661 174 r stMean;
#X obj 630 95 r lMean;
#X obj 666 193 r stRange;
#X obj 674 211 r volMean;
#X obj 681 230 r volRange;
#X obj 689 249 r panning;
#X obj 698 267 r octaveLock;
#X obj 618 29 tgl 15 0 empty empty empty 17 7 0 10 #fcfcfc #000000 #000000 0 1;
#X obj 443 341 r tMean;
#X obj 450 361 r tRange;
#X obj 465 404 r lRange;
#X obj 472 424 r spMean;
#X obj 480 443 r spRange;
#X obj 489 462 r stMean;
#X obj 458 383 r lMean;
#X obj 494 481 r stRange;
#X obj 502 499 r volMean;
#X obj 509 518 r volRange;
#X obj 517 537 r panning;
#X obj 526 555 r octaveLock;
#X obj 446 317 tgl 15 0 empty empty empty 17 7 0 10 #fcfcfc #000000 #000000 0 1;
#X obj 619 340 r tMean;
#X obj 626 360 r tRange;
#X obj 641 403 r lRange;
#X obj 648 423 r spMean;
#X obj 656 442 r spRange;
#X obj 665 461 r stMean;
#X obj 634 382 r lMean;
#X obj 670 480 r stRange;
#X obj 678 498 r volMean;
#X obj 685 517 r volRange;
#X obj 693 536 r panning;
#X obj 702 554 r octaveLock;
#X obj 622 316 tgl 15 0 empty empty empty 17 7 0 10 #fcfcfc #000000 #000000 0 1;
#X obj 783 343 r tMean;
#X obj 790 363 r tRange;
#X obj 805 406 r lRange;
#X obj 812 426 r spMean;
#X obj 820 445 r spRange;
#X obj 829 464 r stMean;
#X obj 798 385 r lMean;
#X obj 834 483 r stRange;
#X obj 842 501 r volMean;
#X obj 849 520 r volRange;
#X obj 857 539 r panning;
#X obj 866 557 r octaveLock;
#X obj 786 319 tgl 15 0 empty empty empty 17 7 0 10 #fcfcfc #000000 #000000 0 1;
#X obj 959 342 r tMean;
#X obj 966 362 r tRange;
#X obj 981 405 r lRange;
#X obj 988 425 r spMean;
#X obj 996 444 r spRange;
#X obj 1005 463 r stMean;
#X obj 974 384 r lMean;
#X obj 1010 482 r stRange;
#X obj 1018 500 r volMean;
#X obj 1025 519 r volRange;
#X obj 1033 538 r panning;
#X obj 1042 556 r octaveLock;
#X obj 962 318 tgl 15 0 empty empty empty 17 7 0 10 #fcfcfc #000000 #000000 0 1;
#X obj 421 645 outlet~;
#X obj 352 646 outlet~;
#X obj 102 287 anOnlineGrain;
#X obj 278 286 anOnlineGrain;
#X obj 442 289 anOnlineGrain;
#X obj 618 288 anOnlineGrain;
#X obj 446 576 anOnlineGrain;
#X obj 622 575 anOnlineGrain;
#X obj 786 578 anOnlineGrain;
#X obj 962 577 anOnlineGrain;
#X connect 0 0 14 0;
#X connect 0 1 27 0;
#X connect 0 2 40 0;
#X connect 0 3 53 0;
#X connect 0 4 66 0;
#X connect 0 5 79 0;
#X connect 0 6 92 0;
#X connect 0 7 105 0;
#X connect 1 0 0 0;
#X connect 2 0 108 1;
#X connect 3 0 108 2;
#X connect 4 0 108 4;
#X connect 5 0 108 5;
#X connect 6 0 108 6;
#X connect 7 0 108 7;
#X connect 8 0 108 3;
#X connect 9 0 108 8;
#X connect 10 0 108 9;
#X connect 11 0 108 10;
#X connect 12 0 108 11;
#X connect 13 0 108 12;
#X connect 14 0 108 0;
#X connect 15 0 109 1;
#X connect 16 0 109 2;
#X connect 17 0 109 4;
#X connect 18 0 109 5;
#X connect 19 0 109 6;
#X connect 20 0 109 7;
#X connect 21 0 109 3;
#X connect 22 0 109 8;
#X connect 23 0 109 9;
#X connect 24 0 109 10;
#X connect 25 0 109 11;
#X connect 26 0 109 12;
#X connect 27 0 109 0;
#X connect 28 0 110 1;
#X connect 29 0 110 2;
#X connect 30 0 110 4;
#X connect 31 0 110 5;
#X connect 32 0 110 6;
#X connect 33 0 110 7;
#X connect 34 0 110 3;
#X connect 35 0 110 8;
#X connect 36 0 110 9;
#X connect 37 0 110 10;
#X connect 38 0 110 11;
#X connect 39 0 110 12;
#X connect 40 0 110 0;
#X connect 41 0 111 1;
#X connect 42 0 111 2;
#X connect 43 0 111 4;
#X connect 44 0 111 5;
#X connect 45 0 111 6;
#X connect 46 0 111 7;
#X connect 47 0 111 3;
#X connect 48 0 111 8;
#X connect 49 0 111 9;
#X connect 50 0 111 10;
#X connect 51 0 111 11;
#X connect 52 0 111 12;
#X connect 53 0 111 0;
#X connect 54 0 112 1;
#X connect 55 0 112 2;
#X connect 56 0 112 4;
#X connect 57 0 112 5;
#X connect 58 0 112 6;
#X connect 59 0 112 7;
#X connect 60 0 112 3;
#X connect 61 0 112 8;
#X connect 62 0 112 9;
#X connect 63 0 112 10;
#X connect 64 0 112 11;
#X connect 65 0 112 12;
#X connect 66 0 112 0;
#X connect 67 0 113 1;
#X connect 68 0 113 2;
#X connect 69 0 113 4;
#X connect 70 0 113 5;
#X connect 71 0 113 6;
#X connect 72 0 113 7;
#X connect 73 0 113 3;
#X connect 74 0 113 8;
#X connect 75 0 113 9;
#X connect 76 0 113 10;
#X connect 77 0 113 11;
#X connect 78 0 113 12;
#X connect 79 0 113 0;
#X connect 80 0 114 1;
#X connect 81 0 114 2;
#X connect 82 0 114 4;
#X connect 83 0 114 5;
#X connect 84 0 114 6;
#X connect 85 0 114 7;
#X connect 86 0 114 3;
#X connect 87 0 114 8;
#X connect 88 0 114 9;
#X connect 89 0 114 10;
#X connect 90 0 114 11;
#X connect 91 0 114 12;
#X connect 92 0 114 0;
#X connect 93 0 115 1;
#X connect 94 0 115 2;
#X connect 95 0 115 4;
#X connect 96 0 115 5;
#X connect 97 0 115 6;
#X connect 98 0 115 7;
#X connect 99 0 115 3;
#X connect 100 0 115 8;
#X connect 101 0 115 9;
#X connect 102 0 115 10;
#X connect 103 0 115 11;
#X connect 104 0 115 12;
#X connect 105 0 115 0;
#X connect 108 0 107 0;
#X connect 108 1 106 0;
#X connect 109 0 107 0;
#X connect 109 1 106 0;
#X connect 110 0 107 0;
#X connect 110 1 106 0;
#X connect 111 0 107 0;
#X connect 111 1 106 0;
#X connect 112 0 107 0;
#X connect 112 1 106 0;
#X connect 113 0 107 0;
#X connect 113 1 106 0;
#X connect 114 0 107 0;
#X connect 114 1 106 0;
#X connect 115 0 107 0;
#X connect 115 1 106 0;
#X restore 618 325 pd online8grains;
#X obj 618 280 r grainsNum;
#N canvas 0 23 1258 676 online8grains 0;
#N canvas 0 22 1020 608 selector8toggles 0;
#X msg 200 147 1;
#X msg 161 147 0;
#X msg 240 192 1;
#X msg 201 192 0;
#X obj 161 340 tgl 15 0 empty empty empty 17 7 0 10 #fcfcfc #000000 #000000 0 1;
#X obj 184 340 tgl 15 0 empty empty empty 17 7 0 10 #fcfcfc #000000 #000000 0 1;
#X obj 206 340 tgl 15 0 empty empty empty 17 7 0 10 #fcfcfc #000000 #000000 0 1;
#X obj 229 340 tgl 15 0 empty empty empty 17 7 0 10 #fcfcfc #000000 #000000 0 1;
#X msg 280 238 1;
#X msg 241 238 0;
#X msg 321 286 1;
#X msg 282 286 0;
#X obj 161 125 moses 1;
#X obj 201 170 moses 2;
#X obj 241 216 moses 3;
#X obj 282 264 moses 4;
#X msg 290 149 1;
#X msg 251 149 0;
#X msg 330 194 1;
#X msg 291 194 0;
#X msg 370 240 1;
#X msg 331 240 0;
#X msg 411 288 1;
#X msg 372 288 0;
#X obj 251 127 moses 5;
#X obj 291 172 moses 6;
#X obj 331 218 moses 7;
#X obj 372 266 moses 8;
#X obj 260 340 tgl 15 0 empty empty empty 17 7 0 10 #fcfcfc #000000 #000000 0 1;
#X obj 283 340 tgl 15 0 empty empty empty 17 7 0 10 #fcfcfc #000000 #000000 0 1;
#X obj 305 340 tgl 15 0 empty empty empty 17 7 0 10 #fcfcfc #000000 #000000 0 1;
#X obj 328 340 tgl 15 0 empty empty empty 17 7 0 10 #fcfcfc #000000 #000000 0 1;
#X obj 295 95 inlet;
#X obj 184 385 outlet;
#X obj 161 362 outlet;
#X obj 229 383 outlet;
#X obj 206 360 outlet;
#X obj 283 384 outlet;
#X obj 260 361 outlet;
#X obj 328 382 outlet;
#X obj 305 359 outlet;
#X connect 0 0 4 0;
#X connect 1 0 4 0;
#X connect 2 0 5 0;
#X connect 3 0 5 0;
#X connect 4 0 34 0;
#X connect 5 0 33 0;
#X connect 6 0 36 0;
#X connect 7 0 35 0;
#X connect 8 0 6 0;
#X connect 9 0 6 0;
#X connect 10 0 7 0;
#X connect 11 0 7 0;
#X connect 12 0 1 0;
#X connect 12 1 0 0;
#X connect 13 0 3 0;
#X connect 13 1 2 0;
#X connect 14 0 9 0;
#X connect 14 1 8 0;
#X connect 15 0 11 0;
#X connect 15 1 10 0;
#X connect 16 0 28 0;
#X connect 17 0 28 0;
#X connect 18 0 29 0;
#X connect 19 0 29 0;
#X connect 20 0 30 0;
#X connect 21 0 30 0;
#X connect 22 0 31 0;
#X connect 23 0 31 0;
#X connect 24 0 17 0;
#X connect 24 1 16 0;
#X connect 25 0 19 0;
#X connect 25 1 18 0;
#X connect 26 0 21 0;
#X connect 26 1 20 0;
#X connect 27 0 23 0;
#X connect 27 1 22 0;
#X connect 28 0 38 0;
#X connect 29 0 37 0;
#X connect 30 0 40 0;
#X connect 31 0 39 0;
#X connect 32 0 12 0;
#X connect 32 0 13 0;
#X connect 32 0 14 0;
#X connect 32 0 15 0;
#X connect 32 0 24 0;
#X connect 32 0 25 0;
#X connect 32 0 26 0;
#X connect 32 0 27 0;
#X restore 956 48 pd selector8toggles;
#X obj 956 25 inlet;
#X obj 99 52 r tMean;
#X obj 106 72 r tRange;
#X obj 121 115 r lRange;
#X obj 128 135 r spMean;
#X obj 136 154 r spRange;
#X obj 145 173 r stMean;
#X obj 114 94 r lMean;
#X obj 150 192 r stRange;
#X obj 158 210 r volMean;
#X obj 165 229 r volRange;
#X obj 173 248 r panning;
#X obj 182 266 r octaveLock;
#X obj 102 28 tgl 15 0 empty empty empty 17 7 0 10 #fcfcfc #000000 #000000 0 1;
#X obj 275 51 r tMean;
#X obj 282 71 r tRange;
#X obj 297 114 r lRange;
#X obj 304 134 r spMean;
#X obj 312 153 r spRange;
#X obj 321 172 r stMean;
#X obj 290 93 r lMean;
#X obj 326 191 r stRange;
#X obj 334 209 r volMean;
#X obj 341 228 r volRange;
#X obj 349 247 r panning;
#X obj 358 265 r octaveLock;
#X obj 278 27 tgl 15 0 empty empty empty 17 7 0 10 #fcfcfc #000000 #000000 0 1;
#X obj 439 54 r tMean;
#X obj 446 74 r tRange;
#X obj 461 117 r lRange;
#X obj 468 137 r spMean;
#X obj 476 156 r spRange;
#X obj 485 175 r stMean;
#X obj 454 96 r lMean;
#X obj 490 194 r stRange;
#X obj 498 212 r volMean;
#X obj 505 231 r volRange;
#X obj 513 250 r panning;
#X obj 522 268 r octaveLock;
#X obj 442 30 tgl 15 0 empty empty empty 17 7 0 10 #fcfcfc #000000 #000000 0 1;
#X obj 615 53 r tMean;
#X obj 622 73 r tRange;
#X obj 637 116 r lRange;
#X obj 644 136 r spMean;
#X obj 652 155 r spRange;
#X obj 661 174 r stMean;
#X obj 630 95 r lMean;
#X obj 666 193 r stRange;
#X obj 674 211 r volMean;
#X obj 681 230 r volRange;
#X obj 689 249 r panning;
#X obj 698 267 r octaveLock;
#X obj 618 29 tgl 15 0 empty empty empty 17 7 0 10 #fcfcfc #000000 #000000 0 1;
#X obj 443 341 r tMean;
#X obj 450 361 r tRange;
#X obj 465 404 r lRange;
#X obj 472 424 r spMean;
#X obj 480 443 r spRange;
#X obj 489 462 r stMean;
#X obj 458 383 r lMean;
#X obj 494 481 r stRange;
#X obj 502 499 r volMean;
#X obj 509 518 r volRange;
#X obj 517 537 r panning;
#X obj 526 555 r octaveLock;
#X obj 446 317 tgl 15 0 empty empty empty 17 7 0 10 #fcfcfc #000000 #000000 0 1;
#X obj 619 340 r tMean;
#X obj 626 360 r tRange;
#X obj 641 403 r lRange;
#X obj 648 423 r spMean;
#X obj 656 442 r spRange;
#X obj 665 461 r stMean;
#X obj 634 382 r lMean;
#X obj 670 480 r stRange;
#X obj 678 498 r volMean;
#X obj 685 517 r volRange;
#X obj 693 536 r panning;
#X obj 702 554 r octaveLock;
#X obj 622 316 tgl 15 0 empty empty empty 17 7 0 10 #fcfcfc #000000 #000000 0 1;
#X obj 783 343 r tMean;
#X obj 790 363 r tRange;
#X obj 805 406 r lRange;
#X obj 812 426 r spMean;
#X obj 820 445 r spRange;
#X obj 829 464 r stMean;
#X obj 798 385 r lMean;
#X obj 834 483 r stRange;
#X obj 842 501 r volMean;
#X obj 849 520 r volRange;
#X obj 857 539 r panning;
#X obj 866 557 r octaveLock;
#X obj 786 319 tgl 15 0 empty empty empty 17 7 0 10 #fcfcfc #000000 #000000 0 1;
#X obj 959 342 r tMean;
#X obj 966 362 r tRange;
#X obj 981 405 r lRange;
#X obj 988 425 r spMean;
#X obj 996 444 r spRange;
#X obj 1005 463 r stMean;
#X obj 974 384 r lMean;
#X obj 1010 482 r stRange;
#X obj 1018 500 r volMean;
#X obj 1025 519 r volRange;
#X obj 1033 538 r panning;
#X obj 1042 556 r octaveLock;
#X obj 962 318 tgl 15 0 empty empty empty 17 7 0 10 #fcfcfc #000000 #000000 0 1;
#X obj 421 645 outlet~;
#X obj 352 646 outlet~;
#X obj 102 287 anOnlineGrain;
#X obj 278 286 anOnlineGrain;
#X obj 442 289 anOnlineGrain;
#X obj 618 288 anOnlineGrain;
#X obj 446 576 anOnlineGrain;
#X obj 622 575 anOnlineGrain;
#X obj 786 578 anOnlineGrain;
#X obj 962 577 anOnlineGrain;
#X connect 0 0 14 0;
#X connect 0 1 27 0;
#X connect 0 2 40 0;
#X connect 0 3 53 0;
#X connect 0 4 66 0;
#X connect 0 5 79 0;
#X connect 0 6 92 0;
#X connect 0 7 105 0;
#X connect 1 0 0 0;
#X connect 2 0 108 1;
#X connect 3 0 108 2;
#X connect 4 0 108 4;
#X connect 5 0 108 5;
#X connect 6 0 108 6;
#X connect 7 0 108 7;
#X connect 8 0 108 3;
#X connect 9 0 108 8;
#X connect 10 0 108 9;
#X connect 11 0 108 10;
#X connect 12 0 108 11;
#X connect 13 0 108 12;
#X connect 14 0 108 0;
#X connect 15 0 109 1;
#X connect 16 0 109 2;
#X connect 17 0 109 4;
#X connect 18 0 109 5;
#X connect 19 0 109 6;
#X connect 20 0 109 7;
#X connect 21 0 109 3;
#X connect 22 0 109 8;
#X connect 23 0 109 9;
#X connect 24 0 109 10;
#X connect 25 0 109 11;
#X connect 26 0 109 12;
#X connect 27 0 109 0;
#X connect 28 0 110 1;
#X connect 29 0 110 2;
#X connect 30 0 110 4;
#X connect 31 0 110 5;
#X connect 32 0 110 6;
#X connect 33 0 110 7;
#X connect 34 0 110 3;
#X connect 35 0 110 8;
#X connect 36 0 110 9;
#X connect 37 0 110 10;
#X connect 38 0 110 11;
#X connect 39 0 110 12;
#X connect 40 0 110 0;
#X connect 41 0 111 1;
#X connect 42 0 111 2;
#X connect 43 0 111 4;
#X connect 44 0 111 5;
#X connect 45 0 111 6;
#X connect 46 0 111 7;
#X connect 47 0 111 3;
#X connect 48 0 111 8;
#X connect 49 0 111 9;
#X connect 50 0 111 10;
#X connect 51 0 111 11;
#X connect 52 0 111 12;
#X connect 53 0 111 0;
#X connect 54 0 112 1;
#X connect 55 0 112 2;
#X connect 56 0 112 4;
#X connect 57 0 112 5;
#X connect 58 0 112 6;
#X connect 59 0 112 7;
#X connect 60 0 112 3;
#X connect 61 0 112 8;
#X connect 62 0 112 9;
#X connect 63 0 112 10;
#X connect 64 0 112 11;
#X connect 65 0 112 12;
#X connect 66 0 112 0;
#X connect 67 0 113 1;
#X connect 68 0 113 2;
#X connect 69 0 113 4;
#X connect 70 0 113 5;
#X connect 71 0 113 6;
#X connect 72 0 113 7;
#X connect 73 0 113 3;
#X connect 74 0 113 8;
#X connect 75 0 113 9;
#X connect 76 0 113 10;
#X connect 77 0 113 11;
#X connect 78 0 113 12;
#X connect 79 0 113 0;
#X connect 80 0 114 1;
#X connect 81 0 114 2;
#X connect 82 0 114 4;
#X connect 83 0 114 5;
#X connect 84 0 114 6;
#X connect 85 0 114 7;
#X connect 86 0 114 3;
#X connect 87 0 114 8;
#X connect 88 0 114 9;
#X connect 89 0 114 10;
#X connect 90 0 114 11;
#X connect 91 0 114 12;
#X connect 92 0 114 0;
#X connect 93 0 115 1;
#X connect 94 0 115 2;
#X connect 95 0 115 4;
#X connect 96 0 115 5;
#X connect 97 0 115 6;
#X connect 98 0 115 7;
#X connect 99 0 115 3;
#X connect 100 0 115 8;
#X connect 101 0 115 9;
#X connect 102 0 115 10;
#X connect 103 0 115 11;
#X connect 104 0 115 12;
#X connect 105 0 115 0;
#X connect 108 0 107 0;
#X connect 108 1 106 0;
#X connect 109 0 107 0;
#X connect 109 1 106 0;
#X connect 110 0 107 0;
#X connect 110 1 106 0;
#X connect 111 0 107 0;
#X connect 111 1 106 0;
#X connect 112 0 107 0;
#X connect 112 1 106 0;
#X connect 113 0 107 0;
#X connect 113 1 106 0;
#X connect 114 0 107 0;
#X connect 114 1 106 0;
#X connect 115 0 107 0;
#X connect 115 1 106 0;
#X restore 426 407 pd online8grains;
#X obj 426 362 r grainsNum;
#N canvas 0 23 1258 676 online8grains 0;
#N canvas 0 22 1020 608 selector8toggles 0;
#X msg 200 147 1;
#X msg 161 147 0;
#X msg 240 192 1;
#X msg 201 192 0;
#X obj 161 340 tgl 15 0 empty empty empty 17 7 0 10 #fcfcfc #000000 #000000 0 1;
#X obj 184 340 tgl 15 0 empty empty empty 17 7 0 10 #fcfcfc #000000 #000000 0 1;
#X obj 206 340 tgl 15 0 empty empty empty 17 7 0 10 #fcfcfc #000000 #000000 0 1;
#X obj 229 340 tgl 15 0 empty empty empty 17 7 0 10 #fcfcfc #000000 #000000 0 1;
#X msg 280 238 1;
#X msg 241 238 0;
#X msg 321 286 1;
#X msg 282 286 0;
#X obj 161 125 moses 1;
#X obj 201 170 moses 2;
#X obj 241 216 moses 3;
#X obj 282 264 moses 4;
#X msg 290 149 1;
#X msg 251 149 0;
#X msg 330 194 1;
#X msg 291 194 0;
#X msg 370 240 1;
#X msg 331 240 0;
#X msg 411 288 1;
#X msg 372 288 0;
#X obj 251 127 moses 5;
#X obj 291 172 moses 6;
#X obj 331 218 moses 7;
#X obj 372 266 moses 8;
#X obj 260 340 tgl 15 0 empty empty empty 17 7 0 10 #fcfcfc #000000 #000000 0 1;
#X obj 283 340 tgl 15 0 empty empty empty 17 7 0 10 #fcfcfc #000000 #000000 0 1;
#X obj 305 340 tgl 15 0 empty empty empty 17 7 0 10 #fcfcfc #000000 #000000 0 1;
#X obj 328 340 tgl 15 0 empty empty empty 17 7 0 10 #fcfcfc #000000 #000000 0 1;
#X obj 295 95 inlet;
#X obj 184 385 outlet;
#X obj 161 362 outlet;
#X obj 229 383 outlet;
#X obj 206 360 outlet;
#X obj 283 384 outlet;
#X obj 260 361 outlet;
#X obj 328 382 outlet;
#X obj 305 359 outlet;
#X connect 0 0 4 0;
#X connect 1 0 4 0;
#X connect 2 0 5 0;
#X connect 3 0 5 0;
#X connect 4 0 34 0;
#X connect 5 0 33 0;
#X connect 6 0 36 0;
#X connect 7 0 35 0;
#X connect 8 0 6 0;
#X connect 9 0 6 0;
#X connect 10 0 7 0;
#X connect 11 0 7 0;
#X connect 12 0 1 0;
#X connect 12 1 0 0;
#X connect 13 0 3 0;
#X connect 13 1 2 0;
#X connect 14 0 9 0;
#X connect 14 1 8 0;
#X connect 15 0 11 0;
#X connect 15 1 10 0;
#X connect 16 0 28 0;
#X connect 17 0 28 0;
#X connect 18 0 29 0;
#X connect 19 0 29 0;
#X connect 20 0 30 0;
#X connect 21 0 30 0;
#X connect 22 0 31 0;
#X connect 23 0 31 0;
#X connect 24 0 17 0;
#X connect 24 1 16 0;
#X connect 25 0 19 0;
#X connect 25 1 18 0;
#X connect 26 0 21 0;
#X connect 26 1 20 0;
#X connect 27 0 23 0;
#X connect 27 1 22 0;
#X connect 28 0 38 0;
#X connect 29 0 37 0;
#X connect 30 0 40 0;
#X connect 31 0 39 0;
#X connect 32 0 12 0;
#X connect 32 0 13 0;
#X connect 32 0 14 0;
#X connect 32 0 15 0;
#X connect 32 0 24 0;
#X connect 32 0 25 0;
#X connect 32 0 26 0;
#X connect 32 0 27 0;
#X restore 956 48 pd selector8toggles;
#X obj 956 25 inlet;
#X obj 99 52 r tMean;
#X obj 106 72 r tRange;
#X obj 121 115 r lRange;
#X obj 128 135 r spMean;
#X obj 136 154 r spRange;
#X obj 145 173 r stMean;
#X obj 114 94 r lMean;
#X obj 150 192 r stRange;
#X obj 158 210 r volMean;
#X obj 165 229 r volRange;
#X obj 173 248 r panning;
#X obj 182 266 r octaveLock;
#X obj 102 28 tgl 15 0 empty empty empty 17 7 0 10 #fcfcfc #000000 #000000 0 1;
#X obj 275 51 r tMean;
#X obj 282 71 r tRange;
#X obj 297 114 r lRange;
#X obj 304 134 r spMean;
#X obj 312 153 r spRange;
#X obj 321 172 r stMean;
#X obj 290 93 r lMean;
#X obj 326 191 r stRange;
#X obj 334 209 r volMean;
#X obj 341 228 r volRange;
#X obj 349 247 r panning;
#X obj 358 265 r octaveLock;
#X obj 278 27 tgl 15 0 empty empty empty 17 7 0 10 #fcfcfc #000000 #000000 0 1;
#X obj 439 54 r tMean;
#X obj 446 74 r tRange;
#X obj 461 117 r lRange;
#X obj 468 137 r spMean;
#X obj 476 156 r spRange;
#X obj 485 175 r stMean;
#X obj 454 96 r lMean;
#X obj 490 194 r stRange;
#X obj 498 212 r volMean;
#X obj 505 231 r volRange;
#X obj 513 250 r panning;
#X obj 522 268 r octaveLock;
#X obj 442 30 tgl 15 0 empty empty empty 17 7 0 10 #fcfcfc #000000 #000000 0 1;
#X obj 615 53 r tMean;
#X obj 622 73 r tRange;
#X obj 637 116 r lRange;
#X obj 644 136 r spMean;
#X obj 652 155 r spRange;
#X obj 661 174 r stMean;
#X obj 630 95 r lMean;
#X obj 666 193 r stRange;
#X obj 674 211 r volMean;
#X obj 681 230 r volRange;
#X obj 689 249 r panning;
#X obj 698 267 r octaveLock;
#X obj 618 29 tgl 15 0 empty empty empty 17 7 0 10 #fcfcfc #000000 #000000 0 1;
#X obj 443 341 r tMean;
#X obj 450 361 r tRange;
#X obj 465 404 r lRange;
#X obj 472 424 r spMean;
#X obj 480 443 r spRange;
#X obj 489 462 r stMean;
#X obj 458 383 r lMean;
#X obj 494 481 r stRange;
#X obj 502 499 r volMean;
#X obj 509 518 r volRange;
#X obj 517 537 r panning;
#X obj 526 555 r octaveLock;
#X obj 446 317 tgl 15 0 empty empty empty 17 7 0 10 #fcfcfc #000000 #000000 0 1;
#X obj 619 340 r tMean;
#X obj 626 360 r tRange;
#X obj 641 403 r lRange;
#X obj 648 423 r spMean;
#X obj 656 442 r spRange;
#X obj 665 461 r stMean;
#X obj 634 382 r lMean;
#X obj 670 480 r stRange;
#X obj 678 498 r volMean;
#X obj 685 517 r volRange;
#X obj 693 536 r panning;
#X obj 702 554 r octaveLock;
#X obj 622 316 tgl 15 0 empty empty empty 17 7 0 10 #fcfcfc #000000 #000000 0 1;
#X obj 783 343 r tMean;
#X obj 790 363 r tRange;
#X obj 805 406 r lRange;
#X obj 812 426 r spMean;
#X obj 820 445 r spRange;
#X obj 829 464 r stMean;
#X obj 798 385 r lMean;
#X obj 834 483 r stRange;
#X obj 842 501 r volMean;
#X obj 849 520 r volRange;
#X obj 857 539 r panning;
#X obj 866 557 r octaveLock;
#X obj 786 319 tgl 15 0 empty empty empty 17 7 0 10 #fcfcfc #000000 #000000 0 1;
#X obj 959 342 r tMean;
#X obj 966 362 r tRange;
#X obj 981 405 r lRange;
#X obj 988 425 r spMean;
#X obj 996 444 r spRange;
#X obj 1005 463 r stMean;
#X obj 974 384 r lMean;
#X obj 1010 482 r stRange;
#X obj 1018 500 r volMean;
#X obj 1025 519 r volRange;
#X obj 1033 538 r panning;
#X obj 1042 556 r octaveLock;
#X obj 962 318 tgl 15 0 empty empty empty 17 7 0 10 #fcfcfc #000000 #000000 0 1;
#X obj 421 645 outlet~;
#X obj 352 646 outlet~;
#X obj 102 287 anOnlineGrain;
#X obj 278 286 anOnlineGrain;
#X obj 442 289 anOnlineGrain;
#X obj 618 288 anOnlineGrain;
#X obj 446 576 anOnlineGrain;
#X obj 622 575 anOnlineGrain;
#X obj 786 578 anOnlineGrain;
#X obj 962 577 anOnlineGrain;
#X connect 0 0 14 0;
#X connect 0 1 27 0;
#X connect 0 2 40 0;
#X connect 0 3 53 0;
#X connect 0 4 66 0;
#X connect 0 5 79 0;
#X connect 0 6 92 0;
#X connect 0 7 105 0;
#X connect 1 0 0 0;
#X connect 2 0 108 1;
#X connect 3 0 108 2;
#X connect 4 0 108 4;
#X connect 5 0 108 5;
#X connect 6 0 108 6;
#X connect 7 0 108 7;
#X connect 8 0 108 3;
#X connect 9 0 108 8;
#X connect 10 0 108 9;
#X connect 11 0 108 10;
#X connect 12 0 108 11;
#X connect 13 0 108 12;
#X connect 14 0 108 0;
#X connect 15 0 109 1;
#X connect 16 0 109 2;
#X connect 17 0 109 4;
#X connect 18 0 109 5;
#X connect 19 0 109 6;
#X connect 20 0 109 7;
#X connect 21 0 109 3;
#X connect 22 0 109 8;
#X connect 23 0 109 9;
#X connect 24 0 109 10;
#X connect 25 0 109 11;
#X connect 26 0 109 12;
#X connect 27 0 109 0;
#X connect 28 0 110 1;
#X connect 29 0 110 2;
#X connect 30 0 110 4;
#X connect 31 0 110 5;
#X connect 32 0 110 6;
#X connect 33 0 110 7;
#X connect 34 0 110 3;
#X connect 35 0 110 8;
#X connect 36 0 110 9;
#X connect 37 0 110 10;
#X connect 38 0 110 11;
#X connect 39 0 110 12;
#X connect 40 0 110 0;
#X connect 41 0 111 1;
#X connect 42 0 111 2;
#X connect 43 0 111 4;
#X connect 44 0 111 5;
#X connect 45 0 111 6;
#X connect 46 0 111 7;
#X connect 47 0 111 3;
#X connect 48 0 111 8;
#X connect 49 0 111 9;
#X connect 50 0 111 10;
#X connect 51 0 111 11;
#X connect 52 0 111 12;
#X connect 53 0 111 0;
#X connect 54 0 112 1;
#X connect 55 0 112 2;
#X connect 56 0 112 4;
#X connect 57 0 112 5;
#X connect 58 0 112 6;
#X connect 59 0 112 7;
#X connect 60 0 112 3;
#X connect 61 0 112 8;
#X connect 62 0 112 9;
#X connect 63 0 112 10;
#X connect 64 0 112 11;
#X connect 65 0 112 12;
#X connect 66 0 112 0;
#X connect 67 0 113 1;
#X connect 68 0 113 2;
#X connect 69 0 113 4;
#X connect 70 0 113 5;
#X connect 71 0 113 6;
#X connect 72 0 113 7;
#X connect 73 0 113 3;
#X connect 74 0 113 8;
#X connect 75 0 113 9;
#X connect 76 0 113 10;
#X connect 77 0 113 11;
#X connect 78 0 113 12;
#X connect 79 0 113 0;
#X connect 80 0 114 1;
#X connect 81 0 114 2;
#X connect 82 0 114 4;
#X connect 83 0 114 5;
#X connect 84 0 114 6;
#X connect 85 0 114 7;
#X connect 86 0 114 3;
#X connect 87 0 114 8;
#X connect 88 0 114 9;
#X connect 89 0 114 10;
#X connect 90 0 114 11;
#X connect 91 0 114 12;
#X connect 92 0 114 0;
#X connect 93 0 115 1;
#X connect 94 0 115 2;
#X connect 95 0 115 4;
#X connect 96 0 115 5;
#X connect 97 0 115 6;
#X connect 98 0 115 7;
#X connect 99 0 115 3;
#X connect 100 0 115 8;
#X connect 101 0 115 9;
#X connect 102 0 115 10;
#X connect 103 0 115 11;
#X connect 104 0 115 12;
#X connect 105 0 115 0;
#X connect 108 0 107 0;
#X connect 108 1 106 0;
#X connect 109 0 107 0;
#X connect 109 1 106 0;
#X connect 110 0 107 0;
#X connect 110 1 106 0;
#X connect 111 0 107 0;
#X connect 111 1 106 0;
#X connect 112 0 107 0;
#X connect 112 1 106 0;
#X connect 113 0 107 0;
#X connect 113 1 106 0;
#X connect 114 0 107 0;
#X connect 114 1 106 0;
#X connect 115 0 107 0;
#X connect 115 1 106 0;
#X restore 540 406 pd online8grains;
#X obj 540 361 r grainsNum;
#X obj 540 383 - 32;
#X obj 426 384 - 24;
#X obj 618 302 - 16;
#X obj 504 303 - 8;
#X obj 818 328 hsl 128 15 0 32 0 0 empty empty empty -2 -8 0 10 #fcfcfc #000000 #000000 0 1;
#X obj 815 347 int;
#X obj 587 460 r grainsNum;
#X obj 705 462 r grainsNum;
#X obj 684 526 /~ 1;
#X obj 566 524 /~ 1;
#X obj 587 503 max 1;
#X obj 705 505 max 1;
#X obj 587 482 / 8;
#X obj 705 484 / 8;
#X text 444 109 start min;
#X text 531 156 length min;
#X text 820 89 time min;
#X text 867 157 volume min;
#X text 1104 108 speed min;
#X msg 1126 148 1;
#X msg 1032 148 0.12;
#X msg 1065 148 0.25;
#X msg 1098 148 0.5;
#X msg 1220 508 1.5;
#X obj 1049 492 s volMeanH;
#X msg 1049 471 1;
#X msg 1358 400 0.125;
#X obj 1404 560 s volRangeH;
#X msg 1150 542 0.25;
#X obj 1061 588 s lRangeH;
#X msg 1061 564 0.75;
#X obj 1233 566 s lMeanH;
#X obj 1040 610 s stRangeH;
#X msg 1344 448 1500;
#X obj 958 542 s tMeanH;
#X msg 958 520 500;
#X msg 815 304 32;
#X obj 181 100 inlet~;
#X obj 567 564 outlet~;
#X obj 685 564 outlet~;
#X obj 182 125 delwrite~ tape1 5000;
#X floatatom 965 86 5 0 0 0 - - - 0;
#X msg 999 32 2;
#X msg 1035 32 3;
#X obj 967 62 line;
#X msg 1064 65 \$1 20000;
#X msg 966 32 1.5;
#X connect 1 0 0 0;
#X connect 2 0 5 0;
#X connect 3 0 6 0;
#X connect 7 0 24 0;
#X connect 8 0 10 0;
#X connect 11 0 14 0;
#X connect 12 0 15 0;
#X connect 16 0 19 0;
#X connect 17 0 20 0;
#X connect 21 0 1 0;
#X connect 21 0 31 0;
#X connect 21 0 38 0;
#X connect 22 0 29 0;
#X connect 23 0 30 0;
#X connect 26 0 28 0;
#X connect 31 0 87 0;
#X connect 31 0 82 0;
#X connect 31 0 77 0;
#X connect 31 0 80 0;
#X connect 31 0 32 0;
#X connect 31 0 79 0;
#X connect 31 0 84 0;
#X connect 31 0 89 0;
#X connect 31 0 90 0;
#X connect 32 0 33 0;
#X connect 32 0 81 0;
#X connect 38 0 39 0;
#X connect 41 0 40 0;
#X connect 43 0 42 0;
#X connect 44 0 63 0;
#X connect 44 1 62 0;
#X connect 45 0 44 0;
#X connect 46 0 63 0;
#X connect 46 1 62 0;
#X connect 47 0 57 0;
#X connect 48 0 63 0;
#X connect 48 1 62 0;
#X connect 49 0 56 0;
#X connect 50 0 63 0;
#X connect 50 1 62 0;
#X connect 51 0 55 0;
#X connect 52 0 63 0;
#X connect 52 1 62 0;
#X connect 53 0 54 0;
#X connect 54 0 52 0;
#X connect 55 0 50 0;
#X connect 56 0 48 0;
#X connect 57 0 46 0;
#X connect 58 0 59 0;
#X connect 59 0 43 0;
#X connect 60 0 66 0;
#X connect 61 0 67 0;
#X connect 62 0 93 0;
#X connect 63 0 92 0;
#X connect 64 0 63 1;
#X connect 65 0 62 1;
#X connect 66 0 64 0;
#X connect 67 0 65 0;
#X connect 73 0 12 0;
#X connect 74 0 12 0;
#X connect 75 0 12 0;
#X connect 76 0 12 0;
#X connect 77 0 34 0;
#X connect 77 0 85 0;
#X connect 79 0 78 0;
#X connect 80 0 37 0;
#X connect 82 0 35 0;
#X connect 84 0 83 0;
#X connect 84 0 86 0;
#X connect 87 0 36 0;
#X connect 89 0 88 0;
#X connect 90 0 58 0;
#X connect 91 0 94 0;
#X connect 95 0 11 0;
#X connect 96 0 99 0;
#X connect 97 0 99 0;
#X connect 98 0 95 0;
#X connect 99 0 98 0;
#X connect 100 0 99 0;
#X restore 363 340 pd granular;
#X obj 236 379 OctFilt, f 22;
#X obj 582 382 tgl 15 0 modON empty empty 17 7 0 10 #fcfcfc #000000 #000000 0 1;
#X obj 236 409 mixer5;
#X obj 409 379 OctFilt, f 22;
#X obj 409 409 mixer5;
#X text 600 382 Octave bands modulation;
#X obj 582 348 loadbang;
#X obj 364 276 eq~ 90 1 -3;
#X obj 364 250 eq~ 200 1 -6;
#X obj 364 59 inlet;
#X obj 236 657 outlet~;
#X obj 409 657 outlet~;
#X obj 236 604 *~ 2;
#X obj 409 604 *~ 2;
#X obj 158 322 hsl 162 19 0 1 0 0 empty empty empty -2 -10 0 12 #fcfcfc #000000 #000000 0 1;
#X obj 155 346 *~;
#X obj 364 300 drive~ 4;
#X floatatom 482 118 5 0 0 0 - - - 0;
#X obj 482 188 +~;
#X obj 661 75 LFOs;
#X obj 482 212 s2f~;
#X floatatom 482 236 8 0 0 0 - - - 0;
#X floatatom 661 126 5 0 0 0 - - - 0;
#X obj 661 149 * 100;
#X obj 567 106 line;
#X msg 567 81 \$1 1000;
#X msg 451 118 0;
#X obj 567 43 inlet;
#X obj 482 141 bondo;
#X obj 482 165 +;
#X msg 482 94 500;
#X msg 155 297 0.225;
#X connect 0 0 1 0;
#X connect 0 1 1 1;
#X connect 0 2 1 2;
#X connect 0 3 1 3;
#X connect 0 4 1 4;
#X connect 1 0 3 0;
#X connect 2 0 0 0;
#X connect 3 0 16 0;
#X connect 4 0 15 0;
#X connect 4 0 16 0;
#X connect 5 0 4 0;
#X connect 6 0 34 0;
#X connect 6 0 39 0;
#X connect 6 0 38 0;
#X connect 7 0 8 1;
#X connect 7 0 8 0;
#X connect 7 0 8 2;
#X connect 7 0 8 3;
#X connect 7 0 8 4;
#X connect 7 1 11 0;
#X connect 7 1 11 3;
#X connect 7 1 11 4;
#X connect 7 1 11 1;
#X connect 7 1 11 2;
#X connect 8 0 10 0;
#X connect 8 1 10 1;
#X connect 8 2 10 2;
#X connect 8 3 10 3;
#X connect 8 4 10 4;
#X connect 10 0 20 0;
#X connect 11 0 12 0;
#X connect 11 1 12 1;
#X connect 11 2 12 2;
#X connect 11 3 12 3;
#X connect 11 4 12 4;
#X connect 12 0 21 0;
#X connect 14 0 9 0;
#X connect 15 0 24 0;
#X connect 16 0 15 0;
#X connect 17 0 2 0;
#X connect 20 0 18 0;
#X connect 21 0 19 0;
#X connect 22 0 23 0;
#X connect 23 0 18 0;
#X connect 23 0 19 0;
#X connect 24 0 7 0;
#X connect 24 0 23 1;
#X connect 25 0 36 0;
#X connect 26 0 3 1;
#X connect 26 0 28 0;
#X connect 27 0 30 0;
#X connect 28 0 29 0;
#X connect 30 0 31 0;
#X connect 31 0 26 1;
#X connect 32 0 36 1;
#X connect 33 0 32 0;
#X connect 34 0 3 2;
#X connect 35 0 33 0;
#X connect 36 0 37 0;
#X connect 36 1 37 1;
#X connect 37 0 26 0;
#X connect 38 0 25 0;
#X connect 39 0 22 0;
