#N canvas 0 0 1370 729 10;
#X obj 100 160 osc~;
#X obj 200 20 loadbang;
#X obj 100 100 random 100;
#X obj 200 100 random 100;
#X obj 200 160 osc~;
#X obj 100 200 +~;
#X floatatom 250 160 5 0 0 0 - - - 0;
#X floatatom 140 160 5 0 0 0 - - - 0;
#X obj 100 290 +~ 0.5;
#X obj 300 100 random 100;
#X obj 300 160 osc~;
#X floatatom 350 160 5 0 0 0 - - - 0;
#X obj 100 230 +~;
#X obj 100 260 /~ 6;
#X obj 100 320 snapshot~;
#X obj 30 290 metro 10;
#X obj 30 270 tgl 15 0 empty empty empty 17 7 0 10 #fcfcfc #000000 #000000 0 1;
#X obj 100 350 outlet;
#X obj 100 130 / 10000;
#X obj 200 130 / 1000;
#X obj 300 130 / 1000;
#X obj 150 130 / 100;
#X obj 244 130 / 100;
#X obj 344 130 / 100;
#X connect 0 0 5 0;
#X connect 1 0 2 0;
#X connect 1 0 3 0;
#X connect 1 0 9 0;
#X connect 1 0 16 0;
#X connect 2 0 18 0;
#X connect 2 0 21 0;
#X connect 3 0 19 0;
#X connect 3 0 22 0;
#X connect 4 0 5 1;
#X connect 5 0 12 0;
#X connect 8 0 14 0;
#X connect 9 0 20 0;
#X connect 9 0 23 0;
#X connect 10 0 12 1;
#X connect 12 0 13 0;
#X connect 13 0 8 0;
#X connect 14 0 17 0;
#X connect 15 0 14 0;
#X connect 16 0 15 0;
#X connect 18 0 0 0;
#X connect 18 0 7 0;
#X connect 19 0 4 0;
#X connect 19 0 6 0;
#X connect 20 0 10 0;
#X connect 20 0 11 0;
#X connect 21 0 0 1;
#X connect 22 0 4 1;
#X connect 23 0 10 1;
