#N canvas 0 0 1920 989 12;
#X declare -path OSC;
#X obj 435 78 bng 19 250 50 0 empty empty empty 0 -10 0 12 #fcfcfc #000000 #000000;
#X obj 435 182 granularPad;
#X obj 526 216 FM;
#X obj 492 295 Mixer;
#X obj 526 79 bng 19 250 50 0 empty empty empty 0 -10 0 12 #fcfcfc #000000 #000000;
#N canvas 1917 0 1920 989 chooseNoteBass 1;
#X floatatom 636 340 5 0 0 0 - - - 0;
#X obj 636 367 * 12;
#X floatatom 606 457 5 0 0 0 - - - 0;
#X obj 600 397 bondo;
#X obj 606 427 +;
#X obj 600 100 inlet;
#X obj 606 487 outlet;
#X obj 600 150 bng 15 250 50 0 empty empty empty 17 7 0 10 #fcfcfc #000000 #000000;
#X obj 600 190 random 100;
#X floatatom 670 190 5 0 0 0 - - - 0;
#X obj 600 210 expr if($f1 < 60 && $f1 > 40 \, 0 \, if($f1 > 76 || $f1 < 24 \, 2 \, 1)), f 64;
#X obj 840 190 random 100;
#X floatatom 913 190 5 0 0 0 - - - 0;
#X obj 600 230 expr if($f1 == 0 \, 60 \, if($f1 == 1 \, if($f2 > 50 \, 67 \, 64) \, if($f2 < 25 \, 62 \, if($f2 < 50 \, 65 \, if($f2 < 75 \, 69 \, 71)))));
#X floatatom 600 270 5 0 0 0 - - - 0;
#X text 595 82 Trigger;
#X obj 600 310 - 36;
#X obj 636 310 random 1;
#X connect 0 0 1 0;
#X connect 1 0 3 1;
#X connect 2 0 6 0;
#X connect 3 0 4 0;
#X connect 3 1 4 1;
#X connect 4 0 2 0;
#X connect 5 0 7 0;
#X connect 7 0 8 0;
#X connect 7 0 11 0;
#X connect 7 0 17 0;
#X connect 8 0 10 0;
#X connect 8 0 9 0;
#X connect 10 0 13 0;
#X connect 11 0 12 0;
#X connect 11 0 13 1;
#X connect 13 0 14 0;
#X connect 14 0 16 0;
#X connect 16 0 3 0;
#X connect 17 0 0 0;
#X restore 526 183 pd chooseNoteBass;
#X floatatom 556 217 5 0 0 0 - - - 0;
#X obj 183 172 vstplugin~;
#X msg 183 143 open -e ValhallaVintageVerb_x64;
#X obj 526 543 dac~;
#X obj 182 206 stVol;
#X text 26 36 Mix: 100 Preset: Fat Snare Hall Decay: 5.12 s Hi cut: 5000 Hz Lo Cut: 160 Hz;
#X obj 183 115 loadbang;
#X obj 525 254 bob~;
#X floatatom 526 127 5 0 0 0 - - - 0;
#X obj 526 103 counter 1;
#X floatatom 435 130 5 0 0 0 - - - 0;
#X obj 435 153 sel 0;
#X obj 435 106 counter 3;
#X obj 691 59 / 127;
#X floatatom 654 152 5 0 0 0 - - - 0;
#X floatatom 691 125 5 0 0 0 - - - 0;
#X obj 613 65 loadbang;
#X obj 654 175 bondo;
#X obj 654 199 +;
#X msg 654 128 500;
#X obj 67 -485 DRUMS_v2;
#X obj 622 102 * 3000;
#X floatatom 87 266 5 0 0 0 - - - 0;
#X obj 87 289 / 127;
#X obj 87 242 ctlin 4;
#X obj 828 6 ctlin 5;
#X obj 759 99 s dynamic;
#X obj 760 77 * 100;
#N canvas 262 75 1366 677 osc 0;
#X obj 160 326 tgl 19 0 empty empty empty 0 -10 0 12 #fcfcfc #000000 #000000 0 1;
#X msg 72 167 disconnect;
#X obj 160 302 udpsend;
#X obj 418 53 declare -path OSC;
#X obj 212 259 packOSC;
#X msg 213 235 send /kickBang \$1;
#X obj 336 459 packOSC;
#X obj 474 458 packOSC;
#X obj 213 133 r kickBng;
#X obj 213 157 bng 19 250 50 0 empty empty empty 0 -10 0 12 #fcfcfc #000000 #000000;
#X obj 213 181 tgl 19 0 empty empty empty 0 -10 0 12 #fcfcfc #000000 #000000 0 1;
#X obj 263 158 delay 100;
#X msg 337 435 send /kickDen \$1;
#X obj 337 388 r kickDens;
#X floatatom 467 405 5 0 0 0 - - - 0;
#X msg 475 434 send /dynamics \$1;
#X obj 467 381 r dynamic;
#X obj 625 451 packOSC;
#X floatatom 618 398 5 0 0 0 - - - 0;
#X obj 618 374 r padVol;
#X msg 626 427 send /padVol \$1;
#X obj 765 447 packOSC;
#X floatatom 758 394 5 0 0 0 - - - 0;
#X obj 758 370 r FMVol;
#X msg 766 423 send /FMVol \$1;
#X obj 879 446 packOSC;
#X floatatom 872 393 5 0 0 0 - - - 0;
#X obj 872 345 r drumsVol;
#X obj 872 369 * 100;
#X msg 880 422 send /drumsVol \$1;
#X obj 352 259 packOSC;
#X obj 353 157 bng 19 250 50 0 empty empty empty 0 -10 0 12 #fcfcfc #000000 #000000;
#X obj 353 181 tgl 19 0 empty empty empty 0 -10 0 12 #fcfcfc #000000 #000000 0 1;
#X obj 403 158 delay 100;
#X obj 353 133 r hatBng;
#X msg 353 235 send /hatBang \$1;
#X obj 480 259 packOSC;
#X obj 481 157 bng 19 250 50 0 empty empty empty 0 -10 0 12 #fcfcfc #000000 #000000;
#X obj 481 181 tgl 19 0 empty empty empty 0 -10 0 12 #fcfcfc #000000 #000000 0 1;
#X obj 531 158 delay 100;
#X obj 609 260 packOSC;
#X obj 610 158 bng 19 250 50 0 empty empty empty 0 -10 0 12 #fcfcfc #000000 #000000;
#X obj 610 182 tgl 19 0 empty empty empty 0 -10 0 12 #fcfcfc #000000 #000000 0 1;
#X obj 660 159 delay 100;
#X obj 481 133 r snareBng;
#X msg 481 235 send /snareBang \$1;
#X obj 610 134 r brrrBng;
#X msg 610 236 send /brrrBang \$1;
#X obj 157 50 loadbang;
#X obj 184 457 packOSC;
#X obj 185 386 r kickDens;
#X obj 78 456 packOSC;
#X obj 79 385 r kickDens;
#X msg 185 433 send /snhatDen \$1;
#X msg 79 432 send /Den \$1;
#X msg 159 84 connect 192.168.174.62 7400;
#X obj 775 261 packOSC;
#X obj 776 159 bng 19 250 50 0 empty empty empty 0 -10 0 12 #fcfcfc #000000 #000000;
#X obj 776 183 tgl 19 0 empty empty empty 0 -10 0 12 #fcfcfc #000000 #000000 0 1;
#X obj 826 160 delay 100;
#X obj 776 135 r crashBng;
#X msg 776 237 send /crashBang \$1;
#X connect 1 0 2 0;
#X connect 2 0 0 0;
#X connect 4 0 2 0;
#X connect 5 0 4 0;
#X connect 6 0 2 0;
#X connect 7 0 2 0;
#X connect 8 0 9 0;
#X connect 9 0 10 0;
#X connect 9 0 11 0;
#X connect 10 0 5 0;
#X connect 11 0 10 0;
#X connect 12 0 6 0;
#X connect 13 0 12 0;
#X connect 14 0 15 0;
#X connect 15 0 7 0;
#X connect 16 0 14 0;
#X connect 17 0 2 0;
#X connect 18 0 20 0;
#X connect 19 0 18 0;
#X connect 20 0 17 0;
#X connect 21 0 2 0;
#X connect 22 0 24 0;
#X connect 23 0 22 0;
#X connect 24 0 21 0;
#X connect 25 0 2 0;
#X connect 26 0 29 0;
#X connect 27 0 28 0;
#X connect 28 0 26 0;
#X connect 29 0 25 0;
#X connect 30 0 2 0;
#X connect 31 0 32 0;
#X connect 31 0 33 0;
#X connect 32 0 35 0;
#X connect 33 0 32 0;
#X connect 34 0 31 0;
#X connect 35 0 30 0;
#X connect 36 0 2 0;
#X connect 37 0 38 0;
#X connect 37 0 39 0;
#X connect 38 0 45 0;
#X connect 39 0 38 0;
#X connect 40 0 2 0;
#X connect 41 0 42 0;
#X connect 41 0 43 0;
#X connect 42 0 47 0;
#X connect 43 0 42 0;
#X connect 44 0 37 0;
#X connect 45 0 36 0;
#X connect 46 0 41 0;
#X connect 47 0 40 0;
#X connect 48 0 55 0;
#X connect 50 0 53 0;
#X connect 52 0 54 0;
#X connect 53 0 49 0;
#X connect 54 0 51 0;
#X connect 55 0 2 0;
#X connect 56 0 2 0;
#X connect 57 0 58 0;
#X connect 57 0 59 0;
#X connect 58 0 61 0;
#X connect 59 0 58 0;
#X connect 60 0 57 0;
#X connect 61 0 56 0;
#X restore 786 185 pd osc;
#X obj 87 313 * 100;
#X obj 87 337 s verbVol;
#X obj 691 101 * 20000;
#X floatatom 654 223 5 0 0 0 - - - 0;
#X obj 828 55 line;
#X msg 828 31 \$1 5000;
#X obj 831 79 hsl 162 19 1.27 127 1 0 empty empty empty -2 -10 0 12 #fcfcfc #000000 #000000 0 1;
#X connect 0 0 18 0;
#X connect 1 0 3 0;
#X connect 1 1 3 1;
#X connect 2 0 13 0;
#X connect 3 0 7 0;
#X connect 3 0 9 0;
#X connect 3 1 7 1;
#X connect 3 1 9 1;
#X connect 4 0 15 0;
#X connect 5 0 2 0;
#X connect 5 0 6 0;
#X connect 7 0 10 0;
#X connect 7 1 10 1;
#X connect 8 0 7 0;
#X connect 10 0 9 0;
#X connect 10 1 9 1;
#X connect 12 0 8 0;
#X connect 13 0 3 2;
#X connect 13 0 3 3;
#X connect 14 0 5 0;
#X connect 15 0 14 0;
#X connect 16 0 17 0;
#X connect 17 0 1 0;
#X connect 18 0 16 0;
#X connect 19 0 27 0;
#X connect 19 0 33 0;
#X connect 19 0 37 0;
#X connect 20 0 23 0;
#X connect 21 0 23 1;
#X connect 22 0 25 0;
#X connect 23 0 24 0;
#X connect 23 1 24 1;
#X connect 24 0 13 1;
#X connect 24 0 38 0;
#X connect 25 0 20 0;
#X connect 26 0 3 4;
#X connect 26 0 3 5;
#X connect 26 1 0 0;
#X connect 26 1 4 0;
#X connect 27 0 1 1;
#X connect 28 0 29 0;
#X connect 29 0 10 2;
#X connect 29 0 35 0;
#X connect 30 0 28 0;
#X connect 31 0 40 0;
#X connect 33 0 32 0;
#X connect 35 0 36 0;
#X connect 37 0 21 0;
#X connect 39 0 41 0;
#X connect 40 0 39 0;
#X connect 41 0 19 0;
