#N canvas 1 1 1348 659 12;
#X obj 110 110 vsl 19 165 0 0.25 0 0 empty empty empty 0 -9 0 12 #fcfcfc #000000 #000000 0 1;
#X obj 245 410 inlet~;
#X obj 245 443 *~;
#X obj 245 476 +~;
#X obj 245 522 +~;
#X obj 245 558 outlet~;
#X obj 298 410 inlet~;
#X obj 298 443 *~;
#X obj 140 110 vsl 19 164 0 0.25 0 0 empty empty empty 0 -9 0 12 #fcfcfc #000000 #000000 0 1;
#X obj 170 110 vsl 19 164 0 0.25 0 0 empty empty empty 0 -9 0 12 #fcfcfc #000000 #000000 0 1;
#X obj 200 110 vsl 19 164 0 0.25 0 0 empty empty empty 0 -9 0 12 #fcfcfc #000000 #000000 0 1;
#X obj 351 410 inlet~;
#X obj 351 443 *~;
#X obj 298 476 +~;
#X obj 404 410 inlet~;
#X obj 404 443 *~;
#X obj 456 411 inlet~;
#X obj 456 444 *~;
#X obj 456 477 +~;
#X obj 509 411 inlet~;
#X obj 509 444 *~;
#X obj 561 411 inlet~;
#X obj 561 444 *~;
#X obj 509 477 +~;
#X obj 614 411 inlet~;
#X obj 614 444 *~;
#X obj 298 522 +~;
#X obj 298 558 outlet~;
#X floatatom 80 34 5 0 0 0 - - - 0;
#X obj 80 10 ctlin 2;
#X obj 80 57 / 127;
#X obj 80 81 / 4;
#X floatatom 151 34 5 0 0 0 - - - 0;
#X obj 151 57 / 127;
#X obj 151 81 / 4;
#X obj 151 10 ctlin 3;
#X msg 195 52 0.25;
#X obj 241 17 loadbang;
#X floatatom 99 322 5 0 0 0 - - - 0;
#X obj 99 345 * 400;
#X obj 99 369 s padVol;
#X floatatom 166 316 5 0 0 0 - - - 0;
#X obj 166 339 * 400;
#X msg 166 363 \$1 2000;
#X obj 166 387 line;
#X obj 166 411 s FMVol;
#X connect 0 0 2 1;
#X connect 0 0 7 1;
#X connect 0 0 38 0;
#X connect 1 0 2 0;
#X connect 2 0 3 0;
#X connect 3 0 4 0;
#X connect 4 0 5 0;
#X connect 6 0 7 0;
#X connect 7 0 13 0;
#X connect 8 0 12 1;
#X connect 8 0 15 1;
#X connect 8 0 41 0;
#X connect 9 0 17 1;
#X connect 9 0 20 1;
#X connect 10 0 22 1;
#X connect 10 0 25 1;
#X connect 11 0 12 0;
#X connect 12 0 3 1;
#X connect 13 0 26 0;
#X connect 14 0 15 0;
#X connect 15 0 13 1;
#X connect 16 0 17 0;
#X connect 17 0 18 0;
#X connect 18 0 4 1;
#X connect 19 0 20 0;
#X connect 20 0 23 0;
#X connect 21 0 22 0;
#X connect 22 0 18 1;
#X connect 23 0 26 1;
#X connect 24 0 25 0;
#X connect 25 0 23 1;
#X connect 26 0 27 0;
#X connect 28 0 30 0;
#X connect 29 0 28 0;
#X connect 30 0 31 0;
#X connect 31 0 0 0;
#X connect 32 0 33 0;
#X connect 33 0 34 0;
#X connect 34 0 8 0;
#X connect 35 0 32 0;
#X connect 36 0 9 0;
#X connect 37 0 36 0;
#X connect 38 0 39 0;
#X connect 39 0 40 0;
#X connect 41 0 42 0;
#X connect 42 0 43 0;
#X connect 43 0 44 0;
#X connect 44 0 45 0;
#X coords 0 -1 1 1 130 190 2 100 100;
