#N canvas 0 0 1904 968 12;
#X obj 100 380 inlet~;
#X obj 100 410 *~;
#X obj 100 440 +~;
#X obj 200 440 +~;
#X obj 100 470 +~;
#X obj 100 530 outlet~;
#X obj 150 380 inlet~;
#X obj 150 413 *~;
#X obj 200 380 inlet~;
#X obj 200 413 *~;
#X obj 250 380 inlet~;
#X obj 250 413 *~;
#X obj 230 110 vsl 19 164 0 1 0 0 empty empty empty 0 -9 0 12 #fcfcfc #000000 #000000 0 1;
#X obj 300 380 inlet~;
#X obj 300 413 *~;
#X obj 100 500 +~;
#X obj 110 110 vsl 19 164 0 1 0 0 empty empty empty 0 -9 0 12 #fcfcfc #000000 #000000 0 1;
#X obj 140 110 vsl 19 164 0 1 0 0 empty empty empty 0 -9 0 12 #fcfcfc #000000 #000000 0 1;
#X obj 170 110 vsl 19 164 0 1 0 0 empty empty empty 0 -9 0 12 #fcfcfc #000000 #000000 0 1;
#X obj 200 110 vsl 19 164 0 1 0 0 empty empty empty 0 -9 0 12 #fcfcfc #000000 #000000 0 1;
#X floatatom 70 46 5 0 0 0 - - - 0;
#X obj 70 16 LFOs;
#X floatatom 120 46 5 0 0 0 - - - 0;
#X obj 120 16 LFOs;
#X floatatom 170 46 5 0 0 0 - - - 0;
#X obj 170 16 LFOs;
#X floatatom 220 46 5 0 0 0 - - - 0;
#X obj 220 16 LFOs;
#X floatatom 270 46 5 0 0 0 - - - 0;
#X obj 270 16 LFOs;
#X obj 70 76 spigot;
#X obj 120 76 spigot;
#X obj 170 76 spigot;
#X obj 220 76 spigot;
#X obj 270 76 spigot;
#X obj 209 -6 r modON;
#X connect 0 0 1 0;
#X connect 1 0 2 0;
#X connect 2 0 4 0;
#X connect 3 0 4 1;
#X connect 4 0 15 0;
#X connect 6 0 7 0;
#X connect 7 0 2 1;
#X connect 8 0 9 0;
#X connect 9 0 3 0;
#X connect 10 0 11 0;
#X connect 11 0 3 1;
#X connect 12 0 14 1;
#X connect 13 0 14 0;
#X connect 14 0 15 1;
#X connect 15 0 5 0;
#X connect 16 0 1 1;
#X connect 17 0 7 1;
#X connect 18 0 9 1;
#X connect 19 0 11 1;
#X connect 20 0 30 0;
#X connect 21 0 20 0;
#X connect 22 0 31 0;
#X connect 23 0 22 0;
#X connect 24 0 32 0;
#X connect 25 0 24 0;
#X connect 26 0 33 0;
#X connect 27 0 26 0;
#X connect 28 0 34 0;
#X connect 29 0 28 0;
#X connect 30 0 16 0;
#X connect 31 0 17 0;
#X connect 32 0 18 0;
#X connect 33 0 19 0;
#X connect 34 0 12 0;
#X connect 35 0 34 1;
#X connect 35 0 33 1;
#X connect 35 0 32 1;
#X connect 35 0 31 1;
#X connect 35 0 30 1;
#X coords 0 -1 1 1 160 190 2 100 100;
