#N canvas 1 1 1366 677 12;
#X obj 100 380 inlet~;
#X obj 100 410 *~;
#X obj 100 440 +~;
#X obj 200 440 +~;
#X obj 100 470 +~;
#X obj 100 530 outlet~;
#X obj 150 380 inlet~;
#X obj 150 413 *~;
#X obj 200 380 inlet~;
#X obj 200 413 *~;
#X obj 250 380 inlet~;
#X obj 250 413 *~;
#X obj 100 500 +~;
#X obj 110 110 vsl 19 164 0 1 0 0 empty empty empty 0 -9 0 12 #fcfcfc #000000 #000000 0 1;
#X obj 140 110 vsl 19 164 0 1 0 0 empty empty empty 0 -9 0 12 #fcfcfc #000000 #000000 0 1;
#X obj 170 110 vsl 19 164 0 1 0 0 empty empty empty 0 -9 0 12 #fcfcfc #000000 #000000 0 1;
#X obj 200 110 vsl 19 164 0 1 0 0 empty empty empty 0 -9 0 12 #fcfcfc #000000 #000000 0 1;
#X obj 230 110 vsl 19 164 0 1 0 0 empty empty empty 0 -9 0 12 #fcfcfc #000000 #000000 0 1;
#X obj 260 110 vsl 19 164 0 1 0 0 empty empty empty 0 -9 0 12 #fcfcfc #000000 #000000 0 1;
#X obj 320 110 vsl 19 164 0 1 0 0 empty empty empty 0 -9 0 12 #fcfcfc #000000 #000000 0 1;
#X obj 290 110 vsl 19 164 0 1 0 0 empty empty empty 0 -9 0 12 #fcfcfc #000000 #000000 0 1;
#X obj 301 380 inlet~;
#X obj 301 410 *~;
#X obj 301 440 +~;
#X obj 401 440 +~;
#X obj 301 470 +~;
#X obj 351 380 inlet~;
#X obj 351 413 *~;
#X obj 401 380 inlet~;
#X obj 401 413 *~;
#X obj 451 380 inlet~;
#X obj 451 413 *~;
#X obj 718 -70 inlet;
#X obj 718 -29 expr if($f1<=1 \, sqrt(1-$f1) \, 0) \; if($f1<=1 \, sqrt($f1) \, if($f1<=2 \, sqrt(1-($f1-1)) \, 0)) \; if($f1>1 && $f1<=2 \, sqrt($f1-1) \, if($f1>2 && $f1<=3 \, sqrt(1-($f1-2)) \, 0)) \; if($f1>2 && $f1<=3 \, sqrt($f1-2) \, if($f1>3 && $f1<=4 \, sqrt(1-($f1-3)) \, 0)) \; if($f1>3 && $f1<=4 \, sqrt($f1-3) \, if($f1>4 && $f1<=5 \, sqrt(1-($f1-4)) \, 0)) \; if($f1>4 && $f1<=5 \, sqrt($f1-4) \, if($f1>5 && $f1<=6 \, sqrt(1-($f1-5)) \, 0)) \; if($f1>5 && $f1<=6 \, sqrt($f1-5) \, if($f1>6 && $f1<=7 \, sqrt(1-($f1-6)) \, 0)) \; if($f1>6 && $f1<=7 \, sqrt($f1-6) \, 0) \;, f 68;
#X connect 0 0 1 0;
#X connect 1 0 2 0;
#X connect 2 0 4 0;
#X connect 3 0 4 1;
#X connect 4 0 12 0;
#X connect 6 0 7 0;
#X connect 7 0 2 1;
#X connect 8 0 9 0;
#X connect 9 0 3 0;
#X connect 10 0 11 0;
#X connect 11 0 3 1;
#X connect 12 0 5 0;
#X connect 13 0 1 1;
#X connect 14 0 7 1;
#X connect 15 0 9 1;
#X connect 16 0 11 1;
#X connect 17 0 22 1;
#X connect 18 0 27 1;
#X connect 19 0 31 1;
#X connect 20 0 29 1;
#X connect 21 0 22 0;
#X connect 22 0 23 0;
#X connect 23 0 25 0;
#X connect 24 0 25 1;
#X connect 25 0 12 1;
#X connect 26 0 27 0;
#X connect 27 0 23 1;
#X connect 28 0 29 0;
#X connect 29 0 24 0;
#X connect 30 0 31 0;
#X connect 31 0 24 1;
#X connect 32 0 33 0;
#X connect 33 0 13 0;
#X connect 33 1 14 0;
#X connect 33 2 15 0;
#X connect 33 3 16 0;
#X connect 33 4 17 0;
#X connect 33 5 18 0;
#X connect 33 6 20 0;
#X connect 33 7 19 0;
#X coords 0 -1 1 1 250 190 2 100 100;
