#N canvas 0 0 1904 968 12;
#X obj 100 130 hip~ 22.1;
#X obj 200 130 hip~ 88.4;
#X obj 300 130 hip~ 353.6;
#X obj 400 130 hip~ 1414.2;
#X obj 500 130 hip~ 5656.9;
#X obj 100 100 inlet~;
#X obj 200 100 inlet~;
#X obj 300 100 inlet~;
#X obj 400 100 inlet~;
#X obj 500 100 inlet~;
#X obj 100 190 outlet~;
#X obj 200 190 outlet~;
#X obj 300 190 outlet~;
#X obj 400 190 outlet~;
#X obj 500 190 outlet~;
#X obj 100 160 lop~ 88.4;
#X obj 200 160 lop~ 353.6;
#X obj 300 160 lop~ 1414.2;
#X obj 400 160 lop~ 5656.9;
#X obj 500 160 lop~ 22627.4;
#X connect 0 0 15 0;
#X connect 1 0 16 0;
#X connect 2 0 17 0;
#X connect 3 0 18 0;
#X connect 4 0 19 0;
#X connect 5 0 0 0;
#X connect 6 0 1 0;
#X connect 7 0 2 0;
#X connect 8 0 3 0;
#X connect 9 0 4 0;
#X connect 15 0 10 0;
#X connect 16 0 11 0;
#X connect 17 0 12 0;
#X connect 18 0 13 0;
#X connect 19 0 14 0;
#X coords 0 0 1 1 85 60 0;
